SplineFontDB: 3.0
FontName: AnkaCoder-Norm-SkelI
FullName: Anna Shugol/Coder Italic
FamilyName: Anka/Coder
Weight: Book
Copyright: Copyright (c) 2010, Andrey Makarov (makarov@bmstu.ru, mka-at-mailru@mail.ru),\nwith Reserved Font Name Anka/Coder Narrow.\n---------------------------------\nThe Anka/* are members of Anna Shugol name font family; March 2010
Version: 001.000
StrokeWidth: 100
ItalicAngle: -12
UnderlinePosition: -292
UnderlineWidth: 50
Ascent: 1638
Descent: 410
LayerCount: 2
Layer: 0 0 "Back"  1
Layer: 1 0 "Fore"  0
StrokedFont: 1
NeedsXUIDChange: 1
XUID: [1021 77 1780377344 12776136]
UseXUID: 1
BaseHoriz: 0
FSType: 8
OS2Version: 1
OS2_WeightWidthSlopeOnly: 0
OS2_UseTypoMetrics: 1
CreationTime: 1260467214
ModificationTime: 1267552986
PfmFamily: 49
TTFWeight: 400
TTFWidth: 4
LineGap: 0
VLineGap: 0
Panose: 2 11 5 9 2 5 2 2 2 4
OS2TypoAscent: 0
OS2TypoAOffset: 1
OS2TypoDescent: 0
OS2TypoDOffset: 1
OS2TypoLinegap: 0
OS2WinAscent: 0
OS2WinAOffset: 1
OS2WinDescent: 0
OS2WinDOffset: 1
HheadAscent: 0
HheadAOffset: 1
HheadDescent: 0
HheadDOffset: 1
OS2SubXSize: 553
OS2SubYSize: 1229
OS2SubXOff: 0
OS2SubYOff: 283
OS2SupXSize: 553
OS2SupYSize: 1229
OS2SupXOff: 0
OS2SupYOff: 977
OS2StrikeYSize: 102
OS2StrikeYPos: 530
OS2FamilyClass: 1285
OS2Vendor: 'AVM1'
OS2CodePages: 40000097.cfd60000
OS2UnicodeRanges: 800002ef.000079eb.00000000.00000000
MacStyle: 2
DEI: 91125
ShortTable: maxp 16
  0
  0
  0
  0
  0
  0
  0
  2
  1
  0
  9
  0
  256
  0
  0
  0
EndShort
TtTable: prep
PUSHW_1
 511
SCANCTRL
SVTCA[y-axis]
MPPEM
PUSHB_1
 8
LT
IF
PUSHB_2
 1
 1
INSTCTRL
EIF
PUSHB_2
 70
 6
CALL
IF
POP
PUSHB_1
 16
EIF
MPPEM
PUSHB_1
 20
GT
IF
POP
PUSHB_1
 128
EIF
SCVTCI
PUSHB_1
 6
CALL
NOT
IF
EIF
EndTTInstrs
TtTable: fpgm
PUSHB_1
 0
FDEF
PUSHB_1
 0
SZP0
MPPEM
PUSHB_1
 42
LT
IF
PUSHB_1
 74
SROUND
EIF
PUSHB_1
 0
SWAP
MIAP[rnd]
RTG
PUSHB_1
 6
CALL
IF
RTDG
EIF
MPPEM
PUSHB_1
 42
LT
IF
RDTG
EIF
DUP
MDRP[rp0,rnd,grey]
PUSHB_1
 1
SZP0
MDAP[no-rnd]
RTG
ENDF
PUSHB_1
 1
FDEF
DUP
DUP

StartChar: exclam
Encoding: 33 33 1
Width: 1229
VWidth: 1708
GlyphClass: 2
Flags: W
HStem: -68 194<432.398 596.285>
VStem: 417 195<-52.3284 110.08>
LayerCount: 2
Fore
SplineSet
612 29 m 0
 612 -23 572 -68 514 -68 c 0
 459 -68 417 -24 417 29 c 0
 417 80 456 126 514 126 c 0
 571 126 612 82 612 29 c 0
797 1429 m 0
 871 1429 924 1377 904 1280 c 1
 692 384 l 1
 488 384 l 1
 640 1281 l 1
 660 1377 729 1429 797 1429 c 0
EndSplineSet
EndChar

StartChar: quotedbl
Encoding: 34 34 2
Width: 1229
VWidth: 1708
GlyphClass: 2
Flags: W
LayerCount: 2
Fore
SplineSet
494 1076 m 2
 477 1057 458 1049 441 1049 c 3
 413 1049 391 1070 391 1102 c 3
 391 1114 394 1127 401 1141 c 2
 511 1368 l 2
 531 1409 563 1426 595 1426 c 3
 645 1426 695 1384 695 1331 c 3
 695 1309 686 1285 664 1261 c 2
 494 1076 l 2
914 1076 m 2
 897 1057 878 1049 861 1049 c 3
 833 1049 811 1070 811 1102 c 3
 811 1114 814 1127 821 1141 c 2
 931 1368 l 2
 951 1409 983 1426 1015 1426 c 3
 1065 1426 1115 1384 1115 1331 c 3
 1115 1309 1106 1285 1084 1261 c 2
 914 1076 l 2
EndSplineSet
EndChar

StartChar: numbersign
Encoding: 35 35 3
Width: 1229
VWidth: 1708
GlyphClass: 2
Flags: W
LayerCount: 2
Back
SplineSet
0 0 m 1
 262 1350 l 1
 1229 1350 l 1
 967 0 l 1
 0 0 l 1
EndSplineSet
Fore
SplineSet
-61 973 m 25
 1292 973 l 25
-61 416 m 25
 1292 416 l 25
982 1425 m 25
 685 -99 l 25
540 1425 m 25
 242 -99 l 25
EndSplineSet
EndChar

StartChar: dollar
Encoding: 36 36 4
Width: 1229
VWidth: 2334
GlyphClass: 2
Flags: MW
LayerCount: 2
Back
SplineSet
186 1425 m 5
 1415 1425 l 5
 1112.06 -24 l 5
 -116.936 -24 l 5
 186 1425 l 5
EndSplineSet
Fore
SplineSet
815 1494 m 25
 485 -93 l 25
99 325 m 0
 60 139 270 50 502 50 c 10
 527 50 l 18
 753 50 982 183 1014 337 c 10
 1020 367 l 18
 1048 503 995 628 828 696 c 2
 470 830 l 2
 358 872 301 957 317 1033 c 2
 324 1063 l 2
 362 1250 552 1350 781 1350 c 10
 791 1350 l 18
 985 1350 1139 1304 1164 1177 c 0
 1172 1136 1165 1093 1159 1063 c 0
EndSplineSet
EndChar

StartChar: percent
Encoding: 37 37 5
Width: 1229
VWidth: 1708
GlyphClass: 2
Flags: MW
LayerCount: 2
Fore
SplineSet
853 47 m 3
 751 47 684 133 683 235 c 0
 683 338 750 423 853 423 c 3
 958 423 1023 339 1023 235 c 3xe0
 1023 139 959 47 853 47 c 3
503 957 m 3
 401 957 334 1043 333 1145 c 0
 333 1248 400 1333 503 1333 c 3
 608 1333 673 1249 673 1145 c 3xe0
 673 1049 609 957 503 957 c 3
-25 76 m 25
 1324 1325 l 25
EndSplineSet
EndChar

StartChar: ampersand
Encoding: 38 38 6
Width: 1229
VWidth: 2334
GlyphClass: 2
Flags: MW
LayerCount: 2
Fore
SplineSet
1034 10 m 5
 579 811 l 6
 519 897 438 1036 460 1140 c 6
 464 1162 l 6
 488 1278 602 1350 772 1350 c 14
 800 1350 l 22
 976 1350 1070 1271 1046 1157 c 6
 1034 1098 l 6
 1024 1049 917 973 857 939 c 6
 347 639 l 5
 220 544 129 471 108 367 c 14
 102 337 l 22
 63 151 242 50 468 50 c 14
 494 50 l 22
 678 50 822 121 914 240 c 6
 1171 590 l 4
EndSplineSet
EndChar

StartChar: quotesingle
Encoding: 39 39 7
Width: 1229
VWidth: 1708
GlyphClass: 2
Flags: W
LayerCount: 2
Fore
SplineSet
724 1076 m 2
 707 1057 688 1049 671 1049 c 3
 643 1049 621 1070 621 1102 c 3
 621 1114 624 1127 631 1141 c 2
 741 1368 l 2
 761 1409 793 1426 825 1426 c 3
 875 1426 925 1384 925 1331 c 3
 925 1309 916 1285 894 1261 c 2
 724 1076 l 2
EndSplineSet
EndChar

StartChar: parenleft
Encoding: 40 40 8
Width: 1229
VWidth: 1708
GlyphClass: 2
Flags: MW
LayerCount: 2
Fore
SplineSet
1220 1480 m 21
 897 1352 561 1055 492 722 c 31
 419 375 632 81 896 -80 c 13
EndSplineSet
EndChar

StartChar: parenright
Encoding: 41 41 9
Width: 1229
VWidth: 1708
GlyphClass: 2
Flags: MW
LayerCount: 2
Fore
SplineSet
401 1480 m 21
 674 1352 886 1055 817 722 c 31
 744 375 409 81 77 -80 c 13
EndSplineSet
EndChar

StartChar: asterisk
Encoding: 42 42 10
Width: 1229
VWidth: 1708
GlyphClass: 2
Flags: MW
LayerCount: 2
Fore
SplineSet
352 305 m 29
 628 600 l 29
 704 965 l 29
628 600 m 29
 782 305 l 29
999 713 m 29
 628 600 l 29
 305 713 l 29
EndSplineSet
EndChar

StartChar: plus
Encoding: 43 43 11
Width: 1229
VWidth: 1708
GlyphClass: 2
Flags: MW
LayerCount: 2
Back
SplineSet
304.271 1014 m 5
 1123 1014 l 5
 943.425 153 l 5
 124.696 153 l 5
 304.271 1014 l 5
EndSplineSet
Fore
SplineSet
510.088 36 m 25
 739.72 1140 l 25
87 600 m 25
 1239 600 l 25
EndSplineSet
EndChar

StartChar: comma
Encoding: 44 44 12
Width: 1229
VWidth: 1947
GlyphClass: 2
Flags: MW
HStem: -278 57<241.796 320.313>
VStem: 363 194<-3.68353 110.805>
LayerCount: 2
Fore
SplineSet
710 10 m 17
 682 -119 647 -278 396 -278 c 9
 393 -221 l 17
 446 -210 623 -142 541 -34 c 9
 710 10 l 17
712 29 m 0
 712 -23 672 -68 614 -68 c 0
 558 -68 517 -23 517 29 c 0
 517 80 556 126 614 126 c 0
 671 126 712 81 712 29 c 0
EndSplineSet
EndChar

StartChar: hyphen
Encoding: 45 45 13
Width: 1229
VWidth: 1708
GlyphClass: 2
Flags: MW
LayerCount: 2
Back
SplineSet
304.271 1014 m 5
 1123 1014 l 5
 943.425 153 l 5
 124.696 153 l 5
 304.271 1014 l 5
EndSplineSet
Fore
SplineSet
77 600 m 25
 1179 600 l 25
EndSplineSet
EndChar

StartChar: period
Encoding: 46 46 14
Width: 1229
VWidth: 1708
GlyphClass: 2
Flags: MW
LayerCount: 2
Fore
SplineSet
712 29 m 4
 712 -23 672 -68 614 -68 c 4
 559 -68 517 -24 517 29 c 4
 517 80 556 126 614 126 c 4
 671 126 712 82 712 29 c 4
EndSplineSet
EndChar

StartChar: slash
Encoding: 47 47 15
Width: 1229
VWidth: 1708
GlyphClass: 2
Flags: MW
LayerCount: 2
Fore
SplineSet
88 -25 m 25
 1209 1425 l 25
EndSplineSet
EndChar

StartChar: zero
Encoding: 48 48 16
Width: 1229
VWidth: 1947
GlyphClass: 2
Flags: MW
LayerCount: 2
Back
SplineSet
195 1476 m 5
 1291 1476 l 5
 1371 1218 l 5
 1107 -51 l 5
 16 -51 l 5
 -73 187 l 5
 195 1476 l 5
EndSplineSet
Fore
SplineSet
794 1350 m 2
 1135 1350 1133 1062 1072 765 c 2
 1057 696 l 2
 992 380 856.002 50 524 50 c 2
 497 50 l 2
 163 50 173 380 238 696 c 2
 252 763 l 2
 315 1063 427 1350 766 1350 c 2
 794 1350 l 2
-186 -72 m 25
 1497 1503 l 25
EndSplineSet
EndChar

StartChar: one
Encoding: 49 49 17
Width: 1229
VWidth: 1708
GlyphClass: 2
Flags: W
LayerCount: 2
Back
SplineSet
-103 335 m 1
 450 767 l 1
 645 1014 l 1
 568 1134 l 1
 874.569 1425 l 1
 1413.57 1425 l 1
 1112 -25 l 1
 -178 -25 l 1
 -103 335 l 1
EndSplineSet
Fore
SplineSet
608 -200 m 29
 929 1350 l 25
 249 983 l 25
EndSplineSet
EndChar

StartChar: two
Encoding: 50 50 18
Width: 1229
VWidth: 2334
GlyphClass: 2
Flags: MW
LayerCount: 2
Back
SplineSet
42 -25 m 1
 157 525 l 1
 73 546 l 1
 267 1479 l 1
 1295 1479 l 1
 982 -25 l 1
 42 -25 l 1
EndSplineSet
Fore
SplineSet
356 1181 m 1
 446 1290 546 1350 772 1350 c 10
 797 1350 l 18
 1061 1350 1171 1242 1134 1064 c 10
 1125 1024 l 18
 1120 998 1069 899 972 832 c 2
 358 407 l 2
 241 325 145 180 109 75 c 1
 1223 75 l 9
EndSplineSet
EndChar

StartChar: three
Encoding: 51 51 19
Width: 1229
VWidth: 2334
GlyphClass: 2
Flags: W
LayerCount: 2
Fore
SplineSet
368 1190 m 1
 450 1296 616 1350 772 1350 c 10
 797 1350 l 18
 1009.58 1350 1105.65 1246.32 1074 1093 c 10
 1065 1052 l 18
 1049 974 843 809 648 809 c 2
 439 809 l 9
 685 809 l 18
 949.061 809 1053.96 680.821 1008 457 c 10
 1003 437 l 18
 951 185 791 50 527 50 c 10
 502 50 l 18
 337.722 50 152.386 112.328 152.386 262.495 c 0
EndSplineSet
EndChar

StartChar: four
Encoding: 52 52 20
Width: 1229
VWidth: 1708
GlyphClass: 2
Flags: MW
LayerCount: 2
Back
SplineSet
316 1425 m 5
 1345 1425 l 1
 1048 0 l 1
 19 0 l 5
 316 1425 l 5
EndSplineSet
Fore
SplineSet
765 -216 m 25
 1095 1352 l 25
 158 427 l 25
 1347 427 l 25
EndSplineSet
EndChar

StartChar: five
Encoding: 53 53 21
Width: 1229
VWidth: 2334
GlyphClass: 2
Flags: MW
LayerCount: 2
Back
SplineSet
124 1425 m 1
 1257 1425 l 5
 1193.9 1122 l 5
 1270.15 1104 l 1
 1029 -54 l 1
 -184 -54 l 1
 -143 141 l 1
 452 393 l 1
 486 556 l 1
 3 845 l 1
 124 1425 l 1
EndSplineSet
Fore
SplineSet
1459 1325 m 1
 503 1325 l 1
 196 495 l 1
 249 746 510 879 674 879 c 10
 699 879 l 18
 963 879 1064 731 1018 507 c 10
 1005 447 l 18
 952 189 791 50 527 50 c 10
 428 50 l 18
 261 50 54 156 92 337 c 1
EndSplineSet
EndChar

StartChar: six
Encoding: 54 54 22
Width: 1229
VWidth: 2334
GlyphClass: 2
Flags: MW
LayerCount: 2
Fore
SplineSet
188 453 m 25
 296 974 l 18
 337 1170 508 1350 772 1350 c 10
 797 1350 l 18
 983 1350 1097 1321 1135 1232 c 1
195 487 m 10
 182 427 l 18
 129 169 281 50 502 50 c 10
 527 50 l 18
 791 50 954 201 1001 427 c 10
 1014 487 l 18
 1067 743 963 879 699 879 c 10
 674 879 l 18
 410 879 241 711 195 487 c 10
EndSplineSet
EndChar

StartChar: seven
Encoding: 55 55 23
Width: 1229
VWidth: 1708
GlyphClass: 2
Flags: MW
LayerCount: 2
Back
SplineSet
325 1485 m 1
 1296 1485 l 1
 987 0 l 1
 16 0 l 1
 325 1485 l 1
EndSplineSet
Fore
SplineSet
154 1325 m 25
 1227 1325 l 17
 789 861 377 334 156 -138 c 9
EndSplineSet
EndChar

StartChar: eight
Encoding: 56 56 24
Width: 1229
VWidth: 2334
GlyphClass: 2
Flags: MW
LayerCount: 2
Fore
SplineSet
797 1350 m 10
 772 1350 l 18
 574 1350 418 1233 394 1116 c 2
 383 1064 l 2
 359 949 462 809 657 809 c 10
 688 809 l 18
 883 809 1044 949 1068 1063 c 10
 1078 1115 l 18
 1103 1233 995 1350 797 1350 c 10
186 447 m 10
 176 395 l 18
 130 177 281 50 502 50 c 10
 527 50 l 18
 791 50 949 175 995 395 c 10
 1005 447 l 18
 1059 703 949 809 685 809 c 10
 660 809 l 18
 396 809 233 671 186 447 c 10
EndSplineSet
EndChar

StartChar: nine
Encoding: 57 57 25
Width: 1229
VWidth: 2334
GlyphClass: 2
Flags: MW
LayerCount: 2
Fore
SplineSet
1111 957 m 25
 1002 431 l 18
 952 189 791 50 527 50 c 10
 502 50 l 18
 317 50 201 80 164 168 c 1
1106 930 m 18
 1053 674 895 553 631 553 c 10
 606 553 l 18
 345 553 240 706 287 930 c 10
 302 1005 l 18
 339 1182 508 1350 772 1350 c 10
 797 1350 l 18
 1014 1350 1168 1231 1121 1005 c 10
 1106 930 l 18
EndSplineSet
EndChar

StartChar: less
Encoding: 60 60 28
Width: 1229
VWidth: 1708
GlyphClass: 2
Flags: MW
LayerCount: 2
Back
SplineSet
416 1364 m 5
 1158 1364 l 5
 852 -110 l 5
 110 -110 l 5
 416 1364 l 5
EndSplineSet
Fore
SplineSet
1312 1192 m 25
 274 600 l 25
 1066 8 l 25
EndSplineSet
EndChar

StartChar: equal
Encoding: 61 61 29
Width: 1229
VWidth: 1708
GlyphClass: 2
Flags: MW
LayerCount: 2
Back
SplineSet
304.271 1014 m 5
 1123 1014 l 5
 943.425 153 l 5
 124.696 153 l 5
 304.271 1014 l 5
EndSplineSet
Fore
SplineSet
138 842 m 25
 1210 842 l 25
46 400 m 25
 1118 400 l 25
EndSplineSet
EndChar

StartChar: greater
Encoding: 62 62 30
Width: 1229
VWidth: 1708
GlyphClass: 2
Flags: MW
LayerCount: 2
Back
SplineSet
416 1364 m 5
 1158 1364 l 5
 852 -110 l 5
 110 -110 l 5
 416 1364 l 5
EndSplineSet
Fore
SplineSet
-54 8 m 25
 983 600 l 25
 192 1192 l 25
EndSplineSet
EndChar

StartChar: question
Encoding: 63 63 31
Width: 1229
VWidth: 1708
GlyphClass: 2
Flags: W
HStem: -68 194<424.398 588.285>
VStem: 409 195<-52.3284 110.08>
LayerCount: 2
Back
SplineSet
129.686 177 m 1
 948.414 177 l 1
 845.452 -318 l 1
 26.7236 -318 l 1
 129.686 177 l 1
191.385 1464 m 1
 1421.11 1464 l 1
 1187.59 339 l 1
 -42.1338 339 l 1
 191.385 1464 l 1
EndSplineSet
Fore
SplineSet
604 29 m 0
 604 -23 564 -68 506 -68 c 0
 451 -68 409 -24 409 29 c 0
 409 80 448 126 506 126 c 0
 563 126 604 82 604 29 c 0
556.264 258 m 25
 604 480 l 18
 619.667 552.86 673 618 749 673 c 2
 973 835 l 2
 1054 892 1111 954 1125 1024 c 10
 1140 1095 l 18
 1171 1242 1061 1350 797 1350 c 10
 772 1350 l 18
 508 1350 355 1242 321 1095 c 9
EndSplineSet
EndChar

StartChar: at
Encoding: 64 64 32
Width: 1229
VWidth: 1708
GlyphClass: 2
Flags: MW
LayerCount: 2
Back
SplineSet
191.385 1464 m 1
 1421.11 1464 l 1
 1179.6 311 l 1
 961 356 l 1
 873 239 l 1
 1059.33 -66 l 1
 -126.401 -66 l 1
 191.385 1464 l 1
EndSplineSet
Fore
SplineSet
931 1000 m 2
 1180 1000 l 25
 1105 639 l 2
 1085.05 542.989 962 435 814 435 c 3
 621 435 589 573 622 734 c 0
 656 895 747 1000 931 1000 c 2
1008 165 m 1
 876 66 644 50 515 50 c 3
 237 50 61 279 155 732 c 0
 222 1056 425 1350 785 1350 c 3
 1073 1350 1230.77 1242.05 1194 1065 c 2
 1032 285 l 17
EndSplineSet
EndChar

StartChar: B
Encoding: 66 66 33
Width: 1229
VWidth: 1947
GlyphClass: 2
Flags: MW
LayerCount: 2
Fore
SplineSet
983 337 m 10
 1013 485 l 18
 1057 696 944 787 680 787 c 10
 257 787 l 25
 608 787 l 2
 878 787 1016 844 1054 1025 c 2
 1068 1095 l 2
 1106 1278 997 1325 720 1325 c 2
 369 1325 l 1
 109 75 l 1
 532 75 l 2
 796 75 945 156 983 337 c 10
EndSplineSet
EndChar

StartChar: C
Encoding: 67 67 34
Width: 1229
VWidth: 1947
GlyphClass: 2
Flags: MW
LayerCount: 2
Fore
SplineSet
968 315 m 1
 878 154 747 50 553 50 c 2
 520 50 l 2
 186 50 173 380 238 696 c 2
 252 763 l 2
 315 1063 450 1350 789 1350 c 2
 823 1350 l 2
 1039 1350 1126 1245 1143 1080 c 1
EndSplineSet
EndChar

StartChar: D
Encoding: 68 68 35
Width: 1229
VWidth: 1947
GlyphClass: 2
Flags: MW
LayerCount: 2
Fore
SplineSet
764 1325 m 2
 1110 1325 1137 1082 1074 775 c 2
 1052 671 l 2
 988 362 836 75 504 75 c 2
 109 75 l 1
 369 1325 l 1
 764 1325 l 2
EndSplineSet
EndChar

StartChar: E
Encoding: 69 69 36
Width: 1229
VWidth: 1708
GlyphClass: 2
Flags: MW
LayerCount: 2
Back
SplineSet
180 1400 m 5
 1279 1400 l 5
 1197.87 1011 l 4
 1055.11 993 l 5
 937.478 429 l 5
 1071.47 405 l 4
 987 0 l 5
 -112 0 l 5
 180 1400 l 5
EndSplineSet
Fore
SplineSet
1206 787 m 25
 257 787 l 25
1453 1325 m 25
 369 1325 l 25
 109 76 l 25
 1193 76 l 25
EndSplineSet
EndChar

StartChar: F
Encoding: 70 70 37
Width: 1229
VWidth: 1708
GlyphClass: 2
Flags: MW
LayerCount: 2
Back
SplineSet
180 1400 m 5
 1279 1400 l 5
 1197.87 1011 l 4
 1055.11 993 l 5
 937.478 429 l 5
 1071.47 405 l 4
 987 0 l 5
 -112 0 l 5
 180 1400 l 5
EndSplineSet
Fore
SplineSet
1166 787 m 25
 257 787 l 25
1413 1325 m 25
 369 1325 l 25
 88 -25 l 25
EndSplineSet
EndChar

StartChar: G
Encoding: 71 71 38
Width: 1229
VWidth: 1947
GlyphClass: 2
Flags: MW
LayerCount: 2
Fore
SplineSet
1143 1080 m 1
 1126 1245 1039 1350 823 1350 c 2
 796 1350 l 2
 457 1350 315 1063 252 763 c 2
 238 696 l 2
 173 380 193 50 527 50 c 2
 553 50 l 2
 747 50 903 152 966 257 c 1
 1041 617 l 1
 696 617 l 25
EndSplineSet
EndChar

StartChar: H
Encoding: 72 72 39
Width: 1229
VWidth: 1947
GlyphClass: 2
Flags: MW
LayerCount: 2
Back
SplineSet
180 1400 m 5
 1409 1400 l 5
 1117 0 l 5
 -112 0 l 5
 180 1400 l 5
EndSplineSet
Fore
SplineSet
246 732 m 25
 1065 732 l 25
1229 1536 m 25
 883.52 -135 l 25
410 1536 m 25
 64.5195 -135 l 25
EndSplineSet
EndChar

StartChar: I
Encoding: 73 73 40
Width: 1229
VWidth: 1947
GlyphClass: 2
Flags: MW
LayerCount: 2
Back
SplineSet
385 1400 m 1
 1204 1400 l 5
 912 0 l 5
 93 0 l 1
 385 1400 l 1
EndSplineSet
Fore
SplineSet
-16 75 m 25
 1053 75 l 25
244 1325 m 25
 1313 1325 l 1
780 1326 m 1
 520 75 l 9
EndSplineSet
EndChar

StartChar: J
Encoding: 74 74 41
Width: 1229
VWidth: 1947
GlyphClass: 2
Flags: MW
LayerCount: 2
Back
SplineSet
560 1400 m 1
 1309 1400 l 1
 1011 -25 l 1
 -118 -25 l 1
 66.3286 855 l 1
 449.457 870 l 1
 560 1400 l 1
EndSplineSet
Fore
SplineSet
108 208 m 1
 123 92 210 50 370 50 c 10
 395 50 l 18
 593 50 731 177 769 357 c 10
 970 1325 l 25
410 1325 m 25
 1393 1325 l 25
EndSplineSet
EndChar

StartChar: K
Encoding: 75 75 42
Width: 1229
VWidth: 1947
GlyphClass: 2
Flags: MW
LayerCount: 2
Back
SplineSet
119 1400 m 5
 1472 1400 l 5
 1180 0 l 5
 -173 0 l 5
 119 1400 l 5
EndSplineSet
Fore
SplineSet
1003 -141 m 25
 541 797 l 25
1346 1524 m 25
 194 485 l 25
412.712 1539 m 25
 63.2715 -141 l 25
EndSplineSet
EndChar

StartChar: L
Encoding: 76 76 43
Width: 1229
VWidth: 1947
GlyphClass: 2
Flags: MW
LayerCount: 2
Back
SplineSet
180 1400 m 1
 1279 1400 l 5
 987 0 l 5
 -112 0 l 1
 180 1400 l 1
EndSplineSet
Fore
SplineSet
415.208 1551 m 25
 109 76 l 25
 1143 76 l 25
EndSplineSet
EndChar

StartChar: M
Encoding: 77 77 44
Width: 1229
VWidth: 1947
GlyphClass: 2
Flags: MW
LayerCount: 2
Back
SplineSet
-111 1 m 1
 180 1401 l 1
 1409 1401 l 1
 1118 1 l 1
 724 1 l 1
 766 211 l 1
 337 211 l 1
 294 1 l 1
 -111 1 l 1
EndSplineSet
Fore
SplineSet
15 -123 m 25
 470 1402 l 25
 578 352 l 25
 1119 1402 l 25
 945 -117 l 25
EndSplineSet
EndChar

StartChar: N
Encoding: 78 78 45
Width: 1229
VWidth: 1947
GlyphClass: 2
Flags: MW
LayerCount: 2
Back
SplineSet
179 1400 m 1
 1409 1400 l 1
 1117 0 l 1
 -113 0 l 1
 179 1400 l 1
EndSplineSet
Fore
SplineSet
62.6475 -144 m 25
 374 1350 l 25
 923 52 l 25
 1229 1530 l 25
EndSplineSet
EndChar

StartChar: O
Encoding: 79 79 46
Width: 1229
VWidth: 1947
GlyphClass: 2
Flags: MW
LayerCount: 2
Fore
SplineSet
794 1350 m 2
 1135 1350 1133 1062 1072 765 c 2
 1057 696 l 2
 992 380 856.002 50 524 50 c 2
 497 50 l 2
 163 50 173 380 238 696 c 2
 252 763 l 2
 315 1063 427 1350 766 1350 c 2
 794 1350 l 2
EndSplineSet
EndChar

StartChar: P
Encoding: 80 80 47
Width: 1229
VWidth: 1947
GlyphClass: 2
Flags: MW
LayerCount: 2
Back
SplineSet
180 1400 m 5
 1409 1400 l 5
 1117 0 l 5
 -112 0 l 5
 180 1400 l 5
EndSplineSet
Fore
SplineSet
239 699 m 25
 662 699 l 2
 926 699 1077 792 1121 1002 c 2
 1134 1063 l 2
 1174 1259 1070 1325 792 1325 c 2
 369 1325 l 1
 61.4004 -150 l 1
EndSplineSet
EndChar

StartChar: Q
Encoding: 81 81 48
Width: 1229
VWidth: 1947
GlyphClass: 2
Flags: MW
LayerCount: 2
Fore
SplineSet
794 1350 m 2
 1135 1350 1133 1062 1072 765 c 2
 1057 696 l 2
 992 380 856 51 524 50 c 2
 507 50 l 2
 173 50 173 380 238 696 c 2
 252 763 l 2
 315 1063 437 1350 776 1350 c 2
 794 1350 l 2
587 399 m 25
 883 -144 l 25
EndSplineSet
EndChar

StartChar: R
Encoding: 82 82 49
Width: 1229
VWidth: 1947
GlyphClass: 2
Flags: MW
LayerCount: 2
Back
SplineSet
131 1458 m 5
 1484 1458 l 5
 1180 0 l 5
 -173 0 l 5
 131 1458 l 5
EndSplineSet
Fore
SplineSet
1012 -102 m 25
 653 712 l 25
243 717 m 25
 666 717 l 2
 930 717 1077 792 1115 973 c 2
 1134 1063 l 2
 1174 1259 1070 1325 792 1325 c 2
 369 1325 l 1
 58.9043 -162 l 1
EndSplineSet
EndChar

StartChar: S
Encoding: 83 83 50
Width: 1229
VWidth: 2334
GlyphClass: 2
Flags: W
LayerCount: 2
Fore
SplineSet
161.364 312.232 m 0
 161.364 174.684 292.566 50 502 50 c 10
 527 50 l 18
 753 50 955 203 987 357 c 10
 993 387 l 18
 1024.02 533.657 964.831 627.029 834 676 c 2
 476 810 l 2
 408.343 835.494 360.633 955.258 377 1033 c 2
 384 1063 l 2
 408 1182 552 1350 781 1350 c 10
 791 1350 l 18
 985 1350 1105 1293 1133 1177 c 1
EndSplineSet
EndChar

StartChar: T
Encoding: 84 84 51
Width: 1229
VWidth: 1947
GlyphClass: 2
Flags: MW
LayerCount: 2
Back
SplineSet
310 1400 m 1
 1279 1400 l 5
 987 0 l 5
 18 0 l 1
 310 1400 l 1
EndSplineSet
Fore
SplineSet
453.304 -237 m 25
 780 1325 l 25
184 1325 m 25
 1403 1325 l 25
EndSplineSet
EndChar

StartChar: U
Encoding: 85 85 52
Width: 1229
VWidth: 1947
GlyphClass: 2
Flags: MW
LayerCount: 2
Back
SplineSet
180 1400 m 1
 1409 1400 l 1
 1108.94 -39 l 1
 -120.056 -39 l 1
 180 1400 l 1
EndSplineSet
Fore
SplineSet
403.352 1494 m 25
 174 387 l 18
 136.479 205.899 238 50 502 50 c 10
 527 50 l 18
 791 50 955.479 205.899 993 387 c 10
 1222.35 1494 l 25
EndSplineSet
EndChar

StartChar: V
Encoding: 86 86 53
Width: 1229
VWidth: 1708
GlyphClass: 2
Flags: MW
LayerCount: 2
Back
SplineSet
-118 -25 m 1
 179 1400 l 1
 1407 1400 l 1
 1110 -25 l 1
 -118 -25 l 1
EndSplineSet
Fore
SplineSet
338 1516 m 25
 506 5 l 25
 1315 1536 l 25
EndSplineSet
EndChar

StartChar: W
Encoding: 87 87 54
Width: 1229
VWidth: 1947
GlyphClass: 2
Flags: MW
LayerCount: 2
Back
SplineSet
179 1400 m 1
 585 1400 l 1
 541 1190 l 1
 970 1190 l 1
 1015 1400 l 1
 1407 1400 l 1
 1115 0 l 1
 -113 0 l 1
 179 1400 l 1
EndSplineSet
Fore
SplineSet
355 1475 m 25
 184 -1 l 25
 723 1049 l 25
 823 -1 l 25
 1266 1476 l 25
EndSplineSet
EndChar

StartChar: X
Encoding: 88 88 55
Width: 1229
VWidth: 1947
GlyphClass: 2
Flags: MW
LayerCount: 2
Back
SplineSet
179 1400 m 1
 1407 1400 l 1
 1115 0 l 1
 -113 0 l 1
 179 1400 l 1
EndSplineSet
Fore
SplineSet
1280 1480 m 25
 19 -80 l 25
343 1480 m 25
 956 -80 l 25
EndSplineSet
EndChar

StartChar: Y
Encoding: 89 89 56
Width: 1229
VWidth: 1947
GlyphClass: 2
Flags: MW
LayerCount: 2
Back
SplineSet
179 1400 m 1
 1407 1400 l 1
 1110 -25 l 1
 -118 -25 l 1
 179 1400 l 1
EndSplineSet
Fore
SplineSet
1280 1480 m 17
 611 513 l 1
 473.271 -141 l 9
343 1480 m 25
 611 513 l 25
EndSplineSet
EndChar

StartChar: Z
Encoding: 90 90 57
Width: 1229
VWidth: 1947
GlyphClass: 2
Flags: MW
LayerCount: 2
Back
SplineSet
315 1425 m 1
 1284 1425 l 1
 982 -25 l 1
 13 -25 l 1
 315 1425 l 1
EndSplineSet
Fore
SplineSet
124 1325 m 25
 1218 1325 l 25
 81 76 l 25
 1154 76 l 25
EndSplineSet
EndChar

StartChar: bracketleft
Encoding: 91 91 58
Width: 1229
VWidth: 1947
GlyphClass: 2
Flags: MW
LayerCount: 2
Back
SplineSet
431 1638 m 5
 1141 1638 l 5
 746.062 -267 l 5
 36.0625 -267 l 5
 431 1638 l 5
EndSplineSet
Fore
SplineSet
1250 1480 m 17
 649 1480 l 1
 325 -80 l 25
 926 -80 l 9
EndSplineSet
EndChar

StartChar: backslash
Encoding: 92 92 59
Width: 1229
VWidth: 1708
GlyphClass: 2
Flags: MW
LayerCount: 2
Fore
SplineSet
907 -25 m 25
 390 1425 l 25
EndSplineSet
EndChar

StartChar: bracketright
Encoding: 93 93 60
Width: 1229
VWidth: 1947
GlyphClass: 2
Flags: MW
LayerCount: 2
Back
SplineSet
511 1638 m 5
 1221 1638 l 5
 826.062 -267 l 5
 116.062 -267 l 5
 511 1638 l 5
EndSplineSet
Fore
SplineSet
351 1480 m 17
 974 1480 l 1
 650 -80 l 25
 27 -80 l 9
EndSplineSet
EndChar

StartChar: asciicircum
Encoding: 94 94 61
Width: 1229
VWidth: 1947
GlyphClass: 2
Flags: MW
LayerCount: 2
Back
SplineSet
262 1425 m 5
 1337 1425 l 5
 1040 0 l 5
 -35 0 l 5
 262 1425 l 5
EndSplineSet
Fore
SplineSet
355 989 m 25
 792 1385 l 25
 1064 989 l 25
EndSplineSet
EndChar

StartChar: underscore
Encoding: 95 95 62
Width: 1229
VWidth: 1947
GlyphClass: 2
Flags: MW
LayerCount: 2
Fore
SplineSet
113 -92 m 29
 855 -92 l 29
EndSplineSet
EndChar

StartChar: grave
Encoding: 96 96 63
Width: 1229
VWidth: 1708
GlyphClass: 2
Flags: MW
HStem: 1404 20G<507.5 534.5>
LayerCount: 2
Fore
SplineSet
919 1106 m 2
 924 1095 926 1085 926 1075 c 3
 926 1058 919 1043 904 1032 c 0
 894 1025 883 1022 871 1022 c 3
 854 1022 836 1029 824 1044 c 2
 636 1273 l 2
 622 1290 615 1312 615 1333 c 3
 615 1364 629 1394 655 1411 c 0
 668 1420 686 1425 705 1425 c 3
 739 1425 777 1409 793 1375 c 2
 919 1106 l 2
EndSplineSet
EndChar

StartChar: a
Encoding: 97 97 64
Width: 1229
VWidth: 1947
GlyphClass: 2
Flags: MW
LayerCount: 2
Back
SplineSet
105.914 1053 m 5
 1295.91 1052 l 5
 1070.19 -33 l 5
 -118.808 -33 l 5
 105.914 1053 l 5
EndSplineSet
Fore
SplineSet
219 597 m 10
 184 427 l 18
 140 213 277 50 502 50 c 10
 529 50 l 18
 793 50 956 201 1003 427 c 10
 1038 597 l 18
 1080 801 1060 974 719 974 c 10
 693 974 l 18
 429 974 266 821 219 597 c 10
1157 1168 m 17
 984 337 l 2
 952.47 185.546 998 43 1149 41 c 9
EndSplineSet
EndChar

StartChar: b
Encoding: 98 98 65
Width: 1229
VWidth: 2334
GlyphClass: 2
Flags: MW
LayerCount: 2
Back
SplineSet
180 1400 m 5
 1409 1400 l 5
 1112.44 -23 l 5
 -116.56 -23 l 5
 180 1400 l 5
EndSplineSet
Fore
SplineSet
413.96 1545 m 25
 61.4004 -150 l 25
218 597 m 10
 186 447 l 18
 139 221 281 50 502 50 c 10
 527 50 l 18
 791 50 958 221 1005 447 c 10
 1037 597 l 18
 1083 821 983 974 719 974 c 10
 694 974 l 18
 430 974 264 821 218 597 c 10
EndSplineSet
EndChar

StartChar: c
Encoding: 99 99 66
Width: 1229
VWidth: 2334
GlyphClass: 2
Flags: MW
LayerCount: 2
Fore
SplineSet
1060 810 m 1
 1035 916 922 973 719 973 c 10
 694 973 l 18
 430 973 264 821 218 597 c 10
 182 427 l 18
 135 201 281 50 502 50 c 10
 527 50 l 18
 728 50 865 116 936 218 c 1
EndSplineSet
EndChar

StartChar: d
Encoding: 100 100 67
Width: 1229
VWidth: 1947
GlyphClass: 2
Flags: MW
LayerCount: 2
Back
SplineSet
180 1400 m 1
 1409 1400 l 1
 1112.44 -23 l 1
 -116.56 -23 l 1
 180 1400 l 1
EndSplineSet
Fore
SplineSet
1236 1560 m 25
 881.023 -147 l 25
218 597 m 10
 182 427 l 18
 135 201 281 50 502 50 c 10
 527 50 l 18
 791 50 954 201 1001 427 c 10
 1037 597 l 18
 1083 821 983 974 719 974 c 10
 694 974 l 18
 430 974 264 821 218 597 c 10
EndSplineSet
EndChar

StartChar: e
Encoding: 101 101 68
Width: 1229
VWidth: 1947
GlyphClass: 2
Flags: MW
LayerCount: 2
Fore
SplineSet
210 561 m 25
 1029 561 l 25
 1050 659 l 18
 1087 838 983 974 719 974 c 10
 694 974 l 18
 430 974 268 838 231 659 c 10
 170 367 l 18
 139 218 238 50 502 50 c 10
 527 50 l 18
 736 50 878 121 944 232 c 1
EndSplineSet
EndChar

StartChar: g
Encoding: 103 103 70
Width: 1229
VWidth: 2334
GlyphClass: 2
Flags: MW
LayerCount: 2
Back
SplineSet
108 1059 m 1
 1011 1059 l 1
 1009 1024 l 1
 1330 1024 l 1
 1022 -441 l 1
 117 -441 l 1
 199 -48 l 1
 -120 -33 l 1
 108 1059 l 1
EndSplineSet
Fore
SplineSet
21 -294 m 25
 438 -294 l 18
 704 -294 873 -176 910 0 c 10
 1153 1148 l 25
219 597 m 10
 184 427 l 18
 140 213 277 50 502 50 c 10
 529 50 l 18
 793 50 956 201 1003 427 c 10
 1038 597 l 18
 1080 801 1060 974 719 974 c 10
 693 974 l 18
 429 974 266 821 219 597 c 10
EndSplineSet
EndChar

StartChar: h
Encoding: 104 104 71
Width: 1229
VWidth: 2334
GlyphClass: 2
Flags: MW
LayerCount: 2
Back
SplineSet
180 1400 m 5
 1409 1400 l 5
 1117 0 l 5
 -112 0 l 5
 180 1400 l 5
EndSplineSet
Fore
SplineSet
883.52 -135 m 25
 1056 689 l 18
 1085.69 830.854 983 974 719 974 c 10
 694 974 l 18
 462 974 246.051 730.783 218 597 c 10
 64.5195 -135 l 25
 410.216 1527 l 25
EndSplineSet
EndChar

StartChar: k
Encoding: 107 107 74
Width: 1229
VWidth: 1947
GlyphClass: 2
Flags: MW
LayerCount: 2
Back
SplineSet
184 1425 m 1
 1412 1425 l 1
 1115 0 l 1
 -113 0 l 1
 184 1425 l 1
EndSplineSet
Fore
SplineSet
447 1692 m 25
 58 -168 l 25
1074 -135 m 17
 777.001 111 l 2
 674.322 196.047 525 480 516 648 c 9
1122 1002 m 17
 987 956 l 2
 872 904 773 856 687 788 c 2
 555 686 l 2
 353 529 213 291 129 160 c 9
EndSplineSet
EndChar

StartChar: l
Encoding: 108 108 75
Width: 1229
VWidth: 1947
GlyphClass: 2
Flags: MW
LayerCount: 2
Back
SplineSet
383 1400 m 1
 1199 1400 l 5
 907 0 l 5
 91 0 l 1
 383 1400 l 1
EndSplineSet
Fore
SplineSet
-41 75 m 25
 1058 75 l 25
219 1325 m 25
 780 1325 l 25
 520 75 l 25
EndSplineSet
EndChar

StartChar: m
Encoding: 109 109 76
Width: 1229
VWidth: 2334
GlyphClass: 2
Flags: MW
LayerCount: 2
Back
SplineSet
106.546 1050 m 5
 1335.55 1050 l 5
 1117 0 l 5
 -112 0 l 5
 106.546 1050 l 5
EndSplineSet
Fore
SplineSet
901.896 -138 m 25
 1094 779 l 18
 1121.47 910.108 1076 974 957 974 c 10
 942 974 l 18
 798 974 676.201 822.957 648 689 c 10
 473.896 -138 l 25
 666 779 l 18
 693.466 910.108 649 974 529 974 c 10
 513 974 l 18
 370 974 247.201 822.957 219 689 c 10
 44.8955 -138 l 25
 327 1215 l 25
EndSplineSet
EndChar

StartChar: n
Encoding: 110 110 77
Width: 1229
VWidth: 2334
GlyphClass: 2
Flags: W
LayerCount: 2
Back
SplineSet
106.546 1050 m 5
 1335.55 1050 l 5
 1117 0 l 5
 -112 0 l 5
 106.546 1050 l 5
EndSplineSet
Fore
SplineSet
879.152 -156 m 25
 1054 679 l 18
 1091.46 857.902 983 974 719 974 c 10
 694 974 l 18
 462 974 240.944 711.011 213 577 c 10
 60.1523 -156 l 25
 357.176 1272 l 25
EndSplineSet
EndChar

StartChar: o
Encoding: 111 111 78
Width: 1229
VWidth: 1947
GlyphClass: 2
Flags: MW
LayerCount: 2
Fore
SplineSet
732 973 m 2
 1002 973 1079 800 1029 562 c 2
 1012 480 l 2
 962 236 814 50 536 50 c 2
 485 50 l 2
 214 50 143 240 194 481 c 2
 210 561 l 2
 259 798 407 973 675 973 c 2
 732 973 l 2
EndSplineSet
EndChar

StartChar: p
Encoding: 112 112 79
Width: 1229
VWidth: 1947
GlyphClass: 2
Flags: MW
LayerCount: 2
Back
SplineSet
106.55 1050 m 1
 1335.55 1050 l 1
 1039.03 -375 l 1
 -189.971 -375 l 1
 106.55 1050 l 1
EndSplineSet
Fore
SplineSet
218 597 m 10
 182 427 l 18
 135 201 281 50 502 50 c 10
 527 50 l 18
 791 50 958 221 1005 447 c 10
 1037 597 l 18
 1083 821 983 974 719 974 c 10
 694 974 l 18
 430 974 264 821 218 597 c 10
349.688 1236 m 25
 -19.0957 -537 l 25
EndSplineSet
EndChar

StartChar: q
Encoding: 113 113 80
Width: 1229
VWidth: 1947
GlyphClass: 2
Flags: MW
LayerCount: 2
Back
SplineSet
106.55 1050 m 5
 1335.55 1050 l 5
 1039.03 -375 l 5
 -189.971 -375 l 5
 106.55 1050 l 5
EndSplineSet
Fore
SplineSet
1158.7 1188 m 25
 803.647 -519 l 25
218 597 m 10
 184 437 l 18
 137 211 281 50 502 50 c 10
 527 50 l 18
 791 50 958 221 1005 447 c 10
 1037 597 l 18
 1083 821 983 974 719 974 c 10
 694 974 l 18
 430 974 264 821 218 597 c 10
EndSplineSet
EndChar

StartChar: r
Encoding: 114 114 81
Width: 1229
VWidth: 1947
GlyphClass: 2
Flags: MW
LayerCount: 2
Back
SplineSet
106.548 1050 m 5
 1335.55 1050 l 5
 1117 0 l 5
 -112 0 l 5
 106.548 1050 l 5
EndSplineSet
Fore
SplineSet
1103 864 m 1
 1064 937 980 974 822 974 c 10
 797 974 l 18
 531 974 238.01 695 191 470 c 10
 47.6719 -216 l 25
 352.808 1251 l 25
EndSplineSet
EndChar

StartChar: s
Encoding: 115 115 82
Width: 1229
VWidth: 1947
GlyphClass: 2
Flags: MW
LayerCount: 2
Fore
SplineSet
1054 810 m 1
 1011 909 873 974 719 974 c 10
 694 974 l 18
 496 974 325 906 301 789 c 2
 298 777 l 2
 285.788 718.161 310.941 627.724 409 601 c 2
 864 477 l 2
 950.425 453.614 988.803 367.059 975 301 c 2
 966 255 l 2
 937 119 725 50 527 50 c 10
 457 50 l 18
 275.984 50 155.37 160.048 155.37 280.793 c 0
EndSplineSet
EndChar

StartChar: t
Encoding: 116 116 83
Width: 1229
VWidth: 1947
GlyphClass: 2
Flags: MW
LayerCount: 2
Back
SplineSet
314 1425 m 5
 1107 1425 l 5
 937.203 609 l 5
 1239.08 594 l 5
 1098 -84 l 5
 0 -84 l 5
 314 1425 l 5
EndSplineSet
Fore
SplineSet
93 933 m 25
 1136 933 l 25
916 210 m 1
 869 138 767 50 640 50 c 10
 615 50 l 18
 470 50 371 163 400 299 c 2
 403 316 l 9
 705 1506 l 9
EndSplineSet
EndChar

StartChar: u
Encoding: 117 117 84
Width: 1229
VWidth: 2334
GlyphClass: 2
Flags: MW
LayerCount: 2
Back
SplineSet
100.612 1023 m 5
 1329.61 1023 l 5
 1111.06 -27 l 5
 -117.936 -27 l 5
 100.612 1023 l 5
EndSplineSet
Fore
SplineSet
332.216 1152 m 25
 170 367 l 18
 133.01 187.996 207 50 471 50 c 10
 498 50 l 18
 730 50 984.546 343.886 1012 477 c 10
 1151.22 1152 l 25
 871.04 -195 l 25
EndSplineSet
EndChar

StartChar: v
Encoding: 118 118 85
Width: 1229
VWidth: 1947
GlyphClass: 2
Flags: MW
LayerCount: 2
Back
SplineSet
100 1024 m 1
 1327 1024 l 1
 1109 -25 l 1
 -118 -25 l 1
 100 1024 l 1
EndSplineSet
Fore
SplineSet
311 1325 m 17
 274 974 l 2
 261.127 851.876 293 633 340 510 c 2
 516 50 l 1
 759 513 l 2
 838 646 940.106 785.101 1014 876 c 2
 1379 1325 l 9
EndSplineSet
EndChar

StartChar: w
Encoding: 119 119 86
Width: 1229
VWidth: 1947
GlyphClass: 2
Flags: MW
LayerCount: 2
Back
SplineSet
100 1024 m 1
 506 1024 l 1
 491 949 l 1
 920 949 l 1
 936 1024 l 1
 1328 1024 l 1
 1115 0 l 1
 -113 0 l 1
 100 1024 l 1
EndSplineSet
Fore
SplineSet
284 1099 m 17
 250 935 l 2
 224.164 810.381 187.607 511.775 192 426 c 2
 211 55 l 1
 369 429 l 2
 411.926 530.609 484.538 652.432 538 707 c 2
 683 855 l 1
 690 701 l 2
 700 620 716.547 507.035 748 426 c 2
 852 55 l 1
 943 429 l 2
 987.162 610.501 1060.63 840.661 1109 938 c 2
 1189 1099 l 9
EndSplineSet
EndChar

StartChar: x
Encoding: 120 120 87
Width: 1229
VWidth: 1947
GlyphClass: 2
Flags: MW
LayerCount: 2
Back
SplineSet
100 1024 m 1
 1329 1024 l 5
 1116 0 l 5
 -113 0 l 1
 100 1024 l 1
EndSplineSet
Fore
SplineSet
1272 1242 m 17
 1026 880 l 2
 860 637 558 336 267 127 c 2
 -153 -174 l 9
188 1218 m 17
 985 -120 l 9
EndSplineSet
EndChar

StartChar: y
Encoding: 121 121 88
Width: 1229
VWidth: 1947
GlyphClass: 2
Flags: MW
LayerCount: 2
Back
SplineSet
-198 -410 m 1
 100 1024 l 1
 1329 1024 l 1
 1031 -410 l 1
 -198 -410 l 1
EndSplineSet
Fore
SplineSet
674 125 m 1
 515 336 350 680 330 824 c 2
 271 1271 l 9
1304 1325 m 1
 550 -110 l 2
 489.64 -224.877 387 -294 257 -294 c 2
 227 -294 l 2
 153 -294 56 -250 26 -191 c 2
 15 -170 l 1
EndSplineSet
EndChar

StartChar: z
Encoding: 122 122 89
Width: 1229
VWidth: 1947
GlyphClass: 2
Flags: MW
LayerCount: 2
Back
SplineSet
276 1049 m 5
 1204 1049 l 1
 980 -25 l 1
 12 -25 l 1
 147.985 627 l 1
 190.488 639 l 5
 276 1049 l 5
EndSplineSet
Fore
SplineSet
111 949 m 25
 1130 949 l 25
 66 75 l 25
 1174 75 l 25
EndSplineSet
EndChar

StartChar: braceleft
Encoding: 123 123 90
Width: 1229
VWidth: 1947
GlyphClass: 2
Flags: MW
LayerCount: 2
Back
SplineSet
511 1638 m 5
 1171 1638 l 5
 776.062 -267 l 5
 116.062 -267 l 5
 511 1638 l 5
EndSplineSet
Fore
SplineSet
1270 1480 m 17
 1050 1480 l 2
 900 1480 762 1392 731 1242 c 2
 674 970 l 2
 652 862 547 732 395 732 c 2
 205 732 l 1
 395 732 l 2
 547 732 591 570 562 430 c 2
 505 158 l 2
 474 8 576 -80 726 -80 c 10
 946 -80 l 9
EndSplineSet
EndChar

StartChar: bar
Encoding: 124 124 91
Width: 1229
VWidth: 1947
GlyphClass: 2
Flags: MW
LayerCount: 2
Back
SplineSet
397.983 1473 m 1
 1217.98 1473 l 1
 896.625 -72 l 5
 76.625 -72 l 5
 397.983 1473 l 1
EndSplineSet
Fore
SplineSet
465.16 -180 m 25
 829.576 1572 l 25
EndSplineSet
EndChar

StartChar: braceright
Encoding: 125 125 92
Width: 1229
VWidth: 1947
GlyphClass: 2
Flags: MW
LayerCount: 2
Back
SplineSet
511 1638 m 5
 1171 1638 l 5
 776.062 -267 l 5
 116.062 -267 l 5
 511 1638 l 5
EndSplineSet
Fore
SplineSet
360 1480 m 17
 560 1480 l 2
 710 1480 812 1392 781 1242 c 2
 724 970 l 2
 702 862 753 732 905 732 c 2
 1105 732 l 1
 905 732 l 2
 753 732 641 570 612 430 c 2
 555 158 l 2
 524 8 386 -80 236 -80 c 10
 36 -80 l 9
EndSplineSet
EndChar

StartChar: asciitilde
Encoding: 126 126 93
Width: 1229
VWidth: 1947
GlyphClass: 2
Flags: MW
LayerCount: 2
Fore
SplineSet
354 832 m 17
 402 914 503 977 543 977 c 10
 558 977 l 18
 587 977 646 963 672 936 c 2
 734 873 l 2
 756 851 799 833 826 833 c 10
 841 833 l 18
 902 833 987 891 1030 977 c 9
EndSplineSet
EndChar

StartChar: cent
Encoding: 162 162 96
Width: 1229
VWidth: 2334
GlyphClass: 2
Flags: MW
LayerCount: 2
Fore
SplineSet
311 -110 m 25
 960 1182 l 25
1064 830 m 1
 1039 936 922 975 719 975 c 10
 694 975 l 18
 430 975 264 821 218 597 c 10
 182 427 l 18
 135 201 280 48 501 48 c 10
 526 48 l 18
 727 48 858 86 930 188 c 1
EndSplineSet
EndChar

StartChar: sterling
Encoding: 163 163 97
Width: 1229
VWidth: 1947
GlyphClass: 2
Flags: MW
LayerCount: 2
Back
SplineSet
-128.547 -75 m 1
 8.78252 585 l 1
 141.903 600 l 1
 198.709 873 l 1
 71.8299 888 l 1
 183.567 1425 l 1
 1413.57 1425 l 1
 1298.71 873 l 1
 971.963 855 l 1
 915.158 582 l 1
 1234.41 564 l 1
 1101.45 -75 l 1
 -128.547 -75 l 1
EndSplineSet
Fore
SplineSet
58 731 m 17
 1055 731 l 9
1105 1232 m 1
 1048 1312 929 1350 797 1350 c 10
 772 1350 l 18
 508 1350 352 1242 319 1083 c 10
 311 1044 l 18
 300 993 329 918 358 863 c 2
 445 710 l 2
 475 659 478 570 467 516 c 10
 457 470 l 18
 423 305 158 117 19 59 c 2
 -33 38 l 1
 19 59 l 2
 147 112 227 124 342 124 c 10
 384 124 l 18
 435 124 488 114 519 97 c 2
 565 71 l 2
 589 58 658 50 687 50 c 10
 738 50 l 18
 832 50 908 76 964 115 c 9
EndSplineSet
EndChar

StartChar: euro
Encoding: 8364 8364 98
Width: 1229
VWidth: 1947
GlyphClass: 2
Flags: MW
LayerCount: 2
Back
SplineSet
333 1425 m 1
 1414 1425 l 1
 1330 1023 l 1
 936.861 1008 l 1
 871.037 693 l 1
 678.529 681 l 1
 613.959 372 l 1
 1190.82 357 l 1
 1111 -25 l 1
 -18 -25 l 1
 132.664 696 l 1
 183.172 708 l 1
 333 1425 l 1
EndSplineSet
Fore
SplineSet
949 300 m 0
 864 154 770 50 584 50 c 2
 557 50 l 2
 263 50 230 224 260 366 c 2
 405 1063 l 2
 425 1160 541 1350 826 1350 c 2
 854 1350 l 2
 1070 1350 1119 1235 1131 1074 c 0
789 535 m 25
 -40 535 l 25
1047 857 m 25
 72 857 l 25
EndSplineSet
EndChar

StartChar: yen
Encoding: 165 165 99
Width: 1229
VWidth: 1947
GlyphClass: 2
Flags: MW
LayerCount: 2
Back
SplineSet
180 1400 m 1
 1409 1400 l 1
 1236.08 570 l 1
 1022.96 555 l 5
 874 -160 l 5
 58 -160 l 1
 207.583 558 l 1
 7.70833 573 l 1
 180 1400 l 1
EndSplineSet
Fore
SplineSet
25 123 m 17
 1048 123 l 9
79 382 m 17
 1102 382 l 9
1280 1480 m 17
 611 513 l 1
 443.944 -282 l 9
343 1480 m 25
 611 513 l 25
EndSplineSet
EndChar

StartChar: section
Encoding: 167 167 101
Width: 1229
VWidth: 1947
GlyphClass: 2
Flags: MW
LayerCount: 2
Fore
SplineSet
218 81 m 1
 256 -9 375 -94 514 -94 c 10
 538 -94 l 18
 717 -94 857 22 883 149 c 10
 888 172 l 18
 913 293 775 385 596 385 c 10
 573 385 l 18
1076 1320 m 1
 1037 1406 919 1490 784 1490 c 10
 760 1490 l 18
 581 1490 448 1368 423 1247 c 10
 418 1224 l 18
 392 1098 521 996 700 996 c 10
 723 996 l 18
724 996 m 10
 699 996 l 18
 453 996 272 857 244 723 c 10
 234 677 l 18
 205 537 308 385 572 385 c 10
 597 385 l 18
 839 385 1024 536 1053 677 c 10
 1063 723 l 18
 1091 857 954 996 724 996 c 10
EndSplineSet
EndChar

StartChar: copyright
Encoding: 169 169 103
Width: 1229
VWidth: 1947
GlyphClass: 2
Flags: MW
LayerCount: 2
Fore
SplineSet
614 1114 m 3
 947 1114 1118 863 1118 593 c 3
 1118 332 947 70 614 70 c 3
 285 70 111 323 111 593 c 3
 111 866 290 1114 614 1114 c 3
792 431 m 1
 754 391 698 364 624 364 c 3
 474 364 394 470 394 592 c 3
 394 717 477 820 624 820 c 3
 698 820 754 795 792 755 c 1
EndSplineSet
EndChar

StartChar: ordfeminine
Encoding: 170 170 104
Width: 1229
VWidth: 1947
GlyphClass: 2
Flags: MW
LayerCount: 2
Back
SplineSet
87 0 m 1
 403 1503 l 1
 1224 1503 l 1
 1026.42 552 l 1
 813 552 l 1
 732 429 l 1
 998.565 428 l 1
 908 0 l 1
 87 0 l 1
EndSplineSet
Fore
SplineSet
10 289 m 17
 1119 289 l 9
985 1013 m 25
 697 1013 l 18
 517 1013 405 898 390 823 c 10
 382 784 l 18
 365 707 430 593 610 593 c 10
 629 593 l 18
 763 593 938 785 954 863 c 10
505 1267 m 1
 559 1343 647 1382 774 1382 c 10
 793 1382 l 18
 973 1382 1039 1274 1008 1122 c 10
 886 536 l 25
EndSplineSet
EndChar

StartChar: guillemotleft
Encoding: 171 171 105
Width: 1229
VWidth: 1947
GlyphClass: 2
Flags: MW
LayerCount: 2
Fore
SplineSet
840 124 m 29
 723 425 l 29
 741 512 l 29
 984 814 l 29
420 124 m 29
 303 425 l 29
 321 512 l 29
 564 814 l 29
EndSplineSet
EndChar

StartChar: logicalnot
Encoding: 172 172 106
Width: 1229
VWidth: 1708
GlyphClass: 2
Flags: MW
LayerCount: 2
Back
SplineSet
137.371 213 m 5
 390 1425 l 1
 1414 1425 l 1
 1161.37 213 l 5
 137.371 213 l 5
EndSplineSet
Fore
SplineSet
57 600 m 25
 907 600 l 25
 807 114 l 25
EndSplineSet
EndChar

StartChar: softhyphen
Encoding: 173 173 107
Width: 1229
VWidth: 1947
GlyphClass: 2
Flags: MW
LayerCount: 2
Fore
SplineSet
389 600 m 25
 867 600 l 25
EndSplineSet
EndChar

StartChar: registered
Encoding: 174 174 108
Width: 1229
VWidth: 1947
GlyphClass: 2
Flags: MW
LayerCount: 2
Fore
SplineSet
798 342 m 25
 640 600 l 25
468 602 m 25
 632 602 l 2
 735 602 786 636 786 705 c 2
 786 745 l 2
 786 814 741 838 632 838 c 2
 468 838 l 1
 468 342 l 1
614 1114 m 3
 947 1114 1118 865 1118 595 c 3
 1118 334 947 70 614 70 c 3
 285 70 111 325 111 595 c 3
 111 868 290 1114 614 1114 c 3
EndSplineSet
EndChar

StartChar: degree
Encoding: 176 176 110
Width: 1229
VWidth: 1947
GlyphClass: 2
Flags: MW
HStem: 882 451<538.727 819.014>
VStem: 453 450<967.489 1249.77>
LayerCount: 2
Fore
SplineSet
755 1333 m 7
 904 1333 980 1229 980 1108 c 7
 980 991 904 882 755 882 c 7
 608 882 530 987 530 1108 c 7
 530 1231 610 1333 755 1333 c 7
EndSplineSet
EndChar

StartChar: plusminus
Encoding: 177 177 111
Width: 1229
VWidth: 1947
GlyphClass: 2
Flags: MW
LayerCount: 2
Back
SplineSet
91 0 m 1
 153.49 300 l 1
 972.49 300 l 1
 910 0 l 1
 91 0 l 1
180.586 423 m 1
 357.176 1272 l 1
 1176.18 1272 l 1
 999.586 423 l 1
 180.586 423 l 1
EndSplineSet
Fore
SplineSet
15 158 m 25
 1087 158 l 25
577.479 360 m 25
 786.521 1365 l 25
162 862 m 25
 1234 862 l 25
EndSplineSet
EndChar

StartChar: twosuperior
Encoding: 178 178 112
Width: 1229
VWidth: 2334
GlyphClass: 2
Flags: MW
LayerCount: 2
Back
SplineSet
232 -25 m 1
 548 1479 l 1
 1272 1479 l 1
 1132.77 810 l 1
 964.651 795 l 1
 794 -25 l 1
 232 -25 l 1
EndSplineSet
Fore
SplineSet
601 1244 m 1
 647 1304 700 1365 808 1365 c 10
 821 1365 l 18
 946 1365 999 1315 979 1217 c 10
 974 1195 l 18
 967 1163 930 1091 880 1052 c 2
 631 858 l 2
 575 811 492 711 468 650 c 1
 1065 650 l 9
EndSplineSet
EndChar

StartChar: threesuperior
Encoding: 179 179 113
Width: 1229
VWidth: 2334
GlyphClass: 2
Flags: MW
LayerCount: 2
Back
SplineSet
-113 0 m 1
 67.0758 864 l 1
 579.577 876 l 5
 645.229 1191 l 5
 137.731 1203 l 1
 184 1425 l 1
 1414 1425 l 1
 1117 0 l 1
 -113 0 l 1
EndSplineSet
Fore
SplineSet
594 1264 m 1
 632 1322 710 1360 780 1360 c 10
 792 1360 l 18
 882.586 1360 926.712 1295.64 909 1212 c 10
 905 1189 l 18
 892 1129 803 1022 715 1022 c 2
 491 1022 l 9
 722 1022 l 18
 825.347 1022 884.804 948.088 865 856 c 10
 861 835 l 18
 836 714 760 632 641 632 c 10
 629 632 l 18
 556.546 632 484.893 696.009 484.893 781.085 c 0
EndSplineSet
EndChar

StartChar: micro
Encoding: 181 181 115
Width: 1229
VWidth: 2334
GlyphClass: 2
Flags: MW
LayerCount: 2
Back
SplineSet
-184.349 -348 m 5
 102.01 1024 l 1
 1332.01 1024 l 1
 1117 0 l 1
 798 0 l 1
 711.65 -348 l 5
 -184.349 -348 l 5
EndSplineSet
Fore
SplineSet
-94 -423 m 17
 -13 -336 57.0791 -174.016 88 -25 c 10
 337.208 1176 l 25
 176 397 l 18
 138.959 218.01 238 50 502 50 c 10
 527 50 l 18
 760 50 967.259 262.947 995 397 c 10
 1156.21 1176 l 17
 933 99 l 2
 919.945 36.0107 935.512 -71 963.512 -111 c 9
EndSplineSet
EndChar

StartChar: paragraph
Encoding: 182 182 116
Width: 1229
VWidth: 1947
GlyphClass: 2
Flags: MW
LayerCount: 2
Back
SplineSet
-113 0 m 1
 209.992 1552 l 5
 1439.99 1552 l 5
 1117 0 l 1
 -113 0 l 1
EndSplineSet
Fore
SplineSet
588 840 m 25
 688 1320 l 25
508 840 m 25
 608 1320 l 25
417 890 m 25
 493 1260 l 25
872.496 -188 m 25
 1204 1400 l 25
 796 1400 l 25
662 759 m 25
 557 759 l 2
 425 759 256 795 310 1057 c 2
 325 1127 l 2
 363 1313 551 1400 691 1400 c 2
 796 1400 l 1
 464.496 -188 l 1
EndSplineSet
EndChar

StartChar: periodcentered
Encoding: 183 183 117
Width: 1229
VWidth: 1947
GlyphClass: 2
Flags: MW
HStem: 636 222<501.767 677.466>
VStem: 479 221<658.729 835.565>
LayerCount: 2
Fore
SplineSet
777 747 m 0
 777 688 731 636 666 636 c 0
 603 636 556 687 556 747 c 0
 556 805 600 858 666 858 c 0
 731 858 777 807 777 747 c 0
EndSplineSet
EndChar

StartChar: onesuperior
Encoding: 185 185 119
Width: 1229
VWidth: 1708
GlyphClass: 2
Flags: MW
LayerCount: 2
Back
SplineSet
378 857 m 1
 625 1045 l 1
 675 1143 l 1
 612 1236 l 1
 844 1425 l 1
 1104 1425 l 1
 942 639 l 5
 334 639 l 5
 378 857 l 1
EndSplineSet
Fore
SplineSet
699 534 m 25
 872 1374 l 25
 492 1204 l 25
EndSplineSet
EndChar

StartChar: ordmasculine
Encoding: 186 186 120
Width: 1229
VWidth: 1947
GlyphClass: 2
Flags: MW
LayerCount: 2
Back
SplineSet
93 0 m 1
 187.415 453 l 1
 114.541 468 l 1
 339.208 1551 l 1
 1309.21 1551 l 1
 1082.67 459 l 1
 1002.91 441 l 1
 911 0 l 1
 93 0 l 1
EndSplineSet
Fore
SplineSet
50 289 m 17
 1109 289 l 9
792 1385 m 3
 1023 1385 1068 1219 1021 992 c 3
 973 763 847 598 629 598 c 3
 406 598 342 763 390 992 c 3
 437 1219 569 1385 792 1385 c 3
EndSplineSet
EndChar

StartChar: guillemotright
Encoding: 187 187 121
Width: 1229
VWidth: 1947
GlyphClass: 2
Flags: MW
LayerCount: 2
Fore
SplineSet
218 124 m 29
 461 425 l 29
 479 512 l 29
 362 814 l 29
638 124 m 29
 881 425 l 29
 899 512 l 29
 782 814 l 29
EndSplineSet
EndChar

StartChar: OE
Encoding: 338 338 122
Width: 1229
VWidth: 1947
GlyphClass: 2
Flags: MW
LayerCount: 2
Back
SplineSet
-112 0 m 1
 185 1425 l 1
 1324 1425 l 1
 1240.84 1026 l 1
 1161.71 1011 l 1
 1056.67 507 l 1
 1127.04 480 l 1
 1027 0 l 1
 -112 0 l 1
EndSplineSet
Fore
SplineSet
1223 75 m 17
 567 75 l 1
 827 1325 l 1
 1483 1325 l 1
1287 732 m 1
 703 732 l 1
281 1096 m 2
 301 1189 417 1325 570 1325 c 2
 601 1325 l 2
 737 1325 800 1194 779 1096 c 2
 611 284 l 2
 591 190 477 75 341 75 c 2
 310 75 l 2
 157 75 94 193 113 284 c 10
 281 1096 l 2
EndSplineSet
EndChar

StartChar: oe
Encoding: 339 339 123
Width: 1229
VWidth: 1947
GlyphClass: 2
Flags: MW
LayerCount: 2
Fore
SplineSet
964 249 m 3
 943 145 861 50 719 50 c 3
 584 50 536 151 556 249 c 2
 666 775 l 2
 685 869 776 974 911 974 c 3
 1055 974 1095 880 1074 775 c 10
 1025 542 l 1
 617 542 l 1
255 775 m 2
 276 878 360 974 503 974 c 3
 637 974 686 873 666 775 c 2
 556 249 l 2
 537 155 445 50 311 50 c 3
 164 50 124 145 145 249 c 10
 255 775 l 2
EndSplineSet
EndChar

StartChar: AE
Encoding: 198 198 132
Width: 1229
VWidth: 1947
GlyphClass: 2
Flags: MW
LayerCount: 2
Back
SplineSet
-112 0 m 1
 185 1425 l 1
 1324 1425 l 1
 1240.84 1026 l 1
 1161.71 1011 l 1
 1056.67 507 l 1
 1127.04 480 l 1
 1027 0 l 1
 -112 0 l 1
EndSplineSet
Fore
SplineSet
3 -90 m 17
 538 1168 l 2
 579 1263 642 1325 801 1325 c 10
 887 1325 l 25
1153 75 m 17
 627 75 l 1
 887 1325 l 1
 1413 1325 l 1
1221 764 m 1
 360 764 l 1
EndSplineSet
EndChar

StartChar: Eth
Encoding: 208 208 142
Width: 1229
VWidth: 1947
GlyphClass: 2
Flags: MW
LayerCount: 2
Back
SplineSet
-32 0 m 5
 265 1425 l 5
 1284 1425 l 5
 987 0 l 5
 -32 0 l 5
EndSplineSet
Fore
SplineSet
26 756 m 25
 619 756 l 25
750 1325 m 2
 1101 1325 1133 1071 1069 763 c 2
 1056 700 l 2
 988 375 833 75 490 75 c 2
 199 75 l 1
 459 1325 l 1
 750 1325 l 2
EndSplineSet
EndChar

StartChar: multiply
Encoding: 215 215 149
Width: 1229
VWidth: 1708
GlyphClass: 2
Flags: MW
LayerCount: 2
Fore
SplineSet
859 309 m 29
 404 923 l 29
277 309 m 29
 986 923 l 29
EndSplineSet
EndChar

StartChar: Thorn
Encoding: 222 222 156
Width: 1229
VWidth: 1947
GlyphClass: 2
Flags: MW
LayerCount: 2
Back
SplineSet
-112 0 m 1
 207.034 1533 l 5
 1436.03 1533 l 5
 1117 0 l 1
 -112 0 l 1
EndSplineSet
Fore
SplineSet
186 445 m 25
 609 445 l 2
 873 445 1036 596 1074 777 c 2
 1102 910 l 2
 1139 1089 1050 1230 772 1230 c 2
 349 1230 l 1
431.56 1620 m 1
 52.04 -195 l 1
EndSplineSet
EndChar

StartChar: germandbls
Encoding: 223 223 157
Width: 1229
VWidth: 1947
GlyphClass: 2
Flags: MW
LayerCount: 2
Back
SplineSet
-188.097 -366 m 5
 185 1425 l 1
 1414 1425 l 1
 1040.9 -366 l 5
 -188.097 -366 l 5
EndSplineSet
Fore
SplineSet
-6 -471 m 1
 321 1096 l 2
 358.139 1273.97 508 1350 772 1350 c 2
 797 1350 l 2
 1003 1350 1101 1255 1068 1093 c 2
 1060 1055 l 2
 1022 874 872 787 608 787 c 2
 581 787 l 25
 680 787 l 18
 944 787 1051 664 1013 485 c 10
 991 377 l 18
 953 196 791 50 593 50 c 2
 582 50 l 2
 502 50 444 61 396 97 c 1
EndSplineSet
EndChar

StartChar: ae
Encoding: 230 230 164
Width: 1229
VWidth: 1947
GlyphClass: 2
Flags: MW
LayerCount: 2
Fore
SplineSet
994 249 m 3
 973 145 871 50 729 50 c 3
 594 50 536 151 556 249 c 2
 666 775 l 2
 685 870 786 974 921 974 c 3
 1067 974 1125 880 1104 775 c 10
 1055 542 l 1
 409 542 l 2
 256 542 155 432 134 328 c 2
 117 249 l 18
 96 145 154 50 301 50 c 3
 435 50 537 155 556 249 c 2
 666 775 l 2
 686 873 627 974 493 974 c 3
 350 974 248 879 227 775 c 0
EndSplineSet
EndChar

StartChar: eth
Encoding: 240 240 174
Width: 1229
VWidth: 1947
GlyphClass: 2
Flags: W
VStem: 182 558<220.939 427 497 723.211>
LayerCount: 2
Fore
SplineSet
325 1099 m 25
 1193 1350 l 25
1009 462 m 25
 1041 620 l 18
 1101 909 805 1252 525 1432 c 9
193 477 m 10
 186 447 l 18
 139 221 281 50 502 50 c 10
 527 50 l 18
 791 50 958 221 1005 447 c 10
 1012 477 l 18
 1049 657 957 849 693 849 c 10
 668 849 l 18
 404 849 232 666 193 477 c 10
EndSplineSet
EndChar

StartChar: divide
Encoding: 247 247 181
Width: 1229
VWidth: 1947
GlyphClass: 2
Flags: MW
LayerCount: 2
Back
SplineSet
93 0 m 1
 390 1425 l 1
 1210 1425 l 5
 913 0 l 5
 93 0 l 1
EndSplineSet
Fore
SplineSet
677 243 m 0xe0
 677 181 627 118 555 118 c 0
 484 118 429 183 429 243 c 0
 429 298 481 365 555 365 c 0
 629 365 677 298 677 243 c 0xe0
830 960 m 0xd0
 830 900 779 835 708 835 c 0
 630 835 582 906 582 960 c 0
 582 1014 630 1085 708 1085 c 0
 779 1085 830 1020 830 960 c 0xd0
97 600 m 25
 1169 600 l 25
EndSplineSet
EndChar

StartChar: oslash
Encoding: 248 248 182
Width: 1229
VWidth: 1947
GlyphClass: 2
Flags: MW
LayerCount: 2
Fore
SplineSet
732 973 m 2
 1002 973 1055 800 1005 562 c 2
 986 470 l 2
 935 226 814 50 536 50 c 2
 485 50 l 2
 214 50 168 230 218 471 c 2
 237 561 l 2
 286 798 407 973 675 973 c 2
 732 973 l 2
80 -48 m 25
 1135 1062 l 25
EndSplineSet
EndChar

StartChar: thorn
Encoding: 254 254 188
Width: 1229
VWidth: 1947
GlyphClass: 2
Flags: MW
LayerCount: 2
Back
SplineSet
-191.218 -381 m 1
 179.949 1400 l 1
 1408.95 1400 l 1
 1037.78 -381 l 1
 -191.218 -381 l 1
EndSplineSet
Fore
SplineSet
-16.5996 -525 m 25
 413.336 1542 l 25
728 974 m 2
 1011 974 1076 785 1023 533 c 2
 1015 493 l 2
 962 240 820 50 530 50 c 2
 500 50 l 2
 257 50 134 197 173 384 c 2
 223 625 l 2
 261 808 449 974 687 974 c 2
 728 974 l 2
EndSplineSet
EndChar

StartChar: minus
Encoding: 8722 8722 190
Width: 1229
VWidth: 1708
GlyphClass: 2
Flags: MW
LayerCount: 2
Fore
SplineSet
218 600 m 25
 1037 600 l 25
EndSplineSet
EndChar

StartChar: quoteleft
Encoding: 8216 8216 192
Width: 1229
VWidth: 1947
GlyphClass: 2
Flags: W
HStem: 1366 57<728.278 806.795>
VStem: 491 194<1034.19 1148.68>
LayerCount: 2
Fore
SplineSet
758 1132 m 17
 784.44 1353 922 1422 1082 1423 c 9
 1085 1366 l 17
 1026 1362 905 1343.02 905 1235 c 3
 905 1211.17 914 1198 930 1177 c 9
 758 1132 l 17
757 1116 m 0
 757 1168 797 1214 855 1214 c 0
 910 1214 951 1169 951 1116 c 0
 951 1065 913 1019 855 1019 c 0
 798 1019 757 1064 757 1116 c 0
EndSplineSet
EndChar

StartChar: gravemodifier
Encoding: 715 715 193
Width: 1229
VWidth: 2334
GlyphClass: 2
Flags: MW
LayerCount: 2
Fore
SplineSet
747 1647 m 29
 901 1438 l 29
EndSplineSet
EndChar

StartChar: acute
Encoding: 180 180 194
Width: 1229
VWidth: 1947
GlyphClass: 2
Flags: MW
LayerCount: 2
Fore
SplineSet
940 1587 m 29
 682 1308 l 29
EndSplineSet
EndChar

StartChar: circumflex
Encoding: 710 710 195
Width: 1229
VWidth: 1947
GlyphClass: 2
Flags: MW
LayerCount: 2
Back
SplineSet
195 732 m 5
 383 1638 l 5
 1305 1638 l 5
 1117 732 l 5
 195 732 l 5
EndSplineSet
Fore
SplineSet
554 1460 m 25
 837 1600 l 25
 1062 1460 l 25
EndSplineSet
EndChar

StartChar: tilde
Encoding: 732 732 196
Width: 1229
VWidth: 1947
GlyphClass: 2
Flags: MW
LayerCount: 2
Fore
SplineSet
537 1502 m 17
 559 1528 l 2
 598 1574 668 1612 702 1612 c 10
 718 1612 l 18
 753 1612 803 1595 821 1576 c 2
 837 1559 l 2
 854 1539 905 1522 940 1522 c 10
 957 1522 l 18
 989 1522 1062 1557 1103 1608 c 2
 1122 1632 l 9
EndSplineSet
EndChar

StartChar: macronmodifier
Encoding: 713 713 197
Width: 1229
VWidth: 1947
GlyphClass: 2
Flags: MW
LayerCount: 2
Fore
SplineSet
1049 1538 m 5
 596 1538 l 5
EndSplineSet
EndChar

StartChar: breve
Encoding: 728 728 198
Width: 1229
VWidth: 1947
GlyphClass: 2
Flags: MW
LayerCount: 2
Fore
SplineSet
1067 1593 m 4
 993 1523 901 1480 809 1480 c 7
 718 1480 646 1523 602 1592 c 4
EndSplineSet
EndChar

StartChar: dotaccent
Encoding: 729 729 199
Width: 1229
VWidth: 1947
GlyphClass: 2
Flags: W
HStem: 1425 204<591.294 757.75>
VStem: 573 204<1443.91 1610.09>
LayerCount: 2
Fore
SplineSet
727 1527 m 31
 727 1583 771 1629 828 1629 c 31
 884 1629 931 1583 931 1527 c 31
 931 1471 884 1425 828 1425 c 31
 771 1425 727 1471 727 1527 c 31
EndSplineSet
EndChar

StartChar: dieresis
Encoding: 168 168 200
Width: 1229
VWidth: 1947
GlyphClass: 2
Flags: W
HStem: 1444 198<517.719 675.283 991.928 1148.6>
VStem: 500 193<1461.19 1625.9> 975 191<1461.46 1626.07>
LayerCount: 2
Fore
SplineSet
693 1545 m 0
 693 1491 650 1444 597 1444 c 0
 545 1444 500 1489 500 1545 c 0
 500 1605 548 1642 596 1642 c 0
 651 1642 693 1597 693 1545 c 0
1166 1545 m 0
 1166 1486 1119 1444 1071 1444 c 0
 1020 1444 975 1490 975 1545 c 0
 975 1601 1020 1642 1071 1642 c 0
 1118 1642 1166 1605 1166 1545 c 0
EndSplineSet
EndChar

StartChar: ring
Encoding: 730 730 202
Width: 1229
VWidth: 1947
GlyphClass: 2
Flags: MW
HStem: 1223 110<572.515 727.788> 1517 110<572.515 727.788>
VStem: 448 110<1346.23 1503.77> 742 110<1348.51 1501.49>
LayerCount: 2
Fore
SplineSet
602 1425 m 31
 602 1537 690 1627 802 1627 c 31
 914 1627 1006 1537 1006 1425 c 31
 1006 1313 914 1223 802 1223 c 31
 690 1223 602 1313 602 1425 c 31
712 1425 m 31
 712 1374 752 1333 803 1333 c 31
 854 1333 896 1374 896 1425 c 31
 896 1476 854 1517 803 1517 c 31
 752 1517 712 1476 712 1425 c 31
EndSplineSet
EndChar

StartChar: cedilla
Encoding: 184 184 203
Width: 1229
VWidth: 1947
GlyphClass: 2
Flags: MW
LayerCount: 2
Back
SplineSet
-231.962 -572 m 1
 -110.445 12 l 5
 1119.55 12 l 5
 998.038 -572 l 1
 -231.962 -572 l 1
EndSplineSet
Fore
SplineSet
556 112 m 17
 508 -112 l 1
 649 -112 690 -191 673 -270 c 3
 656 -354 558.273 -411 458 -411 c 27
 379.85 -411 316 -379 273 -334 c 9
EndSplineSet
EndChar

StartChar: ogonek
Encoding: 731 731 204
Width: 1229
VWidth: 1947
GlyphClass: 2
Flags: MW
LayerCount: 2
Back
SplineSet
-215.312 -492 m 1
 -97.3418 75 l 1
 1132.66 75 l 1
 1014.69 -492 l 1
 -215.312 -492 l 1
EndSplineSet
Fore
SplineSet
589 -290 m 1
 557 -314 l 2
 530 -333 499 -345 467 -345 c 3
 411.706 -345 362.246 -294.824 362.246 -241.134 c 3
 362.246 -213.292 382.488 -159.184 420 -126 c 9
 572 0 l 25
 603 159 l 25
EndSplineSet
EndChar

StartChar: caron
Encoding: 711 711 205
Width: 1229
VWidth: 1947
GlyphClass: 2
Flags: MW
LayerCount: 2
Back
SplineSet
338 1422 m 5
 403 1736 l 5
 1325 1736 l 5
 1260 1422 l 5
 338 1422 l 5
EndSplineSet
Fore
SplineSet
583 1600 m 25
 808 1460 l 25
 1091 1600 l 25
EndSplineSet
EndChar

StartChar: dotlessi
Encoding: 305 305 206
Width: 1229
VWidth: 1947
GlyphClass: 2
Flags: W
LayerCount: 2
Back
SplineSet
93 0 m 1
 207.963 552 l 1
 282.337 573 l 5
 454.573 1400 l 5
 1201.57 1400 l 1
 910 0 l 1
 93 0 l 1
EndSplineSet
Fore
SplineSet
-41 75 m 25
 1038 75 l 25
181 949 m 25
 702 949 l 25
 520 75 l 25
EndSplineSet
EndChar

StartChar: currency
Encoding: 164 164 210
Width: 1229
VWidth: 1947
GlyphClass: 2
Flags: MW
LayerCount: 2
Fore
SplineSet
977.936 285.487 m 17
 821.672 525.168 l 1
407.328 1038.83 m 1
 251.064 1278.51 l 9
128.286 404.898 m 17
 345.804 593.157 l 1
884.439 971.778 m 1
 1100.71 1159.1 l 9
624.4 1107.6 m 18
 816 1107.6 933.5 951.4 933.5 799.6 c 10
 933.5 768.8 l 18
 933.5 608.2 813 461.9 624.4 461.9 c 10
 604.6 461.9 l 18
 414 461.9 295.5 609.3 295.5 768.8 c 10
 295.5 799.6 l 18
 295.5 951.4 426 1107.6 604.6 1107.6 c 10
 624.4 1107.6 l 18
EndSplineSet
EndChar

StartChar: brokenbar
Encoding: 166 166 211
Width: 1229
VWidth: 1947
GlyphClass: 2
Flags: MW
LayerCount: 2
Back
SplineSet
-130.421 -84 m 5
 10.0322 591 l 1
 1240.03 591 l 1
 1099.58 -84 l 5
 -130.421 -84 l 5
59.9639 831 m 1
 193.554 1473 l 1
 1423.55 1473 l 1
 1289.96 831 l 1
 59.9639 831 l 1
EndSplineSet
Fore
SplineSet
456.424 -222 m 17
 831.448 1581 l 9
EndSplineSet
EndChar

StartChar: onequarter
Encoding: 188 188 212
Width: 1229
VWidth: 1708
GlyphClass: 2
Flags: MW
LayerCount: 2
Back
SplineSet
266 636 m 17
 -240 757 l 1
 -202 942 l 1
 227 1167 l 1
 251 1296 l 1
 207 1384 l 1
 441 1569 l 1
 828 1569 l 1
 752 1200 l 17
 1196 1668 l 9
 1552 1473 l 17
 824 575 l 1
 1202 575 l 5
 1039 -209 l 5
 483 -209 l 1
 583 274 l 9
 200 -207 l 25
 -232 -69 l 25
 266 636 l 17
EndSplineSet
Fore
SplineSet
834.848 -369 m 25
 1022 525 l 25
 547 41 l 25
 1254 41 l 25
311 803 m 25
 457 1504 l 25
 19 1319 l 25
88 -25 m 25
 1209 1425 l 25
EndSplineSet
EndChar

StartChar: onehalf
Encoding: 189 189 213
Width: 1229
VWidth: 1708
GlyphClass: 2
Flags: MW
LayerCount: 2
Back
SplineSet
225 1167 m 1
 251 1296 l 1
 207 1384 l 1
 441 1569 l 1
 828 1569 l 1
 752 1200 l 17
 1161 1662 l 1
 1532 1521 l 1
 834 619 l 1
 1299 619 l 1
 1099 -345 l 1
 498 -345 l 1
 594 117 l 1
 140 -279 l 1
 -296 -84 l 1
 243 597 l 1
 -240 757 l 1
 -202 942 l 1
 225 1167 l 1
EndSplineSet
Fore
SplineSet
684 372 m 1
 735 432 791 473 915 473 c 10
 930 473 l 18
 1075 473 1136 423 1116 325 c 10
 1111 303 l 18
 1105 271 1062 201 1009 160 c 2
 698 -49 l 2
 627 -97 589 -153 555 -210 c 1
 1030 -210 l 9
311 803 m 25
 457 1504 l 25
 19 1319 l 25
88 -25 m 25
 1209 1425 l 25
EndSplineSet
EndChar

StartChar: threequarters
Encoding: 190 190 214
Width: 1229
VWidth: 1708
GlyphClass: 2
Flags: MW
LayerCount: 2
Back
SplineSet
242 -177 m 5
 -216 -174 l 5
 169 1674 l 5
 1190 1674 l 5
 1489 1458 l 5
 890 575 l 5
 1246 575 l 5
 1083 -209 l 5
 483 -209 l 5
 585 280 l 5
 242 -177 l 5
EndSplineSet
Fore
SplineSet
828.608 -399 m 25
 1022 525 l 25
 547 41 l 25
 1368 42 l 25
271 1432 m 1
 318 1491 399 1529 491 1529 c 10
 507 1529 l 18
 625 1529 666 1450 648 1365 c 10
 653 1390 l 18
 638 1314 578 1255 461 1255 c 2
 324 1255 l 9
 470 1255 l 18
 626 1255 656 1208 630 1085 c 10
 628 1074 l 18
 603 953 525 864 369 864 c 10
 353 864 l 18
 247 864 150 926 171 1026 c 1
88 -25 m 25
 1209 1425 l 25
EndSplineSet
EndChar

StartChar: Lslash
Encoding: 321 321 216
Width: 1229
VWidth: 1947
GlyphClass: 2
Flags: MW
LayerCount: 2
Back
SplineSet
-112 0 m 1
 179.573 1400 l 1
 1278.57 1400 l 5
 987 0 l 5
 -112 0 l 1
EndSplineSet
Fore
SplineSet
75 512 m 25
 921 730 l 25
486 1518 m 25
 192 76 l 25
 1143 76 l 25
EndSplineSet
EndChar

StartChar: lslash
Encoding: 322 322 257
Width: 1229
VWidth: 1947
GlyphClass: 2
Flags: MW
LayerCount: 2
Back
SplineSet
91 0 m 1
 149.731 282 l 1
 -51.1445 297 l 1
 92.5596 987 l 1
 300.308 1005 l 1
 382.573 1400 l 1
 1407.57 1400 l 1
 1174.11 279 l 1
 966.358 261 l 1
 912 0 l 1
 91 0 l 1
EndSplineSet
Fore
SplineSet
-1 75 m 25
 1038 75 l 25
524 92 m 17
259 1325 m 25
 780 1325 l 25
 520 75 l 25
169 512 m 25
 1098 730 l 25
EndSplineSet
EndChar

StartChar: dotlessj
Encoding: 567 567 260
Width: 1229
VWidth: 1947
GlyphClass: 2
Flags: MW
LayerCount: 2
Back
SplineSet
-200.001 -410 m 1
 -9.42309 504 l 1
 403.704 519 l 5
 509.002 1024 l 5
 1329 1024 l 1
 1030 -410 l 1
 -200.001 -410 l 1
EndSplineSet
Fore
SplineSet
259.527 -94.8421 m 0
 259.527 -187.329 356.19 -294 464 -294 c 11
 609.938 -294 738 -189 763 -69 c 2
 975 949 l 25
 277 949 l 25
EndSplineSet
EndChar

StartChar: eng
Encoding: 331 331 261
Width: 1229
VWidth: 2334
GlyphClass: 2
Flags: MW
LayerCount: 2
Back
SplineSet
-112 0 m 1
 106.549 1050 l 1
 1335.55 1050 l 1
 1029 -410 l 1
 55.002 -410 l 1
 428.386 -43 l 5
 438 0 l 1
 -112 0 l 1
EndSplineSet
Fore
SplineSet
273 -188 m 1
 315 -231 380 -294 463 -294 c 10
 538 -294 l 18
 735 -294 885 -130 915 12 c 10
 1054 679 l 18
 1091 858 983 974 719 974 c 10
 694 974 l 18
 462 974 237.178 691.963 209 557 c 10
 63.8965 -138 l 25
 338.456 1182 l 25
EndSplineSet
EndChar

StartChar: ellipsis
Encoding: 8230 8230 266
Width: 1229
VWidth: 1947
GlyphClass: 2
Flags: MW
HStem: 27 171<128.457 269.76 484.422 624.76 839.674 980.76>
VStem: 118 162<36.6866 188.154> 474 162<37.0584 187.782> 829 163<37.0584 187.782>
LayerCount: 2
Fore
SplineSet
1080 113 m 0
 1080 69 1045 27 998 27 c 0
 953 27 917 67 917 113 c 0
 917 157 952 198 998 198 c 0
 1046 198 1080 155 1080 113 c 0
236 113 m 0
 236 69 202 27 155 27 c 0
 109 27 74 67 74 113 c 0
 74 157 108 198 155 198 c 0
 202 198 236 155 236 113 c 0
658 113 m 0
 658 69 623 27 576 27 c 0
 531 27 496 67 496 113 c 0
 496 157 530 198 576 198 c 0
 624 198 658 155 658 113 c 0
EndSplineSet
EndChar

StartChar: uparrow
Encoding: 8593 8593 267
Width: 1229
VWidth: 1708
GlyphClass: 2
Flags: W
LayerCount: 2
Fore
SplineSet
1076 -99 m 5
 154 -99 l 5
 154 1044 l 5
 1076 1044 l 5
 1076 -99 l 5
975 620 m 29
 615 991 l 29
 255 620 l 29
615 991 m 29
 615 177 l 29
EndSplineSet
EndChar

StartChar: downarrow
Encoding: 8595 8595 268
Width: 1229
VWidth: 1708
GlyphClass: 2
Flags: W
LayerCount: 2
Fore
SplineSet
1076 124 m 1
 154 124 l 1
 154 1331 l 1
 1076 1331 l 1
 1076 124 l 1
975 580 m 25
 615 177 l 25
 255 580 l 25
615 177 m 25
 615 991 l 25
EndSplineSet
EndChar

StartChar: spaceopenbox
Encoding: 9251 9251 269
Width: 1229
VWidth: 1708
GlyphClass: 2
Flags: MW
LayerCount: 2
Back
SplineSet
-197.997 -410 m 1
 -85.7266 126 l 1
 1144.27 126 l 1
 1032 -410 l 1
 -197.997 -410 l 1
EndSplineSet
Fore
SplineSet
962 234 m 25
 893 -92 l 25
 74 -92 l 25
 143 234 l 25
EndSplineSet
EndChar

StartChar: foursuperior
Encoding: 8308 8308 271
Width: 1229
VWidth: 1947
GlyphClass: 2
Flags: MW
LayerCount: 2
Back
SplineSet
390 1425 m 5
 1209 1425 l 5
 1026 544 l 5
 207 544 l 5
 390 1425 l 5
EndSplineSet
Fore
SplineSet
786 366 m 25
 1001 1402 l 25
 313 839 l 25
 1278 839 l 25
EndSplineSet
EndChar

StartChar: Eng
Encoding: 330 330 273
Width: 1229
VWidth: 2334
GlyphClass: 2
Flags: MW
LayerCount: 2
Back
SplineSet
-112 0 m 1
 183 1425 l 1
 1412 1425 l 1
 1026 -410 l 1
 105.001 -410 l 1
 138 -252 l 5
 417.644 -126 l 1
 441 0 l 1
 -112 0 l 1
EndSplineSet
Fore
SplineSet
273 -188 m 1
 299 -246 380 -294 463 -294 c 10
 538 -294 l 18
 735 -294 885 -130 915 12 c 10
 1125 1023 l 18
 1162 1202 1061 1350 797 1350 c 10
 772 1350 l 18
 540 1350 311.937 1052.01 284 918 c 10
 77.624 -72 l 25
 414.584 1548 l 25
EndSplineSet
EndChar

StartChar: dcroat
Encoding: 273 273 274
Width: 1229
VWidth: 1947
GlyphClass: 2
Flags: W
LayerCount: 2
Back
SplineSet
-119.432 -36 m 1
 119.647 1113 l 1
 686.022 1106 l 1
 746 1400 l 1
 1344 1400 l 1
 1052 0 l 1
 767 0 l 1
 759.568 -36 l 1
 -119.432 -36 l 1
EndSplineSet
Fore
SplineSet
591 1230 m 25
 1465 1230 l 25
1164 1400 m 25
 842 -162 l 25
218 597 m 10
 182 427 l 18
 135 201 261 50 482 50 c 10
 507 50 l 18
 771 50 914 201 961 427 c 10
 997 597 l 18
 1043 821 963 974 699 974 c 10
 674 974 l 18
 410 974 264 821 218 597 c 10
EndSplineSet
EndChar

StartChar: bullet
Encoding: 8226 8226 280
Width: 1229
VWidth: 1947
GlyphClass: 2
Flags: W
HStem: 496 343<562.994 770.903>
VStem: 499 332<557.3 774.69>
LayerCount: 2
Fore
SplineSet
831 669 m 0
 831 584 757 496 666 496 c 0
 574 496 499 580 499 662 c 0
 499 750 578 839 666 839 c 0
 754 839 831 757 831 669 c 0
EndSplineSet
EndChar

StartChar: florin
Encoding: 402 402 281
Width: 1229
VWidth: 1947
GlyphClass: 2
Flags: MW
LayerCount: 2
Back
SplineSet
476.17 1500 m 1
 1429.17 1500 l 1
 1342.3 1080 l 1
 1135.97 1064 l 1
 824.995 -428 l 1
 -201.005 -428 l 1
 -5.91704 508 l 1
 273.418 524 l 1
 476.17 1500 l 1
EndSplineSet
Fore
SplineSet
1202 1250 m 1
 1173 1314 1140 1350 1043 1350 c 11
 925 1350 829 1273 789 1131 c 10
 448 -77 l 18
 410 -212 304 -311 181 -311 c 3
 100 -311 28 -252 28 -170 c 1
158 827 m 25
 1274 827 l 25
EndSplineSet
EndChar

StartChar: dagger
Encoding: 8224 8224 282
Width: 1229
VWidth: 1947
GlyphClass: 2
Flags: MW
LayerCount: 2
Back
SplineSet
273.938 1425 m 5
 1322.94 1425 l 5
 945.908 -390 l 5
 -103.092 -390 l 5
 273.938 1425 l 5
EndSplineSet
Fore
SplineSet
819.592 1524 m 17
 399.64 -495 l 9
57 949 m 25
 1356 949 l 25
EndSplineSet
EndChar

StartChar: daggerdbl
Encoding: 8225 8225 283
Width: 1229
VWidth: 1947
GlyphClass: 2
Flags: MW
LayerCount: 2
Back
SplineSet
273.938 1425 m 5
 1322.94 1425 l 5
 945.908 -390 l 5
 -103.092 -390 l 5
 273.938 1425 l 5
EndSplineSet
Fore
SplineSet
-132 89 m 25
 1177 89 l 25
824.584 1548 m 25
 399.016 -498 l 25
47 949 m 25
 1356 949 l 25
EndSplineSet
EndChar

StartChar: trademark
Encoding: 8482 8482 284
Width: 1229
VWidth: 1947
GlyphClass: 2
Flags: MW
LayerCount: 2
Back
SplineSet
57.0518 466 m 1
 255.579 1400 l 1
 1344.58 1400 l 1
 1146.05 466 l 1
 896.052 466 l 1
 907.316 519 l 1
 717.316 519 l 1
 706.052 466 l 1
 57.0518 466 l 1
EndSplineSet
Fore
SplineSet
549.105 311 m 25
 780.792 1401 l 25
 833.723 615 l 25
 1219.79 1401 l 25
 988.105 311 l 25
252.404 303 m 25
 463.261 1295 l 25
149.261 1295 m 25
 754.261 1295 l 25
EndSplineSet
EndChar

StartChar: Ecyrillic
Encoding: 1028 1028 290
Width: 1229
VWidth: 1947
GlyphClass: 2
Flags: W
LayerCount: 2
Back
SplineSet
-122.555 -51 m 1
 183.552 1425 l 1
 1413.56 1425 l 1
 1308.41 918 l 1
 745.297 903 l 5
 660.682 495 l 5
 1216.95 477 l 1
 1107.45 -51 l 1
 -122.555 -51 l 1
EndSplineSet
Fore
SplineSet
919 300 m 0
 834 154 710 51 524 50 c 2
 507 50 l 2
 173 50 173 380 238 696 c 2
 252 763 l 2
 315 1063 437 1350 776 1350 c 2
 794 1350 l 2
 1010 1350 1089 1235 1101 1074 c 0
251 736 m 17
 838 735 l 9
EndSplineSet
EndChar

StartChar: Becyrillic
Encoding: 1041 1041 298
Width: 1229
VWidth: 1947
GlyphClass: 2
Flags: MW
LayerCount: 2
Back
SplineSet
11.998 0 m 5
 306.941 1400 l 5
 1200.94 1400 l 5
 1136.09 1089 l 5
 1339.34 1071 l 5
 1113 0 l 5
 11.998 0 l 5
EndSplineSet
Fore
SplineSet
257 787 m 25
 640 787 l 2
 904 787 1051 666 1013 485 c 2
 993 387 l 2
 956 208 770 75 492 75 c 2
 109 75 l 1
 369 1325 l 9
 1348 1325 l 25
EndSplineSet
EndChar

StartChar: Gecyrillic
Encoding: 1043 1043 299
Width: 1229
VWidth: 1947
GlyphClass: 2
Flags: MW
LayerCount: 2
Back
SplineSet
11.998 0 m 1
 306.941 1400 l 1
 1275.94 1400 l 5
 1211.09 1089 l 5
 1339.34 1071 l 1
 1113 0 l 1
 11.998 0 l 1
EndSplineSet
Fore
SplineSet
55.7842 -177 m 25
 369 1325 l 25
 1392.97 1325 l 25
EndSplineSet
EndChar

StartChar: Decyrillic
Encoding: 1044 1044 300
Width: 1229
VWidth: 1947
GlyphClass: 2
Flags: MW
LayerCount: 2
Back
SplineSet
185 1425 m 1
 1414 1425 l 1
 1142 118 l 1
 923 -170 l 1
 17 -170 l 1
 -87 118 l 1
 185 1425 l 1
EndSplineSet
Fore
SplineSet
15 -212 m 17
 74 76 l 9
 963 76 l 17
 904 -212 l 9
164 76 m 17
 558 966 l 2
 609 1078 802 1325 987 1325 c 10
 1119 1325 l 17
 859 76 l 9
EndSplineSet
EndChar

StartChar: Zhecyrillic
Encoding: 1046 1046 302
Width: 1229
VWidth: 1947
GlyphClass: 2
Flags: W
LayerCount: 2
Back
SplineSet
180 1400 m 1
 1409 1400 l 1
 1117 0 l 1
 -112 0 l 1
 180 1400 l 1
EndSplineSet
Fore
SplineSet
971 -85 m 25
 833 697 l 25
2 -85 m 25
 463 697 l 25
331 1500 m 25
 549 215 l 25
 1300 1500 l 25
783 1350 m 25
 475 -140 l 25
EndSplineSet
EndChar

StartChar: Zecyrillic
Encoding: 1047 1047 303
Width: 1229
VWidth: 1947
GlyphClass: 2
Flags: MW
LayerCount: 2
Back
SplineSet
-110.936 -24 m 1
 14.4283 594 l 1
 398.08 612 l 5
 485.104 1041 l 5
 109.364 1062 l 1
 183 1425 l 1
 1409.63 1426 l 1
 1116.06 -24 l 1
 -110.936 -24 l 1
EndSplineSet
Fore
SplineSet
368 1190 m 1
 448 1296 587 1350 741 1350 c 10
 797 1350 l 18
 981.656 1350 1109.66 1266.03 1076 1103 c 9
 1067 1062 l 18
 1037 918 853 809 658 809 c 2
 309 809 l 9
 685 809 l 18
 946.946 809 1052.36 672.721 1005 447 c 9
 1001 427 l 18
 956 207 791 50 527 50 c 10
 471 50 l 18
 309.47 50 158.526 136.319 158.526 286.177 c 0
EndSplineSet
EndChar

StartChar: Iicyrillic
Encoding: 1048 1048 304
Width: 1229
VWidth: 1947
GlyphClass: 2
Flags: MW
LayerCount: 2
Back
SplineSet
180 1400 m 1
 1409 1400 l 1
 1117 0 l 1
 -112 0 l 1
 180 1400 l 1
EndSplineSet
Fore
SplineSet
863.552 -231 m 25
 1193 1350 l 25
 104 49 l 25
 415.832 1554 l 25
EndSplineSet
EndChar

StartChar: Elcyrillic
Encoding: 1051 1051 307
Width: 1229
VWidth: 1947
GlyphClass: 2
Flags: MW
LayerCount: 2
Back
SplineSet
185 1425 m 1
 1414 1425 l 1
 1117 0 l 1
 -112 0 l 1
 185 1425 l 1
EndSplineSet
Fore
SplineSet
-54 -213 m 16
 534 966 l 2
 605.487 1109.34 798 1277 987 1325 c 9
 1188 1325 l 25
 872.912 -186 l 25
EndSplineSet
EndChar

StartChar: Pecyrillic
Encoding: 1055 1055 311
Width: 1229
VWidth: 1947
GlyphClass: 2
Flags: MW
LayerCount: 2
Back
SplineSet
-113.999 0 m 5
 183 1425 l 1
 1409.63 1426 l 1
 1113 0 l 5
 -113.999 0 l 5
EndSplineSet
Fore
SplineSet
64.5195 -135 m 25
 369 1325 l 25
 1188 1325 l 25
 883.52 -135 l 25
EndSplineSet
EndChar

StartChar: Ucyrillic
Encoding: 1059 1059 315
Width: 1229
VWidth: 1947
GlyphClass: 2
Flags: MW
LayerCount: 2
Back
SplineSet
180 1400 m 1
 1409 1400 l 5
 1109 -40 l 5
 -120 -40 l 1
 180 1400 l 1
EndSplineSet
Fore
SplineSet
1280 1480 m 16
 555 214 l 2
 473 72 375 51 278 50 c 2
 238 50 l 2
 213 50 165 60 152 71 c 2
 115 103 l 9
366 1476 m 17
 416.01 1097.46 533.047 774.523 693 459 c 9
EndSplineSet
EndChar

StartChar: Efcyrillic
Encoding: 1060 1060 316
Width: 1229
VWidth: 1947
GlyphClass: 2
Flags: W
LayerCount: 2
Back
SplineSet
-110.936 -24 m 5
 183 1425 l 5
 1409.63 1426 l 5
 1116.06 -24 l 5
 -110.936 -24 l 5
EndSplineSet
Fore
SplineSet
895 1252 m 2
 1022 1252 1127 1031 1076 784 c 2
 1064 727 l 2
 1009 465 832 209 678 209 c 2
 419 209 l 2
 265 209 190 465 245 727 c 2
 256 783 l 2
 308 1032 485 1252 634 1252 c 2
 895 1252 l 2
823.96 1545 m 25
 459.544 -207 l 25
EndSplineSet
EndChar

StartChar: Tsecyrillic
Encoding: 1062 1062 318
Width: 1229
VWidth: 1947
GlyphClass: 2
Flags: MW
LayerCount: 2
Back
SplineSet
180 1400 m 1
 1309 1400 l 1
 955 -302 l 1
 -174 -302 l 1
 180 1400 l 1
EndSplineSet
Fore
SplineSet
826 75 m 17
 979 75 l 9
 789 -189 l 25
410.216 1527 m 25
 109 75 l 25
 827 75 l 17
 1128.22 1527 l 9
EndSplineSet
EndChar

StartChar: Checyrillic
Encoding: 1063 1063 319
Width: 1229
VWidth: 1947
GlyphClass: 2
Flags: MW
LayerCount: 2
Back
SplineSet
-108 0 m 1
 177 1400 l 1
 1403.63 1401 l 1
 1119 0 l 1
 -108 0 l 1
EndSplineSet
Fore
SplineSet
1019 512 m 25
 598 512 l 2
 334 512 235.559 683.09 273 864 c 2
 410.216 1527 l 17
1229.22 1527 m 1
 882.271 -141 l 1
EndSplineSet
EndChar

StartChar: Shacyrillic
Encoding: 1064 1064 320
Width: 1229
VWidth: 1947
GlyphClass: 2
Flags: MW
LayerCount: 2
Back
SplineSet
-110.936 -24 m 1
 177 1400 l 5
 603 1400.35 l 5
 558 1180.36 l 5
 906 1179.64 l 5
 981 1400.66 l 5
 1403.63 1401 l 5
 1116.06 -24 l 1
 -110.936 -24 l 1
EndSplineSet
Fore
SplineSet
774.344 1302 m 17
 520 75 l 9
408.344 1518 m 25
 109 75 l 25
 928 75 l 25
 1227.34 1518 l 25
EndSplineSet
EndChar

StartChar: Shchacyrillic
Encoding: 1065 1065 321
Width: 1229
VWidth: 1947
GlyphClass: 2
Flags: MW
LayerCount: 2
Back
SplineSet
177 1400 m 1
 603 1400.35 l 1
 558 1180.36 l 1
 906 1179.64 l 1
 981 1400.66 l 1
 1360.63 1401 l 1
 1005 -302 l 1
 -174 -302 l 1
 177 1400 l 1
EndSplineSet
Fore
SplineSet
772.472 1293 m 17
 520 75 l 9
926 75 m 25
 1047 75 l 25
 837 -189 l 25
406.472 1509 m 25
 109 75 l 25
 928 75 l 17
 1225.47 1509 l 9
EndSplineSet
EndChar

StartChar: Hardsigncyrillic
Encoding: 1066 1066 322
Width: 1229
VWidth: 1947
GlyphClass: 2
Flags: W
HStem: 1405 20G<60 922>
VStem: 0 922<-60 680>
LayerCount: 2
Back
SplineSet
266 1425 m 1
 1414 1425 l 1
 1105 -60 l 1
 -124 -60 l 1
 37 712 l 1
 243 714 l 1
 294 959 l 1
 169 959 l 1
 266 1425 l 1
EndSplineSet
Fore
SplineSet
440 747 m 25
 741 747 l 2
 916 747 1049 656 1011 475 c 2
 989 367 l 2
 952 188 776 75 601 75 c 2
 300 75 l 1
 560 1325 l 9
 339 1325 l 25
 96 896 l 25
EndSplineSet
EndChar

StartChar: Yericyrillic
Encoding: 1067 1067 323
Width: 1229
VWidth: 1947
GlyphClass: 2
Flags: MW
LayerCount: 2
Back
SplineSet
-113 0 m 1
 177 1400 l 1
 1407 1400 l 1
 1117 0 l 1
 -113 0 l 1
EndSplineSet
Fore
SplineSet
1244.85 1506 m 17
 891.664 -192 l 9
239 797 m 25
 358 797 l 2
 622 797 731 676 693 495 c 2
 675 407 l 2
 638 228 486 75 208 75 c 2
 89 75 l 1
 385.848 1506 l 1
EndSplineSet
EndChar

StartChar: Softsigncyrillic
Encoding: 1068 1068 324
Width: 1229
VWidth: 1947
GlyphClass: 2
Flags: MW
LayerCount: 2
Back
SplineSet
-113 0 m 1
 184 1425 l 1
 1414 1425 l 1
 1117 0 l 1
 -113 0 l 1
EndSplineSet
Fore
SplineSet
249 747 m 25
 672 747 l 2
 936 747 1043 626 1005 445 c 2
 991 377 l 2
 954 198 810 75 532 75 c 2
 109 75 l 1
 415.832 1554 l 1
EndSplineSet
EndChar

StartChar: Ereversedcyrillic
Encoding: 1069 1069 325
Width: 1229
VWidth: 1947
GlyphClass: 2
Flags: MW
LayerCount: 2
Back
SplineSet
-120.056 -39 m 1
 -7.33054 507 l 1
 555.796 522 l 1
 644.583 948 l 1
 88.96 969 l 1
 184 1425 l 1
 1414 1425 l 1
 1109.94 -39 l 1
 -120.056 -39 l 1
EndSplineSet
Fore
SplineSet
351 1071 m 0
 432 1234 560 1350 776 1350 c 2
 794 1350 l 2
 1135 1350 1133 1062 1072 765 c 2
 1057 696 l 2
 992 380 856 51 524 50 c 2
 507 50 l 2
 314 50 232 161 210 315 c 0
455 745 m 25
 1062 745 l 25
EndSplineSet
EndChar

StartChar: IUcyrillic
Encoding: 1070 1070 326
Width: 1229
VWidth: 1947
GlyphClass: 2
Flags: MW
LayerCount: 2
Back
SplineSet
-111 0 m 1
 178 1400 l 1
 546 1400 l 1
 564 1425 l 1
 1414 1425 l 1
 1112.44 -25 l 1
 342 -25 l 1
 330.56 0 l 1
 -111 0 l 1
EndSplineSet
Fore
SplineSet
225 700 m 25
 510 700 l 25
383 1485 m 17
 36 -174 l 9
946 1350 m 2
 1142 1350 1156 1073 1091 761 c 2
 1080 711 l 2
 1014 393 880 50 682 50 c 2
 656 50 l 2
 462 50 469 403 532 706 c 2
 543 757 l 2
 608 1069 733 1350 932 1350 c 2
 946 1350 l 2
EndSplineSet
EndChar

StartChar: IAcyrillic
Encoding: 1071 1071 327
Width: 1229
VWidth: 1947
GlyphClass: 2
Flags: MW
LayerCount: 2
Back
SplineSet
192 1458 m 1
 1421 1458 l 1
 1117 0 l 1
 -112 0 l 1
 192 1458 l 1
EndSplineSet
Fore
SplineSet
-47 -102 m 25
 642 662 l 25
1051 667 m 25
 630 667 l 2
 366 667 254 772 292 953 c 2
 310 1043 l 2
 351 1239 489 1325 767 1325 c 2
 1188 1325 l 1
 879.152 -156 l 1
EndSplineSet
EndChar

StartChar: becyrillic
Encoding: 1073 1073 329
Width: 1229
VWidth: 1947
GlyphClass: 2
Flags: MW
LayerCount: 2
Back
SplineSet
334 1506 m 5
 1227 1506 l 1
 1152 1136 l 1
 1342 1083 l 1
 1093 -99 l 1
 -131 -99 l 1
 103 1029 l 1
 239 1047 l 5
 334 1506 l 5
EndSplineSet
Fore
SplineSet
219 597 m 10
 184 427 l 18
 140 213 277 50 502 50 c 10
 529 50 l 18
 793 50 956 201 1003 427 c 10
 1038 597 l 18
 1078 800 1064 974 719 974 c 10
 693 974 l 18
 429 974 266 821 219 597 c 10
1335 1325 m 25
 372 1325 l 25
 954 927 l 25
EndSplineSet
EndChar

StartChar: vecyrillic
Encoding: 1074 1074 330
Width: 1229
VWidth: 2334
GlyphClass: 2
Flags: MW
LayerCount: 2
Fore
SplineSet
506 75 m 2
 633 75 l 2
 897 75 1011 134 1045 285 c 10
 1055 325 l 18
 1089 474 984 549 729 549 c 2
 209 549 l 1
 332 549 l 2
 555 549 899 889 937 1064 c 2
 960 1172 l 2
 988 1302 842 1349 693 1349 c 2
 646 1349 l 2
 406 1349 341.368 1196 302.264 1008 c 2
 166.232 354 l 18
 116.312 114 342 75 506 75 c 2
EndSplineSet
EndChar

StartChar: gecyrillic
Encoding: 1075 1075 331
Width: 1229
VWidth: 1947
GlyphClass: 2
Flags: MW
LayerCount: 2
Fore
SplineSet
292 810 m 1
 374 909 497 974 649 974 c 10
 736 974 l 18
 973 974 1059 912 1031 779 c 2
 1029 767 l 2
 1011 681 952 621 869 601 c 2
 336 476 l 2
 249 455 173 384 159 317 c 2
 150 271 l 2
 120 129 259 50 457 50 c 10
 577 50 l 18
 778 50 955 203 983 337 c 8
EndSplineSet
EndChar

StartChar: decyrillic
Encoding: 1076 1076 332
Width: 1229
VWidth: 1947
GlyphClass: 2
Flags: MW
LayerCount: 2
Fore
SplineSet
351 1242 m 17
 500 1306 547 1325 767 1325 c 2
 792 1325 l 2
 1057 1313 1156 1164 1118 981 c 2
 1020 512 l 9
219 597 m 10
 184 427 l 18
 140 213 277 50 502 50 c 10
 529 50 l 18
 793 50 956 201 1003 427 c 10
 1038 597 l 18
 1078 800 1064 974 719 974 c 10
 693 974 l 18
 429 974 266 821 219 597 c 10
EndSplineSet
EndChar

StartChar: zhecyrillic
Encoding: 1078 1078 334
Width: 1229
VWidth: 1947
GlyphClass: 2
Flags: MW
LayerCount: 2
Back
SplineSet
134 1184 m 1
 507 1184 l 1
 515 1024 l 1
 957 1024 l 1
 1026 1184 l 1
 1363 1184 l 1
 1115 0 l 1
 -113 0 l 1
 134 1184 l 1
EndSplineSet
Fore
SplineSet
898 -142 m 25
 758 475 l 25
50 -142 m 25
 443 473 l 25
288 1049 m 25
 535 149 l 25
 1151 1049 l 25
763 1242 m 25
 462.664 -192 l 25
EndSplineSet
EndChar

StartChar: zecyrillic
Encoding: 1079 1079 335
Width: 1229
VWidth: 1947
GlyphClass: 2
Flags: MW
LayerCount: 2
Back
SplineSet
107.999 1049 m 1
 1337 1049 l 1
 1110.82 -30 l 1
 -118.184 -30 l 1
 -33.9154 372 l 1
 439.857 390 l 1
 513.436 741 l 1
 39.7471 729 l 1
 107.999 1049 l 1
EndSplineSet
Fore
SplineSet
291 813 m 1
 371 919 489 975 643 975 c 10
 769 975 l 18
 967 975 1027 868 1008 778 c 10
 1006 767 l 18
 983 656 869 550 674 550 c 2
 334 550 l 9
 691 550 l 18
 955 550 1006 450 982 334 c 10
 978 314 l 18
 954 201 851 50 587 50 c 10
 462 50 l 18
 283 50 156 138 151 275 c 1
EndSplineSet
EndChar

StartChar: kacyrillic
Encoding: 1082 1082 338
Width: 1229
VWidth: 1947
GlyphClass: 2
Flags: MW
LayerCount: 2
Back
SplineSet
99.0137 1024 m 1
 654 1024 l 1
 719.855 1215 l 1
 1369.86 1215 l 1
 1117 0 l 1
 -112 0 l 1
 99.0137 1024 l 1
EndSplineSet
Fore
SplineSet
1035 -118 m 17
 798 114 l 2
 737.4 173.322 634.085 372.527 598 488 c 2
 563 600 l 9
1122 981 m 17
 959 902 l 2
 726 757 552 614 382 422 c 2
 122 126 l 9
339.704 1188 m 25
 58.9043 -162 l 25
EndSplineSet
EndChar

StartChar: elcyrillic
Encoding: 1083 1083 339
Width: 1229
VWidth: 1947
GlyphClass: 2
Flags: MW
LayerCount: 2
Back
SplineSet
106 1048 m 1
 1335 1048 l 1
 1117 0 l 1
 -112 0 l 1
 106 1048 l 1
EndSplineSet
Fore
SplineSet
9 -99 m 16
 401 604 l 2
 478.779 743.486 723 948 909 948 c 10
 1110 948 l 25
 877.28 -165 l 25
EndSplineSet
EndChar

StartChar: emcyrillic
Encoding: 1084 1084 340
Width: 1229
VWidth: 1947
GlyphClass: 2
Flags: MW
LayerCount: 2
Back
SplineSet
-111 1 m 1
 102 1025 l 1
 1331 1025 l 1
 1118 1 l 1
 724 1 l 1
 738 76 l 1
 309 76 l 1
 294 1 l 1
 -111 1 l 1
EndSplineSet
Fore
SplineSet
43 -74 m 25
 401 1026 l 25
 529 120 l 25
 1024 1026 l 25
 932 -75 l 25
EndSplineSet
EndChar

StartChar: encyrillic
Encoding: 1085 1085 341
Width: 1229
VWidth: 1947
GlyphClass: 2
Flags: MW
LayerCount: 2
Back
SplineSet
99 1024 m 1
 1329 1023 l 1
 1115 0 l 1
 -114 0 l 1
 99 1024 l 1
EndSplineSet
Fore
SplineSet
191 470 m 25
 1010 470 l 25
1151.84 1155 m 25
 886.64 -120 l 25
332.84 1155 m 25
 67.6396 -120 l 25
EndSplineSet
EndChar

StartChar: efcyrillic
Encoding: 1092 1092 348
Width: 1229
VWidth: 1947
GlyphClass: 2
Flags: MW
LayerCount: 2
Back
SplineSet
106.546 1050 m 1
 1335.55 1050 l 1
 1037.16 -384 l 5
 -191.84 -384 l 5
 106.546 1050 l 1
EndSplineSet
Fore
SplineSet
789 893 m 2
 1098 893 1136 723 1091 509 c 2
 1078 447 l 2
 1033 227 923 50 610 50 c 2
 410 50 l 2
 104 50 65 231 110 448 c 2
 122 509 l 2
 166 721 279 893 583 893 c 2
 789 893 l 2
749.08 1185 m 25
 402.136 -483 l 25
EndSplineSet
EndChar

StartChar: tsecyrillic
Encoding: 1094 1094 350
Width: 1229
VWidth: 2334
GlyphClass: 2
Flags: MW
LayerCount: 2
Back
SplineSet
99 1024 m 1
 1328 1024 l 1
 1037.17 -384 l 1
 -191.827 -384 l 1
 99 1024 l 1
EndSplineSet
Fore
SplineSet
326.6 1125 m 25
 172 377 l 18
 131.172 179.458 228.096 50 471 50 c 10
 498 50 l 18
 730 50 986.346 352.929 1014 487 c 10
 1145.6 1125 l 25
 954 199 l 17
 976.402 161.663 984.286 120.697 984.286 80.4606 c 3
 984.286 -127.288 765.098 -221.687 749 -228 c 8
EndSplineSet
EndChar

StartChar: checyrillic
Encoding: 1095 1095 351
Width: 1229
VWidth: 1947
GlyphClass: 2
Flags: MW
LayerCount: 2
Back
SplineSet
99.001 1024 m 1
 1328 1024 l 1
 1112.06 -24 l 5
 -116.936 -24 l 5
 99.001 1024 l 1
EndSplineSet
Fore
SplineSet
325.352 1119 m 25
 245 729 l 18
 208.115 549.975 279 397 543 397 c 10
 620 397 l 18
 852 397 1059.53 704.89 1087 839 c 10
 1144.35 1119 l 25
 878.528 -159 l 17
EndSplineSet
EndChar

StartChar: shacyrillic
Encoding: 1096 1096 352
Width: 1229
VWidth: 2334
GlyphClass: 2
Flags: MW
LayerCount: 2
Back
SplineSet
102.001 1024 m 5
 1331 1024 l 5
 1112.46 -26 l 5
 -116.545 -26 l 5
 102.001 1024 l 5
EndSplineSet
Fore
SplineSet
302.856 1107 m 25
 124 245 l 18
 99.3359 126.133 171 50 262 50 c 10
 277 50 l 18
 387 50 552.829 232.83 580 367 c 10
 730.855 1107 l 25
 555 245 l 18
 534.379 143.921 587 50 693 50 c 10
 708 50 l 18
 827 50 981.505 233.893 1009 367 c 10
 1161.86 1107 l 25
 887.296 -213 l 25
EndSplineSet
EndChar

StartChar: shchacyrillic
Encoding: 1097 1097 353
Width: 1229
VWidth: 2334
GlyphClass: 2
Flags: MW
LayerCount: 2
Back
SplineSet
99 1024 m 1
 1328 1024 l 1
 1045.9 -342 l 1
 -183.1 -342 l 1
 99 1024 l 1
EndSplineSet
Fore
SplineSet
307.472 1134 m 25
 124 245 l 18
 100.573 131.484 165.36 50 262 50 c 10
 277 50 l 18
 387 50 551.469 232.904 579 367 c 10
 738.472 1134 l 25
 555 245 l 18
 534.138 143.913 586.916 50 693 50 c 10
 708 50 l 18
 827 50 981.666 233.863 1009 367 c 10
 1166.47 1134 l 25
 974 199 l 17
 996.402 161.663 1004.29 120.697 1004.29 80.4606 c 3
 1004.29 -127.288 785.098 -221.687 769 -228 c 8
EndSplineSet
EndChar

StartChar: hardsigncyrillic
Encoding: 1098 1098 354
Width: 1229
VWidth: 1947
GlyphClass: 2
Flags: MW
LayerCount: 2
Back
SplineSet
188 1023 m 5
 1330 1023 l 1
 1105 -60 l 1
 -124 -60 l 5
 -60 246 l 5
 146 248 l 5
 213 572 l 5
 94 572 l 5
 188 1023 l 5
EndSplineSet
Fore
SplineSet
412 566 m 25
 674 566 l 18
 871 566 1014 490 987 357 c 2
 977 309 l 2
 949 174 770 75 572 75 c 10
 310 75 l 25
 491 948 l 25
 291 948 l 25
 7 462 l 25
EndSplineSet
EndChar

StartChar: yericyrillic
Encoding: 1099 1099 355
Width: 1229
VWidth: 1947
GlyphClass: 2
Flags: MW
LayerCount: 2
Back
SplineSet
102 1024 m 1
 1331 1024 l 1
 1117 0 l 1
 -112 0 l 1
 102 1024 l 1
EndSplineSet
Fore
SplineSet
912 -100 m 25
 1165 1133 l 25
306 1133 m 25
 89 75 l 25
 287 75 l 18
 485 75 674 174 702 309 c 2
 710 347 l 2
 737 480 602 561 388 561 c 10
 190 561 l 25
EndSplineSet
EndChar

StartChar: softsigncyrillic
Encoding: 1100 1100 356
Width: 1229
VWidth: 1947
GlyphClass: 2
Flags: MW
LayerCount: 2
Back
SplineSet
107.999 1049 m 5
 1337 1049 l 5
 1117 0 l 1
 -112 0 l 1
 107.999 1049 l 5
EndSplineSet
Fore
SplineSet
340.328 1191 m 25
 109 75 l 25
 532 75 l 18
 730 75 949 174 977 309 c 2
 985 347 l 2
 1012 480 847 561 633 561 c 10
 210 561 l 25
EndSplineSet
EndChar

StartChar: ereversedcyrillic
Encoding: 1101 1101 357
Width: 1229
VWidth: 1947
GlyphClass: 2
Flags: MW
LayerCount: 2
Back
SplineSet
104.999 1049 m 1
 1334 1049 l 1
 1110.19 -33 l 1
 -118.808 -33 l 1
 -45.5844 321 l 1
 368.139 339 l 5
 441.362 693 l 5
 35.7058 714 l 1
 104.999 1049 l 1
EndSplineSet
Fore
SplineSet
260 512 m 25
 997 512 l 25
270 800 m 1
 339 906 469 973 671 973 c 10
 748 973 l 18
 958 973 1062 821 1016 597 c 10
 984 447 l 18
 937 221 733 50 556 50 c 10
 479 50 l 18
 280 50 181 116 152 218 c 1
EndSplineSet
EndChar

StartChar: iucyrillic
Encoding: 1102 1102 358
Width: 1229
VWidth: 1947
GlyphClass: 2
Flags: W
HStem: 50 923<600.62 892.008>
VStem: 469 555<212.969 810.98>
LayerCount: 2
Back
SplineSet
102 1024 m 1
 459 1024 l 1
 479.162 1053 l 1
 1336.16 1053 l 1
 1110.19 -33 l 1
 290.192 -33 l 1
 273 0 l 1
 -112 0 l 1
 102 1024 l 1
EndSplineSet
Fore
SplineSet
868 974 m 2
 1064 974 1089 755 1043 533 c 2
 1036 498 l 2
 996 304 880 50 682 50 c 2
 656 50 l 2
 462 50 448 302 488 494 c 2
 496 530 l 2
 542 752 655 974 854 974 c 2
 868 974 l 2
186 512 m 25
 484 512 l 25
312.84 1155 m 25
 30.792 -201 l 25
EndSplineSet
EndChar

StartChar: iacyrillic
Encoding: 1103 1103 359
Width: 1229
VWidth: 1947
GlyphClass: 2
Flags: W
LayerCount: 2
Back
SplineSet
105 1049 m 1
 1334 1049 l 1
 1117 0 l 1
 516 0 l 1
 481.712 -93 l 1
 -131.288 -93 l 1
 105 1049 l 1
EndSplineSet
Fore
SplineSet
101.96 45 m 25
 617 470 l 25
882.896 -138 m 25
 1110 948 l 25
 669 948 l 18
 471 948 276 879 248 744 c 2
 238 693 l 2
 210 561 305 470 569 470 c 10
 1010 470 l 25
EndSplineSet
EndChar

StartChar: ecyrillic
Encoding: 1108 1108 362
Width: 1229
VWidth: 1947
GlyphClass: 2
Flags: W
LayerCount: 2
Back
SplineSet
108 1049 m 1
 1337 1049 l 1
 1271.86 738 l 1
 868.724 723 l 5
 781.389 306 l 5
 1177.62 288 l 1
 1112.06 -25 l 1
 -116.936 -25 l 1
 108 1049 l 1
EndSplineSet
Fore
SplineSet
984 512 m 25
 226 512 l 25
1082 800 m 1
 1057 906 945 973 743 973 c 10
 677 973 l 18
 433 973 285 801 238 577 c 10
 214 457 l 18
 171 252 232 50 485 50 c 10
 551 50 l 18
 751 50 888 116 958 218 c 1
EndSplineSet
EndChar

StartChar: numero
Encoding: 8470 8470 372
Width: 1229
VWidth: 1947
Flags: MW
LayerCount: 2
Back
SplineSet
181.79 1400 m 1
 1410.79 1400 l 1
 1113.21 0 l 1
 -115.79 0 l 1
 181.79 1400 l 1
EndSplineSet
Fore
SplineSet
1090.39 1257 m 3
 1180.44 1257 1202.91 1123 1159.55 919 c 0
 1115.76 713 1029.29 546 939.267 546 c 3
 853.243 546 833.764 713 877.55 919 c 0
 920.911 1123 1011.88 1257 1090.39 1257 c 3
4.20996 -110 m 25
 322.853 1405 l 25
 434.147 -5 l 25
 752.79 1500 l 25
EndSplineSet
EndChar

StartChar: caroncomb
Encoding: 780 780 377
Width: 1229
VWidth: 1947
Flags: MW
LayerCount: 2
Back
SplineSet
338 1422 m 5
 403 1736 l 5
 1325 1736 l 5
 1260 1422 l 5
 338 1422 l 5
EndSplineSet
Fore
SplineSet
583 1600 m 25
 808 1460 l 25
 1091 1600 l 25
EndSplineSet
EndChar

StartChar: gravecomb
Encoding: 768 768 379
Width: 1229
VWidth: 2334
Flags: MW
LayerCount: 2
Fore
SplineSet
747 1647 m 29
 901 1438 l 29
EndSplineSet
EndChar

StartChar: acutecomb
Encoding: 769 769 380
Width: 1229
VWidth: 2334
Flags: MW
LayerCount: 2
Fore
SplineSet
935 1647 m 29
 693 1438 l 29
EndSplineSet
EndChar

StartChar: tildecomb
Encoding: 771 771 381
Width: 1229
VWidth: 1947
Flags: MW
LayerCount: 2
Fore
SplineSet
537 1502 m 17
 559 1528 l 2
 598 1574 668 1612 702 1612 c 10
 718 1612 l 18
 753 1612 803 1595 821 1576 c 2
 837 1559 l 2
 854 1539 905 1522 940 1522 c 10
 957 1522 l 18
 989 1522 1062 1557 1103 1608 c 2
 1122 1632 l 9
EndSplineSet
EndChar

StartChar: hookabovecomb
Encoding: 777 777 382
Width: 1229
VWidth: 1947
Flags: MW
LayerCount: 2
Back
SplineSet
150.906 1268 m 5
 247.447 1732 l 1
 1477.45 1732 l 1
 1380.91 1268 l 5
 150.906 1268 l 5
EndSplineSet
Fore
SplineSet
752.048 1156 m 1
 798 1371 l 1
 913.326 1371 1021.05 1407.43 1021.05 1513.49 c 3
 1021.05 1583.02 926.959 1606 856 1606 c 11
 770.384 1606 714 1590 644 1549 c 9
EndSplineSet
EndChar

StartChar: dotbelowcomb
Encoding: 803 803 383
Width: 1229
VWidth: 2334
Flags: MW
HStem: -355 204<285.294 451.75>
VStem: 267 204<-336.089 -169.911>
LayerCount: 2
Fore
SplineSet
344 -253 m 31
 344 -197 388 -151 445 -151 c 31
 501 -151 548 -197 548 -253 c 31
 548 -309 501 -355 445 -355 c 31
 388 -355 344 -309 344 -253 c 31
EndSplineSet
EndChar

StartChar: commaturnedabovecmb
Encoding: 786 786 396
Width: 1229
VWidth: 1947
Flags: MW
LayerCount: 2
Back
SplineSet
-234.665 -585 m 1
 -109.822 15 l 5
 1120.18 15 l 5
 995.335 -585 l 1
 -234.665 -585 l 1
EndSplineSet
Fore
SplineSet
561 144 m 17
 508 -112 l 1
 630.346 -112 676.413 -176.422 676.413 -239.786 c 3
 676.413 -339.894 566.233 -411 458 -411 c 27
 379.85 -411 316 -379 273 -334 c 9
EndSplineSet
EndChar

StartChar: Hbar
Encoding: 294 294 400
Width: 1229
VWidth: 1947
Flags: W
LayerCount: 2
Back
SplineSet
-32 0 m 1
 259.573 1400 l 1
 1328.57 1400 l 5
 1037 0 l 5
 -32 0 l 1
EndSplineSet
Fore
SplineSet
132 1170 m 25
 1401 1170 l 25
333 732 m 25
 978 732 l 25
1149 1539 m 25
 805 -100 l 25
504 1539 m 25
 160 -100 l 25
EndSplineSet
EndChar

StartChar: hbar
Encoding: 295 295 401
Width: 1229
VWidth: 1947
Flags: W
LayerCount: 2
Back
SplineSet
-42 0 m 1
 249.573 1400 l 1
 838.573 1400 l 1
 776.302 1101 l 1
 1343.8 1089 l 1
 1117 0 l 1
 -42 0 l 1
EndSplineSet
Fore
SplineSet
115 1280 m 25
 948 1280 l 25
884.144 -132 m 25
 1054 679 l 18
 1091.47 857.899 973 974 759 974 c 10
 734 974 l 18
 502 974 316.979 691.004 289 557 c 10
 145.144 -132 l 25
 489 1512 l 25
EndSplineSet
EndChar

StartChar: IJ
Encoding: 306 306 410
Width: 1229
VWidth: 1947
Flags: W
LayerCount: 2
Back
SplineSet
-37 -25 m 1
 259.573 1400 l 1
 1328.57 1400 l 1
 1081.36 213 l 1
 669.861 201 l 1
 625 -25 l 1
 -37 -25 l 1
EndSplineSet
Fore
SplineSet
531 338 m 9
 643 338 l 18
 736 338 833 425 869 597 c 10
 1020 1325 l 25
-166 76 m 25
 798 76 l 25
94 1325 m 25
 1433 1325 l 1
538 1326 m 1
 278 76 l 9
EndSplineSet
EndChar

StartChar: Tbar
Encoding: 358 358 430
Width: 1229
VWidth: 1947
Flags: W
LayerCount: 2
Back
SplineSet
18 0 m 1
 309.573 1400 l 1
 1278.57 1400 l 5
 987 0 l 5
 18 0 l 1
EndSplineSet
Fore
SplineSet
5 560 m 25
 1224 560 l 25
477.016 -123 m 25
 780 1325 l 25
164 1325 m 25
 1383 1325 l 25
EndSplineSet
EndChar

StartChar: tbar
Encoding: 359 359 431
Width: 1229
VWidth: 1947
Flags: W
HStem: -19 209<493.818 713.488> 522 130<73.8504 844.924> 839 182<76 251 473 761>
VStem: 74 771<522 652> 228 216<235.871 833.119> 251 215<420.546 839> 285 214<1094 1308>
DStem2: 265 1021 473 1021 0.0695178 0.997581<14.4597 287.696>
LayerCount: 2
Back
SplineSet
349 1425 m 1
 1107 1425 l 1
 966.977 747 l 1
 1138.86 732 l 1
 968 -84 l 1
 0 -84 l 1
 180.41 783 l 1
 219.779 804 l 1
 349 1425 l 1
EndSplineSet
Fore
SplineSet
916 210 m 1
 869 138 767 50 640 50 c 10
 615 50 l 18
 470 50 371 163 400 299 c 2
 403 316 l 9
 705 1506 l 9
101 933 m 25
 1145 933 l 25
-5 560 m 25
 1234 560 l 25
EndSplineSet
EndChar

StartChar: A
Encoding: 65 65 461
Width: 1229
VWidth: 1708
Flags: MW
LayerCount: 2
Back
SplineSet
-113 0 m 5
 184 1425 l 5
 1414 1425 l 5
 1117 0 l 5
 -113 0 l 5
EndSplineSet
Fore
SplineSet
243 324 m 25
 901 324 l 25
-0 -141 m 25
 786 1356 l 25
 951 -126 l 25
EndSplineSet
EndChar

StartChar: Lambda
Encoding: 923 923 462
Width: 1229
VWidth: 1708
Flags: MW
LayerCount: 2
Back
SplineSet
-112 0 m 1
 185 1425 l 1
 1414 1425 l 1
 1117 0 l 1
 -112 0 l 1
EndSplineSet
Fore
SplineSet
9 -105 m 25
 791 1376 l 25
 948 -114 l 25
EndSplineSet
EndChar

StartChar: Delta
Encoding: 916 916 463
Width: 1229
VWidth: 1708
Flags: MW
LayerCount: 2
Back
SplineSet
-112 0 m 1
 185 1425 l 1
 1414 1425 l 1
 1117 0 l 1
 -112 0 l 1
EndSplineSet
Fore
SplineSet
928 76 m 9
 791 1376 l 17
 109 75 l 1
 928 76 l 9
EndSplineSet
EndChar

StartChar: Theta
Encoding: 920 920 464
Width: 1229
VWidth: 1947
Flags: MW
LayerCount: 2
Fore
SplineSet
794 1350 m 2
 1066 1350 1133 1062 1072 765 c 2
 1057 696 l 2
 992 380 814 50 524 50 c 2
 507 50 l 2
 217 50 173 380 238 696 c 2
 252 763 l 2
 315 1063 493 1350 776 1350 c 2
 794 1350 l 2
529 699 m 17
 623 699 677 699 771 699 c 9
EndSplineSet
EndChar

StartChar: Xi
Encoding: 926 926 465
Width: 1229
VWidth: 1708
Flags: W
LayerCount: 2
Back
SplineSet
-129.796 -81 m 1
 -43.0273 336 l 1
 1186.97 336 l 1
 1100.2 -81 l 1
 -129.796 -81 l 1
431.989 567 m 1
 493.601 834 l 1
 870.601 834 l 5
 808.989 567 l 5
 431.989 567 l 1
105.539 1050 m 1
 191.681 1464 l 1
 1421.68 1464 l 1
 1335.54 1050 l 1
 105.539 1050 l 1
EndSplineSet
Fore
SplineSet
182.456 432 m 25
 109 75 l 25
 928 75 l 25
 1001.46 432 l 25
341 700 m 25
 969 700 l 25
289.784 948 m 25
 369 1325 l 25
 1188 1325 l 25
 1108.78 948 l 25
EndSplineSet
EndChar

StartChar: Sigma
Encoding: 931 931 468
Width: 1229
VWidth: 1947
Flags: MW
LayerCount: 2
Back
SplineSet
315 1425 m 1
 1284 1425 l 5
 982 -25 l 5
 13 -25 l 1
 315 1425 l 1
EndSplineSet
Fore
SplineSet
1068 74 m 1
 71 74 l 1
 688 734 l 1
 327 1325 l 1
 1324 1325 l 1
EndSplineSet
EndChar

StartChar: Psi
Encoding: 936 936 473
Width: 1229
VWidth: 1947
Flags: MW
LayerCount: 2
Back
SplineSet
-117.936 -25 m 1
 168.964 1350 l 1
 545.964 1350 l 1
 579 1425 l 1
 1035 1425 l 1
 1030.34 1350 l 5
 1397.34 1350 l 5
 1112.06 -25 l 1
 -117.936 -25 l 1
EndSplineSet
Fore
SplineSet
1220.72 1440 m 25
 1085 778 l 18
 1057.74 645.051 941 512 780 512 c 10
 442 512 l 18
 297 512 216.893 636.021 246 778 c 10
 381.72 1440 l 25
817.72 1515 m 25
 469.528 -159 l 25
EndSplineSet
EndChar

StartChar: Omega
Encoding: 937 937 474
Width: 1229
VWidth: 1947
Flags: MW
LayerCount: 2
Back
SplineSet
17 0 m 1
 67.6465 243 l 1
 -57.9768 264 l 1
 184 1425 l 1
 1414 1425 l 1
 1170.15 255 l 1
 1035.77 234 l 5
 987 0 l 5
 17 0 l 1
EndSplineSet
Fore
SplineSet
-66 75 m 1
 348 75 l 0
 400 323 l 1
 242 387 220 612 260 807 c 2
 272 862 l 2
 323 1108 496 1351 776 1351 c 2
 794 1351 l 2
 1069 1351 1143 1107 1092 864 c 2
 1080 807 l 2
 1040 613 917 375 741 323 c 1
 689 75 l 1
 1113 75 l 25
EndSplineSet
EndChar

StartChar: alpha
Encoding: 945 945 483
Width: 1229
VWidth: 1947
Flags: MW
LayerCount: 2
Fore
SplineSet
1152 1024 m 1
 687 241 l 2
 636 154 554 50 414 50 c 2
 395 50 l 2
 243 50 143 240 196 495 c 2
 203 529 l 2
 256 782 435 974 587 974 c 2
 606 974 l 2
 764 974 785 867 799 782 c 2
 942 0 l 17
EndSplineSet
EndChar

StartChar: beta
Encoding: 946 946 484
Width: 1229
VWidth: 2334
Flags: MW
LayerCount: 2
Back
SplineSet
-180.354 -324 m 5
 184 1425 l 1
 1414 1425 l 1
 1049.65 -324 l 5
 -180.354 -324 l 5
EndSplineSet
Fore
SplineSet
-12.8564 -507 m 25
 224 629 l 18
 261.308 807.935 432 974 696 974 c 10
 721 974 l 18
 980 974 1048 883 1025 770 c 2
 1022 756 l 2
 998 641 872 549 623 549 c 2
 473 549 l 1
 671 549 l 2
 934 549 1008 458 980 325 c 10
 975 299 l 18
 947 164 811 50 549 50 c 10
 494 50 l 18
 230 50 136 204 164 339 c 10
EndSplineSet
EndChar

StartChar: gamma
Encoding: 947 947 485
Width: 1229
VWidth: 2334
Flags: MW
LayerCount: 2
Back
SplineSet
102 1024 m 1
 1328 1024 l 5
 1035 -386 l 5
 -191 -386 l 1
 102 1024 l 1
EndSplineSet
Fore
SplineSet
382.168 -579 m 25
 514 50 l 25
288 1106 m 25
 514 50 l 25
 1177 1105 l 25
EndSplineSet
EndChar

StartChar: delta
Encoding: 948 948 486
Width: 1229
VWidth: 2334
Flags: MW
LayerCount: 2
Back
SplineSet
347 1455 m 1
 1420 1455 l 1
 1107 -51 l 1
 -122 -51 l 1
 117 1098 l 1
 273 1098 l 1
 347 1455 l 1
EndSplineSet
Fore
SplineSet
1188 1325 m 25
 340 1325 l 25
 932 912 l 25
209 557 m 10
 193 477 l 18
 146 251 281 50 502 50 c 10
 527 50 l 18
 791 50 965 251 1012 477 c 10
 1028 557 l 18
 1075 781 983 974 719 974 c 10
 694 974 l 18
 430 974 256 781 209 557 c 10
EndSplineSet
EndChar

StartChar: epsilon
Encoding: 949 949 487
Width: 1229
VWidth: 2334
Flags: W
LayerCount: 2
Back
SplineSet
-118.56 -25 m 1
 184 1425 l 1
 1414 1425 l 1
 1264.39 708 l 1
 881.26 693 l 5
 808.02 342 l 5
 1184.26 324 l 1
 1111.44 -25 l 1
 -118.56 -25 l 1
EndSplineSet
Fore
SplineSet
1055 880 m 1
 1014 930 907 974 750 974 c 10
 644 974 l 18
 380 974 280 899 252 764 c 3
 230 655 279 533 557 533 c 10
 1010 533 l 25
 557 533 l 18
 279 533 176 396 158 311 c 10
 155 294 l 18
 125 150 188 50 452 50 c 10
 558 50 l 18
 725 50 822 96 902 154 c 1
EndSplineSet
EndChar

StartChar: zeta
Encoding: 950 950 488
Width: 1229
VWidth: 2334
Flags: MW
LayerCount: 2
Back
SplineSet
177 1389 m 1
 1275 1389 l 1
 1093 512 l 1
 1224 512 l 1
 1032 -411 l 1
 416 -411 l 5
 475.84 -123 l 5
 -133.42 -105 l 1
 177 1389 l 1
EndSplineSet
Fore
SplineSet
592 1049 m 17
 631 1024 l 2
 738 957 934 949 1079 949 c 2
 1141 949 l 1
 1112 923 l 2
 1032 849 896 783 803 751 c 2
 485 644 l 2
 343 596 191 467 168 357 c 10
 164 337 l 18
 126 156 188 50 452 50 c 10
 617 50 l 18
 831 50 914 5 893 -94 c 2
 888 -116 l 2
 865 -230 720 -294 564 -294 c 2
 273 -294 l 9
EndSplineSet
EndChar

StartChar: eta
Encoding: 951 951 489
Width: 1229
VWidth: 2334
Flags: MW
LayerCount: 2
Back
SplineSet
-113 0 m 1
 105.544 1050 l 1
 1335.54 1050 l 1
 1036.53 -387 l 1
 432.533 -387 l 1
 489 0 l 1
 -113 0 l 1
EndSplineSet
Fore
SplineSet
798.656 -543 m 25
 1062 719 l 18
 1099.34 897.932 983 974 719 974 c 10
 694 974 l 18
 462 974 246.035 730.785 218 597 c 10
 52.6641 -192 l 25
 326.6 1125 l 25
EndSplineSet
EndChar

StartChar: theta
Encoding: 952 952 490
Width: 1229
VWidth: 1947
Flags: MW
LayerCount: 2
Fore
SplineSet
732 973 m 2
 979 973 1079 800 1029 562 c 2
 1010 470 l 2
 959 226 790 50 536 50 c 2
 485 50 l 2
 244 50 141 230 191 471 c 2
 210 561 l 2
 259 798 442 973 675 973 c 2
 732 973 l 2
201 512 m 17
 339 512 876 512 1014 512 c 9
EndSplineSet
EndChar

StartChar: lambda
Encoding: 955 955 491
Width: 1229
VWidth: 2334
Flags: MW
LayerCount: 2
Back
SplineSet
-113 0 m 1
 184.567 1425 l 1
 1413.57 1425 l 1
 1116 0 l 1
 -113 0 l 1
EndSplineSet
Fore
SplineSet
597 1527 m 25
 707 975 l 25
-16.0957 -162 m 25
 707 975 l 25
 939 -99 l 25
EndSplineSet
EndChar

StartChar: xi
Encoding: 958 958 494
Width: 1229
VWidth: 2334
Flags: MW
LayerCount: 2
Back
SplineSet
185 1425 m 1
 1061 1425 l 1
 932 804 l 1
 945 804 l 5
 836.84 285 l 5
 1173.71 270 l 1
 1032 -410 l 1
 416 -410 l 1
 477.619 -114 l 1
 -132.258 -99 l 1
 185 1425 l 1
EndSplineSet
Fore
SplineSet
605 1254 m 17
 619 1223 l 2
 642 1171 758 1108 922 1083 c 2
 961 1077 l 1
 922 1055 l 2
 884 1034 803 1009 721 994 c 2
 563 966 l 2
 432 943 279 889 252 757 c 2
 246 730 l 2
 224 626 341 513 603 513 c 10
 1035 513 l 25
 603 513 l 18
 325 513 178 407 153 287 c 10
 150 270 l 18
 118 119 208 50 452 50 c 10
 617 50 l 18
 831 50 914 5 893 -94 c 2
 888 -116 l 2
 865 -230 720 -294 564 -294 c 2
 303 -294 l 9
EndSplineSet
EndChar

StartChar: pi
Encoding: 960 960 496
Width: 1229
VWidth: 2334
Flags: MW
LayerCount: 2
Back
SplineSet
241 1350 m 1
 1327 1350 l 1
 1046 0 l 1
 -40 0 l 1
 241 1350 l 1
EndSplineSet
Fore
SplineSet
6 784 m 17
 85 858 239 949 454 949 c 2
 949 949 l 2
 1170 949 1333 1038 1399 1122 c 9
1003 949 m 25
 853 228 l 18
 821 75 968 -96 1081 -142 c 9
-136 -142 m 17
 31 -93 193 75 225 228 c 10
 373 939 l 25
EndSplineSet
EndChar

StartChar: rho
Encoding: 961 961 497
Width: 1229
VWidth: 2334
Flags: MW
LayerCount: 2
Back
SplineSet
-192.833 -384 m 1
 105.001 1049 l 1
 1335 1049 l 1
 1037.17 -384 l 1
 -192.833 -384 l 1
EndSplineSet
Fore
SplineSet
-16.5996 -525 m 25
 200 514 l 25
1008 457 m 10
 1037 597 l 18
 1084 823 940 974 719 974 c 10
 694 974 l 18
 430 974 265 823 218 597 c 10
 189 457 l 18
 142 233 238 50 502 50 c 10
 527 50 l 18
 791 50 961 233 1008 457 c 10
EndSplineSet
EndChar

StartChar: sigmafinal
Encoding: 962 962 498
Width: 1229
VWidth: 2334
Flags: MW
LayerCount: 2
Back
SplineSet
419 -410 m 5
 478.177 -129 l 5
 -137.4 -108 l 1
 112.786 1080 l 1
 1342.79 1080 l 1
 1029 -410 l 1
 419 -410 l 5
EndSplineSet
Fore
SplineSet
1119 862 m 9
 1068 900 l 18
 1025 932 917 973 843 973 c 2
 774 973 l 2
 491 973 255 775 211 567 c 10
 191 467 l 18
 137 207 253 50 452 50 c 10
 617 50 l 18
 831 50 914 5 893 -94 c 2
 888 -116 l 2
 865 -230 720 -294 564 -294 c 2
 303 -294 l 9
EndSplineSet
EndChar

StartChar: sigma
Encoding: 963 963 499
Width: 1229
VWidth: 1947
Flags: MW
LayerCount: 2
Back
SplineSet
-122.552 -51 m 1
 184 1425 l 1
 1334 1425 l 5
 1027.45 -51 l 5
 -122.552 -51 l 1
EndSplineSet
Fore
SplineSet
730 973 m 2
 964 973 1079 800 1029 562 c 2
 1014 490 l 2
 964 246 772 50 535 50 c 2
 483 50 l 2
 247 50 145 250 196 491 c 2
 210 561 l 2
 259 798 439 973 673 973 c 2
 730 973 l 2
1351 933 m 25
 905 932 l 25
EndSplineSet
EndChar

StartChar: tau
Encoding: 964 964 500
Width: 1229
VWidth: 2334
Flags: MW
LayerCount: 2
Back
SplineSet
299 1350 m 1
 1268 1350 l 1
 982 -25 l 5
 13 -25 l 5
 299 1350 l 1
EndSplineSet
Fore
SplineSet
-13 694 m 17
 79 786 332 949 504 949 c 2
 889 949 l 2
 1073 949 1362 1176 1426 1252 c 9
78 -142 m 17
 217 -138 529 120 579 358 c 2
 702 949 l 9
EndSplineSet
EndChar

StartChar: upsilon
Encoding: 965 965 501
Width: 1229
VWidth: 1947
Flags: MW
LayerCount: 2
Back
SplineSet
-122.555 -51 m 5
 102.001 1024 l 5
 524.998 1024 l 5
 540 1049 l 5
 1335 1049 l 5
 1107.45 -51 l 5
 -122.555 -51 l 5
EndSplineSet
Fore
SplineSet
632 975 m 0
 760 975 l 2
 1015 975 1077 790 1029 562 c 2
 1011 475 l 2
 961 235 757 50 530 50 c 2
 499 50 l 2
 206 50 150.324 272.932 200 513 c 2
 334.088 1161 l 1
EndSplineSet
EndChar

StartChar: phi
Encoding: 966 966 502
Width: 1229
VWidth: 1947
Flags: W
LayerCount: 2
Back
SplineSet
-192.842 -384 m 1
 90.9355 975 l 5
 513.933 975 l 5
 540 1049 l 1
 1335 1049 l 1
 1037.16 -384 l 1
 -192.842 -384 l 1
EndSplineSet
Fore
SplineSet
395.896 -513 m 1
 657 734 l 2
 687.547 879.887 778 974 871 974 c 2
 896 974 l 2
 1027 974 1076 785 1028 555 c 2
 1017 504 l 2
 967 266 823 50 553 50 c 2
 477 50 l 2
 191 50 148.7 267.063 197 500 c 2
 325.352 1119 l 1
EndSplineSet
EndChar

StartChar: chi
Encoding: 967 967 503
Width: 1229
VWidth: 2062
Flags: MW
LayerCount: 2
Back
SplineSet
100 1023 m 1
 1328 1023 l 1
 1035 -387 l 1
 -193 -387 l 1
 100 1023 l 1
EndSplineSet
Fore
SplineSet
1361 1328 m 25
 -227 -690 l 17
-4 1275 m 1
 64 1266 181 1180 234 1107 c 2
 369 945 l 2
 437 873 498 709 520 561 c 2
 581 156 l 2
 609 -28 673 -240 758 -319 c 2
 909 -456 l 2
 928 -473 1035 -517 1115 -543 c 9
EndSplineSet
EndChar

StartChar: psi
Encoding: 968 968 504
Width: 1229
VWidth: 1947
Flags: MW
LayerCount: 2
Back
SplineSet
-192.843 -384 m 5
 90.9355 975 l 1
 513.933 975 l 1
 540 1049 l 1
 921 1049 l 1
 920.933 975 l 1
 1319.93 975 l 1
 1037.16 -384 l 5
 -192.843 -384 l 5
EndSplineSet
Fore
SplineSet
394.648 -519 m 1
 744.088 1161 l 17
1136.09 1085 m 0
 1019 513 l 2
 979.277 318.944 799 50 630 50 c 2
 396 50 l 2
 226 50 160.473 319.9 200 513 c 2
 317.088 1085 l 1
EndSplineSet
EndChar

StartChar: omega
Encoding: 969 969 505
Width: 1229
VWidth: 2334
Flags: MW
LayerCount: 2
Back
SplineSet
-136 -114 m 1
 100 1024 l 1
 1330 1024 l 1
 1094 -114 l 1
 -136 -114 l 1
EndSplineSet
Fore
SplineSet
566 1166 m 17
 370 975 l 2
 325 932 263 815 246 734 c 10
 163 336 l 18
 135 198 178 50 291 50 c 10
 314 50 l 18
 457 50 534 144 562 275 c 10
 657 732 l 25
 562 275 l 18
 534 144 585 50 705 50 c 10
 732 50 l 18
 877 50 954 198 983 337 c 10
 1065 734 l 18
 1082 816 1081 923 1041 978 c 2
 907 1164 l 9
EndSplineSet
EndChar

StartChar: dieresiscmb
Encoding: 776 776 508
Width: 1229
VWidth: 1947
Flags: MW
HStem: 1285 198<450.719 608.283 827.928 984.598>
VStem: 433 193<1302.19 1466.9> 811 191<1302.46 1467.07>
LayerCount: 2
Fore
SplineSet
703 1386 m 0
 703 1332 660 1285 607 1285 c 0
 555 1285 510 1330 510 1386 c 0
 510 1446 558 1483 606 1483 c 0
 661 1483 703 1438 703 1386 c 0
1079 1386 m 0
 1079 1327 1032 1285 984 1285 c 0
 933 1285 888 1331 888 1386 c 0
 888 1442 933 1483 984 1483 c 0
 1031 1483 1079 1446 1079 1386 c 0
EndSplineSet
EndChar

StartChar: Djecyrillic
Encoding: 1026 1026 512
Width: 1229
VWidth: 2334
Flags: MW
LayerCount: 2
Back
SplineSet
11.998 0 m 5
 306.941 1400 l 5
 1275.94 1400 l 5
 1211.09 1089 l 5
 1339.34 1071 l 5
 1107.07 -48 l 5
 602.074 -48 l 5
 658.152 219 l 5
 507 216 l 5
 453 0 l 5
 11.998 0 l 5
EndSplineSet
Fore
SplineSet
554 75 m 25
 731 75 l 18
 898 75 969 276 992 386 c 2
 1046 649 l 2
 1075 787 1011 904 866 904 c 10
 839 904 l 18
 728 904 491.391 722.703 426 417 c 10
 306 -144 l 25
 615 1325 l 25
174 1325 m 25
 1383 1325 l 25
EndSplineSet
EndChar

StartChar: Ljecyrillic
Encoding: 1033 1033 513
Width: 1229
VWidth: 1947
Flags: MW
LayerCount: 2
Back
SplineSet
124 1425 m 5
 1477 1425 l 5
 1160 -100 l 5
 241 -100 l 5
 261 0 l 5
 -173 0 l 5
 124 1425 l 5
EndSplineSet
Fore
SplineSet
12 -126 m 25
 417 1075 l 18
 463 1212 548 1325 642 1325 c 10
 779 1325 l 1
 519 75 l 1
 645 75 l 2
 819 75 952 189 999 417 c 2
 1015 495 l 2
 1053 676 981 797 795 797 c 2
 669 797 l 25
EndSplineSet
EndChar

StartChar: Njecyrillic
Encoding: 1034 1034 514
Width: 1229
VWidth: 1947
Flags: MW
LayerCount: 2
Back
SplineSet
-114 0 m 1
 178.57 1400 l 1
 1408.57 1400 l 1
 1112.06 -24 l 1
 320.064 -24 l 1
 306 0 l 1
 -114 0 l 1
EndSplineSet
Fore
SplineSet
404.6 1500 m 25
 63.2715 -141 l 25
265 797 m 25
 805 797 l 2
 1002 797 1053 676 1015 495 c 2
 999 417 l 2
 962 238 843 75 654 75 c 2
 519 75 l 1
 814.6 1500 l 1
EndSplineSet
EndChar

StartChar: Tshecyrillic
Encoding: 1035 1035 515
Width: 1229
VWidth: 2334
Flags: MW
LayerCount: 2
Back
SplineSet
11.998 0 m 1
 306.941 1400 l 1
 1275.94 1400 l 1
 1211.09 1089 l 1
 1339.34 1071 l 1
 1119 0 l 1
 11.998 0 l 1
EndSplineSet
Fore
SplineSet
889.136 -108 m 25
 1066 739 l 18
 1094.82 877.035 1011 974 866 974 c 10
 839 974 l 18
 728 974 488.84 834.828 418 497 c 10
 291.136 -108 l 25
 590 1325 l 25
194 1325 m 25
 1373 1325 l 25
EndSplineSet
EndChar

StartChar: Dzhecyrillic
Encoding: 1039 1039 516
Width: 1229
VWidth: 2334
Flags: MW
LayerCount: 2
Back
SplineSet
-193.454 -387 m 1
 179.191 1400 l 1
 1409.2 1400 l 1
 1036.55 -387 l 1
 -193.454 -387 l 1
EndSplineSet
Fore
SplineSet
520 76 m 25
 395.896 -513 l 25
410 1539 m 25
 109 75 l 25
 928 75 l 17
 1229 1539 l 9
EndSplineSet
EndChar

StartChar: djecyrillic
Encoding: 1106 1106 517
Width: 1229
VWidth: 2334
Flags: MW
LayerCount: 2
Back
SplineSet
312.995 1425 m 1
 1012 1425 l 1
 939.333 1072 l 1
 1336.85 1062 l 1
 1029 -410 l 1
 84.0029 -410 l 1
 514 0 l 1
 18 0 l 1
 312.995 1425 l 1
EndSplineSet
Fore
SplineSet
175 1185 m 25
 1101 1185 l 25
265 -228 m 1
 307 -271 380 -294 463 -294 c 10
 538 -294 l 18
 735 -294 890 -110 919 32 c 10
 1019 513 l 18
 1056 692 1032 855 768 855 c 10
 721 855 l 18
 490 855 302.724 558.058 275 423 c 10
 166 -108 l 25
 504 1514 l 25
EndSplineSet
EndChar

StartChar: dzhecyrillic
Encoding: 1119 1119 519
Width: 1229
VWidth: 2334
Flags: MW
LayerCount: 2
Back
SplineSet
102 1024 m 1
 1331 1024 l 1
 1037.78 -381 l 1
 -191.215 -381 l 1
 102 1024 l 1
EndSplineSet
Fore
SplineSet
394.648 -519 m 25
 520 76 l 25
336.584 1173 m 25
 109 76 l 25
 928 76 l 25
 1155.58 1173 l 25
EndSplineSet
EndChar

StartChar: ljecyrillic
Encoding: 1113 1113 520
Width: 1229
VWidth: 1947
Flags: MW
LayerCount: 2
Back
SplineSet
106 1048 m 1
 1335 1048 l 1
 1117 0 l 1
 -112 0 l 1
 106 1048 l 1
EndSplineSet
Fore
SplineSet
37 -99 m 16
 257 615 l 2
 301 764 396 948 582 948 c 10
 701 948 l 25
 518 75 l 25
 674 75 l 18
 812 75 949 174 977 309 c 2
 987 357 l 2
 1008 458 913 561 775 561 c 10
 619 561 l 25
EndSplineSet
EndChar

StartChar: njecyrillic
Encoding: 1114 1114 521
Width: 1229
VWidth: 1947
Flags: MW
LayerCount: 2
Back
SplineSet
102 1024 m 5
 1331 1024 l 5
 1117 0 l 5
 -112 0 l 5
 102 1024 l 5
EndSplineSet
Fore
SplineSet
328.472 1134 m 25
 57.0322 -171 l 25
739.472 1134 m 25
 520 75 l 25
 664 75 l 18
 802 75 948 170 976 305 c 2
 986 353 l 2
 1007 454 903 561 765 561 c 10
 621 561 l 25
 210 561 l 25
EndSplineSet
EndChar

StartChar: apostrophereverse
Encoding: 8219 8219 523
Width: 1229
VWidth: 1708
Flags: W
LayerCount: 2
Fore
SplineSet
679 1347 m 17
 653 1218 631 1032 851 959 c 9
 877 1010 l 17
 815 1049 697 1173 816 1239 c 9
 679 1347 l 17
677 1327 m 0
 677 1275 717 1230 775 1230 c 0
 831 1230 872 1275 872 1327 c 0
 872 1378 833 1424 775 1424 c 0
 718 1424 677 1379 677 1327 c 0
EndSplineSet
EndChar

StartChar: arrowleft
Encoding: 8592 8592 526
Width: 1229
VWidth: 1708
Flags: W
LayerCount: 2
Fore
SplineSet
1076 -99 m 5
 204 -99 l 5
 204 1256 l 5
 1076 1256 l 5
 1076 -99 l 5
615 992 m 29
 244 600 l 29
 615 208 l 29
244 600 m 29
 1026 600 l 29
EndSplineSet
EndChar

StartChar: arrowright
Encoding: 8594 8594 527
Width: 1229
VWidth: 1708
Flags: MW
LayerCount: 2
Fore
SplineSet
154 -99 m 1
 154 1256 l 1
 1026 1256 l 1
 1026 -99 l 1
 154 -99 l 1
615 992 m 25
 986 600 l 25
 615 208 l 25
986 600 m 25
 204 600 l 25
EndSplineSet
EndChar

StartChar: lthorizform
Encoding: 9472 9472 528
Width: 1229
Flags: W
LayerCount: 2
Fore
SplineSet
1229 523 m 1
 -0 523 l 1
EndSplineSet
EndChar

StartChar: ltvertform
Encoding: 9474 9474 529
Width: 1229
Flags: W
LayerCount: 2
Fore
SplineSet
615 1775 m 1
 615 -615 l 1
EndSplineSet
EndChar

StartChar: rightanglenw
Encoding: 9484 9484 530
Width: 1229
Flags: W
LayerCount: 2
Fore
SplineSet
615 -615 m 1
 615 523 l 1
 1229 523 l 1
EndSplineSet
EndChar

StartChar: rightanglene
Encoding: 9488 9488 531
Width: 1229
Flags: W
LayerCount: 2
Fore
SplineSet
615 -615 m 1
 615 523 l 1
 -0 523 l 1
EndSplineSet
EndChar

StartChar: rightanglesw
Encoding: 9492 9492 532
Width: 1229
Flags: W
LayerCount: 2
Fore
SplineSet
615 1775 m 5
 615 523 l 1
 1229 523 l 1
EndSplineSet
EndChar

StartChar: rightanglese
Encoding: 9496 9496 533
Width: 1229
Flags: W
LayerCount: 2
Fore
SplineSet
615 1775 m 5
 615 523 l 1
 -0 523 l 1
EndSplineSet
EndChar

StartChar: ltvertrightform
Encoding: 9500 9500 534
Width: 1229
Flags: W
LayerCount: 2
Fore
SplineSet
615 1775 m 5
 615 -615 l 1
1229 523 m 1
 615 523 l 1
EndSplineSet
EndChar

StartChar: ltvertleftform
Encoding: 9508 9508 535
Width: 1229
Flags: W
LayerCount: 2
Fore
SplineSet
615 1775 m 5
 615 -615 l 1
615 523 m 1
 -0 523 l 1
EndSplineSet
EndChar

StartChar: ltdnhorizform
Encoding: 9516 9516 536
Width: 1229
Flags: W
LayerCount: 2
Fore
SplineSet
615 523 m 1
 615 -615 l 1
1229 523 m 1
 -0 523 l 1
EndSplineSet
EndChar

StartChar: ltuphorizform
Encoding: 9524 9524 537
Width: 1229
Flags: W
LayerCount: 2
Fore
SplineSet
615 1775 m 5
 615 523 l 1
1229 523 m 1
 -0 523 l 1
EndSplineSet
EndChar

StartChar: ltverthorizform
Encoding: 9532 9532 538
Width: 1229
Flags: W
LayerCount: 2
Fore
SplineSet
615 1775 m 5
 615 -615 l 1
1229 523 m 1
 -0 523 l 1
EndSplineSet
EndChar

StartChar: horizdblbar
Encoding: 9552 9552 539
Width: 1229
Flags: W
LayerCount: 2
Fore
SplineSet
1229 363 m 1
 0 363 l 1
1229 715 m 1
 0 715 l 1
EndSplineSet
EndChar

StartChar: vertdblbar
Encoding: 9553 9553 540
Width: 1229
Flags: W
LayerCount: 2
Fore
SplineSet
455 1775 m 5
 455 -615 l 1
775 1775 m 5
 775 -615 l 1
EndSplineSet
EndChar

StartChar: dnrtdblform
Encoding: 9554 9554 541
Width: 1229
Flags: W
LayerCount: 2
Fore
SplineSet
1229 363 m 1
 615 363 l 1
1229 715 m 1
 615 715 l 1
 615 -615 l 1
EndSplineSet
EndChar

StartChar: dndblrtform
Encoding: 9555 9555 542
Width: 1229
Flags: W
LayerCount: 2
Fore
SplineSet
455 -615 m 1
 455 523 l 1
 1229 523 l 1
775 523 m 1
 775 -615 l 1
EndSplineSet
EndChar

StartChar: dbldnrtform
Encoding: 9556 9556 543
Width: 1229
Flags: W
LayerCount: 2
Fore
SplineSet
1229 363 m 1
 775 363 l 1
 775 -615 l 1
1229 715 m 1
 455 715 l 1
 455 -615 l 1
EndSplineSet
EndChar

StartChar: dnleftdblform
Encoding: 9557 9557 544
Width: 1229
Flags: W
LayerCount: 2
Fore
SplineSet
615 363 m 1
 0 363 l 1
0 715 m 1
 615 715 l 1
 615 -615 l 1
EndSplineSet
EndChar

StartChar: dndblleftform
Encoding: 9558 9558 545
Width: 1229
Flags: W
LayerCount: 2
Fore
SplineSet
455 523 m 1
 455 -615 l 1
775 -615 m 1
 775 523 l 1
 -0 523 l 1
EndSplineSet
EndChar

StartChar: dbldnleftform
Encoding: 9559 9559 546
Width: 1229
Flags: W
LayerCount: 2
Fore
SplineSet
0 363 m 1
 455 363 l 1
 455 -615 l 1
0 715 m 1
 775 715 l 1
 775 -615 l 1
EndSplineSet
EndChar

StartChar: uprtdblform
Encoding: 9560 9560 547
Width: 1229
Flags: W
LayerCount: 2
Fore
SplineSet
1229 363 m 1
 615 363 l 1
 615 1775 l 5
1229 683 m 1
 615 683 l 1
EndSplineSet
EndChar

StartChar: updblrtform
Encoding: 9561 9561 548
Width: 1229
Flags: W
LayerCount: 2
Fore
SplineSet
455 1775 m 5
 455 523 l 1
 1229 523 l 1
775 1775 m 5
 775 523 l 1
EndSplineSet
EndChar

StartChar: dbluprtform
Encoding: 9562 9562 549
Width: 1229
Flags: W
LayerCount: 2
Fore
SplineSet
1229 363 m 1
 455 363 l 1
 455 1775 l 5
1229 715 m 1
 775 715 l 1
 775 1775 l 5
EndSplineSet
EndChar

StartChar: upleftdblform
Encoding: 9563 9563 550
Width: 1229
Flags: W
LayerCount: 2
Fore
SplineSet
0 363 m 1
 615 363 l 1
 615 1775 l 5
615 683 m 1
 0 683 l 1
EndSplineSet
EndChar

StartChar: updblleftform
Encoding: 9564 9564 551
Width: 1229
Flags: W
LayerCount: 2
Fore
SplineSet
455 1775 m 5
 455 523 l 1
775 1775 m 5
 775 523 l 1
 -0 523 l 1
EndSplineSet
EndChar

StartChar: dblupleftform
Encoding: 9565 9565 552
Width: 1229
Flags: W
LayerCount: 2
Fore
SplineSet
0 363 m 1
 775 363 l 1
 775 1775 l 5
0 715 m 1
 455 715 l 1
 455 1775 l 5
EndSplineSet
EndChar

StartChar: vertrtdblform
Encoding: 9566 9566 553
Width: 1229
Flags: W
LayerCount: 2
Fore
SplineSet
1229 363 m 1
 615 363 l 1
1229 683 m 1
 615 683 l 1
615 1775 m 5
 615 -615 l 1
EndSplineSet
EndChar

StartChar: vertdblrtform
Encoding: 9567 9567 554
Width: 1229
Flags: W
LayerCount: 2
Fore
SplineSet
455 1775 m 1
 455 -615 l 1
775 1775 m 1
 775 -615 l 1
1229 523 m 1
 775 523 l 1
EndSplineSet
EndChar

StartChar: dblvertrtform
Encoding: 9568 9568 555
Width: 1229
Flags: W
LayerCount: 2
Fore
SplineSet
1229 363 m 1
 775 363 l 1
 775 -615 l 1
1229 715 m 1
 775 715 l 1
 775 1775 l 5
455 1775 m 5
 455 -615 l 1
EndSplineSet
EndChar

StartChar: vertleftdblform
Encoding: 9569 9569 556
Width: 1229
Flags: W
LayerCount: 2
Fore
SplineSet
615 363 m 1
 0 363 l 1
615 683 m 1
 0 683 l 1
615 1775 m 5
 615 -615 l 1
EndSplineSet
EndChar

StartChar: vertdblleftform
Encoding: 9570 9570 557
Width: 1229
Flags: W
LayerCount: 2
Fore
SplineSet
455 1775 m 5
 455 -615 l 1
775 1775 m 5
 775 -615 l 1
455 523 m 1
 -0 523 l 1
EndSplineSet
EndChar

StartChar: dblvertleftform
Encoding: 9571 9571 558
Width: 1229
Flags: W
LayerCount: 2
Fore
SplineSet
0 363 m 1
 455 363 l 1
 455 -615 l 1
0 715 m 1
 455 715 l 1
 455 1775 l 5
775 1775 m 5
 775 -615 l 1
EndSplineSet
EndChar

StartChar: dnhorizdblform
Encoding: 9572 9572 559
Width: 1229
Flags: W
LayerCount: 2
Fore
SplineSet
1229 363 m 1
 0 363 l 1
1229 715 m 1
 0 715 l 1
615 363 m 1
 615 -615 l 1
EndSplineSet
EndChar

StartChar: dndblhorizform
Encoding: 9573 9573 560
Width: 1229
Flags: W
LayerCount: 2
Fore
SplineSet
455 523 m 1
 455 -615 l 1
775 523 m 1
 775 -615 l 1
1229 523 m 1
 0 523 l 1
EndSplineSet
EndChar

StartChar: dbldnhorizform
Encoding: 9574 9574 561
Width: 1229
Flags: W
LayerCount: 2
Fore
SplineSet
1229 363 m 1
 775 363 l 1
 775 -615 l 1
0 363 m 1
 455 363 l 1
 455 -615 l 1
1229 715 m 1
 0 715 l 1
EndSplineSet
EndChar

StartChar: uphorizdblform
Encoding: 9575 9575 562
Width: 1229
Flags: W
LayerCount: 2
Fore
SplineSet
1229 363 m 1
 0 363 l 1
1229 715 m 1
 0 715 l 1
615 1775 m 5
 615 715 l 1
EndSplineSet
EndChar

StartChar: updblhorizform
Encoding: 9576 9576 563
Width: 1229
Flags: W
LayerCount: 2
Fore
SplineSet
455 1775 m 5
 455 523 l 1
775 1775 m 5
 775 523 l 1
1229 523 m 1
 -0 523 l 1
EndSplineSet
EndChar

StartChar: dbluphorizform
Encoding: 9577 9577 564
Width: 1229
Flags: W
LayerCount: 2
Fore
SplineSet
1229 363 m 1
 0 363 l 1
1229 715 m 1
 775 715 l 1
 775 1775 l 5
0 715 m 1
 455 715 l 1
 455 1775 l 5
EndSplineSet
EndChar

StartChar: verthorizdblform
Encoding: 9578 9578 565
Width: 1229
Flags: W
LayerCount: 2
Fore
SplineSet
1229 363 m 1
 0 363 l 1
1229 715 m 1
 0 715 l 1
615 1775 m 1
 615 715 l 1
615 363 m 1
 615 -615 l 1
EndSplineSet
EndChar

StartChar: vertdblhorizform
Encoding: 9579 9579 566
Width: 1229
Flags: W
LayerCount: 2
Fore
SplineSet
455 1775 m 1
 455 -615 l 1
775 1775 m 1
 775 -615 l 1
1229 523 m 1
 775 523 l 1
455 523 m 1
 -0 523 l 1
EndSplineSet
EndChar

StartChar: dblverthorizform
Encoding: 9580 9580 567
Width: 1229
Flags: W
LayerCount: 2
Fore
SplineSet
1229 363 m 1
 775 363 l 1
 775 -615 l 1
0 363 m 1
 455 363 l 1
 455 -615 l 1
1229 715 m 1
 775 715 l 1
 775 1775 l 5
0 715 m 1
 455 715 l 1
 455 1775 l 5
EndSplineSet
EndChar

StartChar: upblock
Encoding: 9600 9600 568
Width: 1229
Flags: W
VStem: -0 922<523 1775>
LayerCount: 2
Fore
SplineSet
1229 523 m 1
 -0 523 l 1
 0 1775 l 5
 1229 1775 l 5
 1229 523 l 1
EndSplineSet
EndChar

StartChar: dnblock
Encoding: 9604 9604 569
Width: 1229
Flags: W
HStem: -615 1138<0 922>
VStem: -0 922<-615 523>
LayerCount: 2
Fore
SplineSet
1229 -615 m 1
 -0 -615 l 1
 -0 523 l 1
 1229 523 l 1
 1229 -615 l 1
EndSplineSet
EndChar

StartChar: block
Encoding: 9608 9608 570
Width: 1229
Flags: W
VStem: -0 922<-615 1775>
LayerCount: 2
Fore
SplineSet
-0 -615 m 1
 0 1775 l 5
 1229 1775 l 5
 1229 -615 l 1
 -0 -615 l 1
EndSplineSet
EndChar

StartChar: lfblock
Encoding: 9612 9612 571
Width: 1229
Flags: W
VStem: -0 461<-615 1775>
LayerCount: 2
Fore
SplineSet
-0 -615 m 1
 0 1775 l 5
 615 1775 l 5
 615 -615 l 1
 -0 -615 l 1
EndSplineSet
EndChar

StartChar: rtblock
Encoding: 9616 9616 572
Width: 1229
Flags: W
VStem: 461 461<-615 1775>
LayerCount: 2
Fore
SplineSet
615 -615 m 1
 615 1775 l 1
 1229 1775 l 1
 1229 -615 l 1
 615 -615 l 1
EndSplineSet
EndChar

StartChar: shadelight
Encoding: 9617 9617 573
Width: 1229
Flags: W
HStem: -514 100<153 230 461 540 769 846> -315 100<0 77 307 385 616 693> -115 99<153 230 461 540 769 846> 83 100<0 77 307 385 616 693> 283 99<153 230 461 540 769 846> 482 99<0 77 307 385 616 693> 681 100<153 230 461 540 769 846> 881 99<0 77 307 385 616 693> 1080 99<153 230 461 540 769 846> 1278 100<0 77 307 385 616 693> 1477 100<153 230 461 540 769 846> 1677 98<0 77 307 385 616 693>
VStem: 0 77<-315 -215 83 183 482 581 881 980 1278 1378 1677 1775> 153 77<-514 -414 -115 -16 283 382 681 781 1080 1179 1477 1577> 307 78<-315 -215 83 183 482 581 881 980 1278 1378 1677 1775> 461 79<-514 -414 -115 -16 283 382 681 781 1080 1179 1477 1577> 616 77<-315 -215 83 183 482 581 881 980 1278 1378 1677 1775> 769 77<-514 -414 -115 -16 283 382 681 781 1080 1179 1477 1577>
LayerCount: 2
Fore
SplineSet
0 1378 m 1
 103 1378 l 1
 103 1278 l 1
 0 1278 l 1
 0 1378 l 1
410 1378 m 1
 514 1378 l 1
 514 1278 l 1
 410 1278 l 1
 410 1378 l 1
823 1378 m 1
 924 1378 l 1
 924 1278 l 1
 823 1278 l 1
 823 1378 l 1
205 1179 m 1
 308 1179 l 1
 308 1080 l 1
 205 1080 l 1
 205 1179 l 1
616 1179 m 1
 721 1179 l 1
 721 1080 l 1
 616 1080 l 1
 616 1179 l 1
1026 1179 m 1
 1129 1179 l 1
 1129 1080 l 1
 1026 1080 l 1
 1026 1179 l 1
823 980 m 1
 924 980 l 1
 924 881 l 1
 823 881 l 1
 823 980 l 1
410 980 m 1
 514 980 l 1
 514 881 l 1
 410 881 l 1
 410 980 l 1
0 980 m 1
 103 980 l 1
 103 881 l 1
 0 881 l 1
 0 980 l 1
1026 781 m 1
 1129 781 l 1
 1129 681 l 1
 1026 681 l 1
 1026 781 l 1
616 781 m 1
 721 781 l 1
 721 681 l 1
 616 681 l 1
 616 781 l 1
205 781 m 1
 308 781 l 1
 308 681 l 1
 205 681 l 1
 205 781 l 1
0 581 m 1
 103 581 l 1
 103 482 l 1
 0 482 l 1
 0 581 l 1
410 581 m 1
 514 581 l 1
 514 482 l 1
 410 482 l 1
 410 581 l 1
823 581 m 1
 924 581 l 1
 924 482 l 1
 823 482 l 1
 823 581 l 1
1026 382 m 1
 1129 382 l 1
 1129 283 l 1
 1026 283 l 1
 1026 382 l 1
616 382 m 1
 721 382 l 1
 721 283 l 1
 616 283 l 1
 616 382 l 1
205 382 m 1
 308 382 l 1
 308 283 l 1
 205 283 l 1
 205 382 l 1
0 183 m 1
 103 183 l 1
 103 83 l 1
 0 83 l 1
 0 183 l 1
410 183 m 1
 514 183 l 1
 514 83 l 1
 410 83 l 1
 410 183 l 1
823 183 m 1
 924 183 l 1
 924 83 l 1
 823 83 l 1
 823 183 l 1
205 -16 m 1
 308 -16 l 1
 308 -115 l 1
 205 -115 l 1
 205 -16 l 1
616 -16 m 1
 721 -16 l 1
 721 -115 l 1
 616 -115 l 1
 616 -16 l 1
1026 -16 m 1
 1129 -16 l 1
 1129 -115 l 1
 1026 -115 l 1
 1026 -16 l 1
823 -215 m 1
 924 -215 l 1
 924 -315 l 1
 823 -315 l 1
 823 -215 l 1
410 -215 m 1
 514 -215 l 1
 514 -315 l 1
 410 -315 l 1
 410 -215 l 1
0 -215 m 1
 103 -215 l 1
 103 -315 l 1
 0 -315 l 1
 0 -215 l 1
205 -414 m 1
 308 -414 l 1
 308 -514 l 1
 205 -514 l 1
 205 -414 l 1
616 -414 m 1
 721 -414 l 1
 721 -514 l 1
 616 -514 l 1
 616 -414 l 1
1026 -414 m 1
 1129 -414 l 1
 1129 -514 l 1
 1026 -514 l 1
 1026 -414 l 1
205 1577 m 1
 308 1577 l 1
 308 1477 l 1
 205 1477 l 1
 205 1577 l 1
616 1577 m 1
 721 1577 l 1
 721 1477 l 1
 616 1477 l 1
 616 1577 l 1
1026 1577 m 1
 1129 1577 l 1
 1129 1477 l 1
 1026 1477 l 1
 1026 1577 l 1
0 1775 m 1
 103 1775 l 1
 103 1677 l 1
 0 1677 l 1
 0 1775 l 1
410 1775 m 1
 514 1775 l 1
 514 1677 l 1
 410 1677 l 1
 410 1775 l 1
823 1775 m 1
 924 1775 l 1
 924 1677 l 1
 823 1677 l 1
 823 1775 l 1
EndSplineSet
EndChar

StartChar: shademedium
Encoding: 9618 9618 574
Width: 1229
Flags: W
HStem: -514 100<0 77 153 230 307 384 461 539 616 692 769 846> -315 100<77 153 230 307 384 461 539 616 692 769 846 922> -115 99<0 77 153 230 307 384 461 539 616 692 769 846> 83 100<77 153 230 307 384 461 539 616 692 769 846 922> 283 99<0 77 153 230 307 384 461 539 616 692 769 846> 482 99<77 153 230 307 384 461 539 616 692 769 846 922> 681 100<0 77 153 230 307 384 461 539 616 692 769 846> 881 99<77 153 230 307 384 461 539 616 692 769 846 922> 1080 99<0 77 153 230 307 384 461 539 616 692 769 846> 1278 100<77 153 230 307 384 461 539 616 692 769 846 922> 1477 100<0 77 153 230 307 384 461 539 616 692 769 846> 1677 98<77 153 230 307 384 461 539 616 692 769 846 922>
VStem: 0 77<-514 -414 -115 -16 283 382 681 781 1080 1179 1477 1577> 77 76<-315 -215 83 183 482 581 881 980 1278 1378 1677 1775> 153 77<-514 -414 -115 -16 283 382 681 781 1080 1179 1477 1577> 230 77<-315 -215 83 183 482 581 881 980 1278 1378 1677 1775> 307 77<-514 -414 -115 -16 283 382 681 781 1080 1179 1477 1577> 384 77<-315 -215 83 183 482 581 881 980 1278 1378 1677 1775> 461 78<-514 -414 -115 -16 283 382 681 781 1080 1179 1477 1577> 539 77<-315 -215 83 183 482 581 881 980 1278 1378 1677 1775> 616 76<-514 -414 -115 -16 283 382 681 781 1080 1179 1477 1577> 692 77<-315 -215 83 183 482 581 881 980 1278 1378 1677 1775> 769 77<-514 -414 -115 -16 283 382 681 781 1080 1179 1477 1577> 846 76<-315 -215 83 183 482 581 881 980 1278 1378 1677 1775>
LayerCount: 2
Fore
SplineSet
103 1378 m 1
 205 1378 l 1
 205 1278 l 1
 103 1278 l 1
 103 1378 l 1
308 1378 m 1
 410 1378 l 1
 410 1278 l 1
 308 1278 l 1
 308 1378 l 1
513 1378 m 1
 616 1378 l 1
 616 1278 l 1
 513 1278 l 1
 513 1378 l 1
720 1378 m 1
 823 1378 l 1
 823 1278 l 1
 720 1278 l 1
 720 1378 l 1
923 1378 m 1
 1026 1378 l 1
 1026 1278 l 1
 923 1278 l 1
 923 1378 l 1
1129 1378 m 1
 1229 1378 l 1
 1229 1278 l 1
 1129 1278 l 1
 1129 1378 l 1
0 1179 m 1
 103 1179 l 1
 103 1080 l 1
 0 1080 l 1
 0 1179 l 1
205 1179 m 1
 308 1179 l 1
 308 1080 l 1
 205 1080 l 1
 205 1179 l 1
410 1179 m 1
 513 1179 l 1
 513 1080 l 1
 410 1080 l 1
 410 1179 l 1
616 1179 m 1
 720 1179 l 1
 720 1080 l 1
 616 1080 l 1
 616 1179 l 1
823 1179 m 1
 923 1179 l 1
 923 1080 l 1
 823 1080 l 1
 823 1179 l 1
1026 1179 m 1
 1129 1179 l 1
 1129 1080 l 1
 1026 1080 l 1
 1026 1179 l 1
103 980 m 1
 205 980 l 1
 205 881 l 1
 103 881 l 1
 103 980 l 1
308 980 m 1
 410 980 l 1
 410 881 l 1
 308 881 l 1
 308 980 l 1
513 980 m 1
 616 980 l 1
 616 881 l 1
 513 881 l 1
 513 980 l 1
720 980 m 1
 823 980 l 1
 823 881 l 1
 720 881 l 1
 720 980 l 1
923 980 m 1
 1026 980 l 1
 1026 881 l 1
 923 881 l 1
 923 980 l 1
1129 980 m 1
 1229 980 l 1
 1229 881 l 1
 1129 881 l 1
 1129 980 l 1
0 781 m 1
 103 781 l 1
 103 681 l 1
 0 681 l 1
 0 781 l 1
205 781 m 1
 308 781 l 1
 308 681 l 1
 205 681 l 1
 205 781 l 1
410 781 m 1
 513 781 l 1
 513 681 l 1
 410 681 l 1
 410 781 l 1
616 781 m 1
 720 781 l 1
 720 681 l 1
 616 681 l 1
 616 781 l 1
823 781 m 1
 923 781 l 1
 923 681 l 1
 823 681 l 1
 823 781 l 1
1026 781 m 1
 1129 781 l 1
 1129 681 l 1
 1026 681 l 1
 1026 781 l 1
103 581 m 1
 205 581 l 1
 205 482 l 1
 103 482 l 1
 103 581 l 1
308 581 m 1
 410 581 l 1
 410 482 l 1
 308 482 l 1
 308 581 l 1
513 581 m 1
 616 581 l 1
 616 482 l 1
 513 482 l 1
 513 581 l 1
720 581 m 1
 823 581 l 1
 823 482 l 1
 720 482 l 1
 720 581 l 1
923 581 m 1
 1026 581 l 1
 1026 482 l 1
 923 482 l 1
 923 581 l 1
1129 581 m 1
 1229 581 l 1
 1229 482 l 1
 1129 482 l 1
 1129 581 l 1
0 382 m 1
 103 382 l 1
 103 283 l 1
 0 283 l 1
 0 382 l 1
410 382 m 1
 513 382 l 1
 513 283 l 1
 410 283 l 1
 410 382 l 1
616 382 m 1
 720 382 l 1
 720 283 l 1
 616 283 l 1
 616 382 l 1
823 382 m 1
 923 382 l 1
 923 283 l 1
 823 283 l 1
 823 382 l 1
1026 382 m 1
 1129 382 l 1
 1129 283 l 1
 1026 283 l 1
 1026 382 l 1
205 382 m 1
 308 382 l 1
 308 283 l 1
 205 283 l 1
 205 382 l 1
1129 183 m 1
 1229 183 l 1
 1229 83 l 1
 1129 83 l 1
 1129 183 l 1
923 183 m 1
 1026 183 l 1
 1026 83 l 1
 923 83 l 1
 923 183 l 1
720 183 m 1
 823 183 l 1
 823 83 l 1
 720 83 l 1
 720 183 l 1
513 183 m 1
 616 183 l 1
 616 83 l 1
 513 83 l 1
 513 183 l 1
308 183 m 1
 410 183 l 1
 410 83 l 1
 308 83 l 1
 308 183 l 1
103 183 m 1
 205 183 l 1
 205 83 l 1
 103 83 l 1
 103 183 l 1
0 -16 m 1
 103 -16 l 1
 103 -115 l 1
 0 -115 l 1
 0 -16 l 1
205 -16 m 1
 308 -16 l 1
 308 -115 l 1
 205 -115 l 1
 205 -16 l 1
410 -16 m 1
 513 -16 l 1
 513 -115 l 1
 410 -115 l 1
 410 -16 l 1
616 -16 m 1
 720 -16 l 1
 720 -115 l 1
 616 -115 l 1
 616 -16 l 1
823 -16 m 1
 923 -16 l 1
 923 -115 l 1
 823 -115 l 1
 823 -16 l 1
1026 -16 m 1
 1129 -16 l 1
 1129 -115 l 1
 1026 -115 l 1
 1026 -16 l 1
1129 -215 m 1
 1229 -215 l 1
 1229 -315 l 1
 1129 -315 l 1
 1129 -215 l 1
923 -215 m 1
 1026 -215 l 1
 1026 -315 l 1
 923 -315 l 1
 923 -215 l 1
720 -215 m 1
 823 -215 l 1
 823 -315 l 1
 720 -315 l 1
 720 -215 l 1
513 -215 m 1
 616 -215 l 1
 616 -315 l 1
 513 -315 l 1
 513 -215 l 1
308 -215 m 1
 410 -215 l 1
 410 -315 l 1
 308 -315 l 1
 308 -215 l 1
103 -215 m 1
 205 -215 l 1
 205 -315 l 1
 103 -315 l 1
 103 -215 l 1
0 -414 m 1
 103 -414 l 1
 103 -514 l 1
 0 -514 l 1
 0 -414 l 1
205 -414 m 1
 308 -414 l 1
 308 -514 l 1
 205 -514 l 1
 205 -414 l 1
410 -414 m 1
 513 -414 l 1
 513 -514 l 1
 410 -514 l 1
 410 -414 l 1
616 -414 m 1
 720 -414 l 1
 720 -514 l 1
 616 -514 l 1
 616 -414 l 1
823 -414 m 1
 923 -414 l 1
 923 -514 l 1
 823 -514 l 1
 823 -414 l 1
1026 -414 m 1
 1129 -414 l 1
 1129 -514 l 1
 1026 -514 l 1
 1026 -414 l 1
0 1577 m 1
 103 1577 l 1
 103 1477 l 1
 0 1477 l 1
 0 1577 l 1
205 1577 m 1
 308 1577 l 1
 308 1477 l 1
 205 1477 l 1
 205 1577 l 1
410 1577 m 1
 513 1577 l 1
 513 1477 l 1
 410 1477 l 1
 410 1577 l 1
616 1577 m 1
 720 1577 l 1
 720 1477 l 1
 616 1477 l 1
 616 1577 l 1
823 1577 m 1
 923 1577 l 1
 923 1477 l 1
 823 1477 l 1
 823 1577 l 1
1026 1577 m 1
 1129 1577 l 1
 1129 1477 l 1
 1026 1477 l 1
 1026 1577 l 1
103 1775 m 1
 205 1775 l 1
 205 1677 l 1
 103 1677 l 1
 103 1775 l 1
308 1775 m 1
 410 1775 l 1
 410 1677 l 1
 308 1677 l 1
 308 1775 l 1
513 1775 m 1
 616 1775 l 1
 616 1677 l 1
 513 1677 l 1
 513 1775 l 1
720 1775 m 1
 823 1775 l 1
 823 1677 l 1
 720 1677 l 1
 720 1775 l 1
923 1775 m 1
 1026 1775 l 1
 1026 1677 l 1
 923 1677 l 1
 923 1775 l 1
1129 1775 m 1
 1229 1775 l 1
 1229 1677 l 1
 1129 1677 l 1
 1129 1775 l 1
EndSplineSet
EndChar

StartChar: shadedark
Encoding: 9619 9619 575
Width: 1229
Flags: W
HStem: -615 300<0 77 153 230 307 384 461 539 616 692 769 846> -615 101<77 153 230 307 384 461 539 616 692 769 846 922> -414 299<77 153 230 307 384 461 539 616 692 769 846 922> -215 299<0 77 153 230 307 384 461 539 616 692 769 846> -16 299<77 153 230 307 384 461 539 616 692 769 846 922> 183 299<0 77 153 230 307 384 461 539 616 692 769 846> 382 299<77 153 230 307 384 461 539 616 692 769 846 922> 581 299<0 77 153 230 307 384 461 539 616 692 769 846> 781 299<77 153 230 307 384 461 539 616 692 769 846 922> 980 299<0 77 153 230 307 384 461 539 616 692 769 846> 1179 299<77 153 230 307 384 461 539 616 692 769 846 922> 1378 299<0 77 153 230 307 384 461 539 616 692 769 846> 1577 198<77 153 230 307 384 461 539 616 692 769 846 922>
VStem: 0 77<-514 -414 -115 -16 283 382 681 781 1080 1179 1478 1577> 77 76<-315 -215 84 183 482 581 881 980 1279 1378 1677 1775> 153 77<-514 -414 -115 -16 283 382 681 781 1080 1179 1478 1577> 230 77<-315 -215 84 183 482 581 880 980 1279 1378 1677 1775> 307 77<-514 -414 -115 -16 283 382 681 781 1080 1179 1478 1577> 384 77<-315 -215 84 183 482 581 880 980 1279 1378 1677 1775> 461 78<-514 -414 -115 -16 283 382 681 781 1080 1179 1478 1577> 539 77<-315 -215 84 183 482 581 880 980 1279 1378 1677 1775> 616 76<-514 -414 -115 -16 283 382 681 781 1080 1179 1478 1577> 692 77<-315 -215 84 183 482 581 880 980 1279 1378 1677 1775> 769 77<-514 -414 -115 -16 283 382 681 781 1080 1179 1478 1577> 846 76<-315 -215 84 183 482 581 880 980 1279 1378 1677 1775>
LayerCount: 2
Fore
SplineSet
1229 1577 m 1x000fff80
 1129 1577 l 1
 1129 1478 l 1
 1229 1478 l 1
 1229 1179 l 1
 1129 1179 l 1
 1129 1080 l 1
 1229 1080 l 1
 1229 781 l 1
 1129 781 l 1
 1129 681 l 1
 1229 681 l 1
 1229 382 l 1
 1129 382 l 1
 1129 283 l 1
 1229 283 l 1
 1229 -16 l 1
 1129 -16 l 1
 1129 -115 l 1
 1229 -115 l 1
 1229 -414 l 1
 1129 -414 l 1
 1129 -514 l 1
 1229 -514 l 1
 1229 -615 l 1x6aafff80
 0 -615 l 1
 0 -315 l 1
 103 -315 l 1
 103 -215 l 1
 0 -215 l 1
 0 83 l 1
 103 83 l 1
 103 183 l 1
 0 183 l 1
 0 482 l 1
 103 482 l 1
 103 581 l 1
 0 581 l 1
 0 881 l 1
 103 881 l 1
 103 980 l 1
 0 980 l 1
 0 1279 l 1
 103 1279 l 1
 103 1378 l 1
 0 1378 l 1
 0 1677 l 1
 103 1677 l 1x9557ff80
 103 1775 l 1
 205 1775 l 1x000fff80
 205 1677 l 1
 308 1677 l 1x0017ff80
 308 1775 l 1
 410 1775 l 1x000fff80
 410 1677 l 1
 513 1677 l 1x0017ff80
 513 1775 l 1
 616 1775 l 1x000fff80
 616 1677 l 1
 720 1677 l 1x0017ff80
 720 1775 l 1
 823 1775 l 1x000fff80
 823 1677 l 1
 923 1677 l 1x0017ff80
 923 1775 l 1
 1026 1775 l 1x000fff80
 1026 1677 l 1
 1129 1677 l 1x0017ff80
 1129 1775 l 1
 1229 1775 l 1
 1229 1577 l 1x000fff80
103 1179 m 1
 103 1080 l 1
 205 1080 l 1
 205 1179 l 1
 103 1179 l 1
308 1179 m 1
 308 1080 l 1
 410 1080 l 1
 410 1179 l 1
 308 1179 l 1
513 1179 m 1
 513 1080 l 1
 616 1080 l 1
 616 1179 l 1
 513 1179 l 1
720 1179 m 1
 720 1080 l 1
 823 1080 l 1
 823 1179 l 1
 720 1179 l 1
923 1179 m 1
 923 1080 l 1
 1026 1080 l 1
 1026 1179 l 1
 923 1179 l 1
1129 980 m 1x0147ff80
 1026 980 l 1
 1026 880 l 1
 1129 880 l 1
 1129 980 l 1x0147ff80
923 980 m 1
 823 980 l 1
 823 880 l 1
 923 880 l 1
 923 980 l 1
720 980 m 1
 616 980 l 1
 616 880 l 1
 720 880 l 1
 720 980 l 1
513 980 m 1
 410 980 l 1
 410 880 l 1
 513 880 l 1
 513 980 l 1
308 980 m 1
 205 980 l 1
 205 880 l 1
 308 880 l 1
 308 980 l 1
103 781 m 1x0287ff80
 103 681 l 1
 205 681 l 1
 205 781 l 1
 103 781 l 1x0287ff80
308 781 m 1
 308 681 l 1
 410 681 l 1
 410 781 l 1
 308 781 l 1
513 781 m 1
 513 681 l 1
 616 681 l 1
 616 781 l 1
 513 781 l 1
720 781 m 1
 720 681 l 1
 823 681 l 1
 823 781 l 1
 720 781 l 1
923 781 m 1
 923 681 l 1
 1026 681 l 1
 1026 781 l 1
 923 781 l 1
308 581 m 1x0507ff80
 205 581 l 1
 205 482 l 1
 308 482 l 1
 308 581 l 1x0507ff80
410 581 m 1
 410 482 l 1
 513 482 l 1
 513 581 l 1
 410 581 l 1
616 581 m 1
 616 482 l 1
 720 482 l 1
 720 581 l 1
 616 581 l 1
823 581 m 1
 823 482 l 1
 923 482 l 1
 923 581 l 1
 823 581 l 1
1026 581 m 1
 1026 482 l 1
 1129 482 l 1
 1129 581 l 1
 1026 581 l 1
103 382 m 1x0a07ff80
 103 283 l 1
 205 283 l 1
 205 382 l 1
 103 382 l 1x0a07ff80
513 382 m 1
 513 283 l 1
 616 283 l 1
 616 382 l 1
 513 382 l 1
410 283 m 1
 410 382 l 1
 308 382 l 1
 308 283 l 1
 410 283 l 1
720 382 m 1
 720 283 l 1
 823 283 l 1
 823 382 l 1
 720 382 l 1
923 382 m 1
 923 283 l 1
 1026 283 l 1
 1026 382 l 1
 923 382 l 1
1129 84 m 1x1407ff80
 1129 183 l 1
 1026 183 l 1
 1026 84 l 1
 1129 84 l 1x1407ff80
923 84 m 1
 923 183 l 1
 823 183 l 1
 823 84 l 1
 923 84 l 1
720 84 m 1
 720 183 l 1
 616 183 l 1
 616 84 l 1
 720 84 l 1
513 84 m 1
 513 183 l 1
 410 183 l 1
 410 84 l 1
 513 84 l 1
308 84 m 1
 308 183 l 1
 205 183 l 1
 205 84 l 1
 308 84 l 1
103 -16 m 1x2807ff80
 103 -115 l 1
 205 -115 l 1
 205 -16 l 1
 103 -16 l 1x2807ff80
308 -16 m 1
 308 -115 l 1
 410 -115 l 1
 410 -16 l 1
 308 -16 l 1
513 -16 m 1
 513 -115 l 1
 616 -115 l 1
 616 -16 l 1
 513 -16 l 1
720 -16 m 1
 720 -115 l 1
 823 -115 l 1
 823 -16 l 1
 720 -16 l 1
923 -16 m 1
 923 -115 l 1
 1026 -115 l 1
 1026 -16 l 1
 923 -16 l 1
1129 -315 m 1x9007ff80
 1129 -215 l 1
 1026 -215 l 1
 1026 -315 l 1
 1129 -315 l 1x9007ff80
923 -315 m 1
 923 -215 l 1
 823 -215 l 1
 823 -315 l 1
 923 -315 l 1
720 -315 m 1
 720 -215 l 1
 616 -215 l 1
 616 -315 l 1
 720 -315 l 1
513 -315 m 1
 513 -215 l 1
 410 -215 l 1
 410 -315 l 1
 513 -315 l 1
308 -315 m 1
 308 -215 l 1
 205 -215 l 1
 205 -315 l 1
 308 -315 l 1
103 -414 m 1x6007ff80
 103 -514 l 1
 205 -514 l 1
 205 -414 l 1
 103 -414 l 1x6007ff80
308 -414 m 1
 308 -514 l 1
 410 -514 l 1
 410 -414 l 1
 308 -414 l 1
513 -414 m 1
 513 -514 l 1
 616 -514 l 1
 616 -414 l 1
 513 -414 l 1
720 -414 m 1
 720 -514 l 1
 823 -514 l 1
 823 -414 l 1
 720 -414 l 1
923 -414 m 1
 923 -514 l 1
 1026 -514 l 1
 1026 -414 l 1
 923 -414 l 1
1129 1378 m 1x0057ff80
 1026 1378 l 1
 1026 1279 l 1
 1129 1279 l 1
 1129 1378 l 1x0057ff80
923 1378 m 1
 823 1378 l 1
 823 1279 l 1
 923 1279 l 1
 923 1378 l 1
720 1378 m 1
 616 1378 l 1
 616 1279 l 1
 720 1279 l 1
 720 1378 l 1
513 1378 m 1
 410 1378 l 1
 410 1279 l 1
 513 1279 l 1
 513 1378 l 1
308 1378 m 1
 205 1378 l 1
 205 1279 l 1
 308 1279 l 1
 308 1378 l 1
1026 1577 m 1x002fff80
 923 1577 l 1
 923 1478 l 1
 1026 1478 l 1
 1026 1577 l 1x002fff80
823 1577 m 1
 720 1577 l 1
 720 1478 l 1
 823 1478 l 1
 823 1577 l 1
616 1577 m 1
 513 1577 l 1
 513 1478 l 1
 616 1478 l 1
 616 1577 l 1
410 1577 m 1
 308 1577 l 1
 308 1478 l 1
 410 1478 l 1
 410 1577 l 1
205 1577 m 1
 103 1577 l 1
 103 1478 l 1
 205 1478 l 1
 205 1577 l 1
EndSplineSet
EndChar

StartChar: blacksquare
Encoding: 9632 9632 576
Width: 1229
Flags: W
HStem: 84 1057<0 922>
VStem: 0 922<84 1141>
LayerCount: 2
Fore
SplineSet
0 1522 m 5
 1229 1522 l 5
 1229 113 l 5
 0 113 l 5
 0 1522 l 5
EndSplineSet
EndChar

StartChar: whitesquare
Encoding: 9633 9633 577
Width: 1229
Flags: W
HStem: 84 224<187 734> 949 192<187 734>
VStem: 0 187<308 949> 734 188<308 949>
LayerCount: 2
Fore
SplineSet
0 1522 m 1
 1229 1522 l 1
 1229 113 l 1
 0 113 l 1
 0 1522 l 1
251 1266 m 1
 251 412 l 1
 979 412 l 1
 979 1266 l 1
 251 1266 l 1
EndSplineSet
EndChar

StartChar: blacksmallsquare
Encoding: 9642 9642 578
Width: 1229
Flags: W
HStem: 400.365 472.271<224.175 696.825>
VStem: 224.175 472.65<400.365 872.635>
LayerCount: 2
Fore
SplineSet
930 534 m 5
 300 534 l 5
 300 1164 l 5
 930 1164 l 5
 930 534 l 5
EndSplineSet
EndChar

StartChar: whitesmallsquare
Encoding: 9643 9643 579
Width: 1229
Flags: W
HStem: 400.365 113.926<341.925 579.075> 758.709 113.926<341.925 579.075>
VStem: 224.175 117.75<514.291 758.709> 579.075 117.75<514.291 758.709>
LayerCount: 2
Fore
SplineSet
930 534 m 1
 300 534 l 1
 300 1164 l 1
 930 1164 l 1
 930 534 l 1
773 686 m 1
 773 1012 l 1
 457 1012 l 1
 457 686 l 1
 773 686 l 1
EndSplineSet
EndChar

StartChar: blackrectangle
Encoding: 9644 9644 580
Width: 1229
Flags: W
HStem: 395 231<0 922>
LayerCount: 2
Fore
SplineSet
0 835 m 1
 1229 835 l 5
 1229 528 l 5
 0 528 l 1
 0 835 l 1
EndSplineSet
EndChar

StartChar: triagup
Encoding: 9650 9650 581
Width: 1229
Flags: W
LayerCount: 2
Fore
SplineSet
0 110 m 5
 614 1262 l 5
 1229 110 l 5
 0 110 l 5
EndSplineSet
EndChar

StartChar: triagrt
Encoding: 9658 9658 582
Width: 1229
Flags: W
LayerCount: 2
Fore
SplineSet
85 -83 m 1
 83 1191 l 1
 1148 532 l 1
 85 -83 l 1
EndSplineSet
EndChar

StartChar: triagdn
Encoding: 9660 9660 583
Width: 1229
Flags: W
LayerCount: 2
Fore
SplineSet
1229 1262 m 5
 617 110 l 5
 0 1262 l 5
 1229 1262 l 5
EndSplineSet
EndChar

StartChar: triaglf
Encoding: 9668 9668 584
Width: 1229
Flags: W
LayerCount: 2
Fore
SplineSet
84 532 m 5
 1147 1192 l 5
 1147 -83 l 5
 84 532 l 5
EndSplineSet
EndChar

StartChar: lozenge
Encoding: 9674 9674 585
Width: 1229
Flags: W
DStem2: 261 710 89 709 0.489251 -0.872143<0 400.76> 89 709 261 710 0.486669 0.873586<84.5807 485.336> 501 1287 458 1059 0.499203 -0.866485<176.093 577.838> 458 361 501 135 0.501808 0.864979<0 401.737>
LayerCount: 2
Fore
SplineSet
669 1759 m 1
 1113 988 l 1
 669 139 l 1
 549 139 l 1
 119 988 l 1
 549 1759 l 1
 669 1759 l 1
612 1412 m 1
 349 991 l 1
 612 482 l 1
 877 991 l 1
 612 1412 l 1
EndSplineSet
EndChar

StartChar: whitecircle
Encoding: 9675 9675 586
Width: 1229
Flags: W
HStem: 221 150<334.35 586.595> 784 150<333.91 587.132>
VStem: 104 150<452.439 703.668> 668 150<451.815 701.975>
LayerCount: 2
Fore
SplineSet
616 1289 m 0
 885 1289 1091 1027 1091 771 c 0
 1091 504 879 253 616 253 c 0
 345 253 140 509 140 771 c 0
 140 1018 335 1289 616 1289 c 0
616 1047 m 0
 456 1047 340 919 340 771 c 0
 340 605 474 496 616 496 c 256
 770 496 891 618 891 771 c 0
 891 912 779 1047 616 1047 c 0
EndSplineSet
EndChar

StartChar: blackcircle
Encoding: 9679 9679 587
Width: 1229
Flags: W
HStem: 221 713<292.824 631.094>
VStem: 104 714<407.906 745.646>
LayerCount: 2
Fore
SplineSet
616 1289 m 0
 885 1289 1091 1027 1091 771 c 0
 1091 504 879 253 616 253 c 0
 345 253 140 509 140 771 c 0
 140 1018 335 1289 616 1289 c 0
EndSplineSet
EndChar

StartChar: bulletinverse
Encoding: 9688 9688 588
Width: 1229
Flags: W
HStem: 93.0996 233.28<349.727 573.114> 653.62 233.28<348.385 573.674>
VStem: 63 234<377.921 601.629> 624 233<379.634 603.318>
LayerCount: 2
Fore
SplineSet
85 83 m 1
 85 1226 l 1
 1144 1226 l 1
 1144 83 l 1
 85 83 l 1
614 873 m 256
 497 873 397 780 397 654 c 0
 397 526 501 436 614 436 c 0
 734 436 833 532 833 654 c 0
 833 776 737 873 614 873 c 256
EndSplineSet
EndChar

StartChar: whitecircleinverse
Encoding: 9689 9689 589
Width: 1229
Flags: W
HStem: 110 111<289.809 635.959> 371 413<335.607 588.433> 934 111<293.797 632.866>
VStem: 0 105<406.695 749.753> 255 413<448.029 702.431> 818 104<402.264 747.094>
LayerCount: 2
Fore
SplineSet
0 105 m 1
 0 1394 l 1
 1229 1394 l 1
 1229 105 l 1
 0 105 l 1
616 1289 m 0
 361 1289 141 1041 141 770 c 0
 141 506 349 253 616 253 c 0
 871 253 1091 493 1091 770 c 0
 1091 1033 883 1289 616 1289 c 0
617 1047 m 0
 770 1047 891 922 891 770 c 0
 891 613 766 496 617 496 c 0
 466 496 341 613 341 770 c 0
 341 928 469 1047 617 1047 c 0
EndSplineSet
EndChar

StartChar: whitebullet
Encoding: 9702 9702 590
Width: 1229
Flags: W
HStem: 406 113<368.896 552.757> 754 113<368.685 552.223>
VStem: 230 113<545.062 727.979> 579 112<546.84 727.446>
LayerCount: 2
Fore
SplineSet
922 850 m 0
 922 666 774 542 614 542 c 256
 445 542 308 677 308 850 c 0
 308 1020 444 1156 614 1156 c 0
 789 1156 922 1019 922 850 c 0
773 850 m 0
 773 940 699 1007 614 1007 c 256
 533 1007 458 944 458 850 c 0
 458 755 533 693 614 693 c 256
 702 693 773 762 773 850 c 0
EndSplineSet
EndChar

StartChar: smileface
Encoding: 9786 9786 591
Width: 1229
Flags: W
HStem: 124 126<298.564 622.839> 338 54<371.617 548.201> 608 114<255.697 366.296 555.643 665.674> 919 126<293.127 624.394>
VStem: -0 127<417.754 749.129> 254 114<609.589 720.417> 554 113<609.487 720.519> 795 126<419.528 752.828>
LayerCount: 2
Fore
SplineSet
1228 779 m 0
 1228 437 960 124 614 124 c 0
 270 124 0 440 0 779 c 0
 0 1135 284 1394 614 1394 c 0
 960 1394 1228 1122 1228 779 c 0
1060 779 m 0
 1060 1028 866 1268 614 1268 c 0
 364 1268 171 1027 171 779 c 0
 171 521 377 292 614 292 c 0
 857 292 1060 524 1060 779 c 0
492 889 m 256
 492 847 458 811 414 811 c 256
 372 811 340 849 340 889 c 256
 340 927 370 963 414 963 c 256
 460 963 492 928 492 889 c 256
890 889 m 256
 890 847 859 811 817 811 c 256
 771 811 739 847 739 889 c 256
 739 929 770 963 817 963 c 256
 859 963 890 929 890 889 c 256
374 612 m 1
 426 641 l 1
 469 564 532 524 614 524 c 256
 698 524 761 564 803 641 c 1
 856 612 l 1
 801 505 720 452 614 452 c 0
 485 452 414 536 374 612 c 1
EndSplineSet
EndChar

StartChar: invsmileface
Encoding: 9787 9787 592
Width: 1229
Flags: W
HStem: 124 171<330.15 591.942> 738 307<261.901 501.505 421.958 661.515>
VStem: -0 226<494.273 736.313> 343 236<622.894 736.048> 695 226<493.852 734.781>
LayerCount: 2
Fore
SplineSet
1228 779 m 0
 1228 437 960 124 614 124 c 0
 270 124 0 440 0 779 c 0
 0 1135 284 1394 614 1394 c 0
 960 1394 1228 1122 1228 779 c 0
458 907 m 256
 458 947 425 985 380 985 c 256
 334 985 302 946 302 907 c 256
 302 867 335 829 380 829 c 256
 424 829 458 865 458 907 c 256
928 907 m 256
 928 948 897 985 851 985 c 256
 805 985 773 948 773 907 c 256
 773 865 806 829 851 829 c 256
 896 829 928 865 928 907 c 256
332 582 m 1
 378 493 462 394 614 394 c 0
 768 394 850 492 898 582 c 1
 837 617 l 1
 786 525 713 478 614 478 c 256
 517 478 444 525 393 617 c 1
 332 582 l 1
EndSplineSet
EndChar

StartChar: compass
Encoding: 9788 9788 593
Width: 1229
Flags: W
HStem: 448 46<0 162 760 922> 722 47<486 563.283>
VStem: 162 48<494 578.675> 436 50<10 173 769 932> 710 50<363.517 448 492 580.419>
DStem2: 125 839 95 802 0.707613 -0.7066<4.91579 197.993 796.168 991.33> 95 139 127 106 0.708621 0.705589<0 194.565 792.769 988.636>
LayerCount: 2
Fore
SplineSet
582 1286 m 1
 649 1286 l 1
 649 1068 l 1
 741 1068 809 1027 873 978 c 1
 1060 1161 l 1
 1105 1115 l 1
 921 930 l 1
 979 853 1015 733 1015 657 c 1
 1229 657 l 1
 1229 598 l 1
 1015 598 l 1
 1004 518 975 398 922 332 c 1
 1105 141 l 1
 1058 99 l 1
 873 281 l 1
 798 225 742 199 649 189 c 1
 649 14 l 1
 582 14 l 1
 582 189 l 1
 498 201 425 231 359 278 c 1
 171 100 l 1
 127 143 l 1
 310 329 l 1
 257 397 227 514 217 598 c 1
 0 598 l 1
 0 659 l 1
 217 659 l 1
 217 745 255 863 309 928 c 1
 127 1113 l 1
 167 1162 l 1
 358 979 l 1
 434 1032 510 1060 582 1068 c 1
 582 1286 l 1
614 963 m 256
 422 963 281 810 281 629 c 0
 281 444 425 295 614 295 c 256
 806 295 947 448 947 629 c 0
 947 816 800 963 614 963 c 256
EndSplineSet
EndChar

StartChar: female
Encoding: 9792 9792 594
Width: 1229
Flags: W
HStem: 343 69<175 426 499 747> 577 81<346.207 426 499 579.178> 1069 84<343.449 581.435>
VStem: 183 79<741.948 982.372> 426 73<80 343 412 577> 661 80<741.559 986.112>
LayerCount: 2
Fore
SplineSet
569 770 m 1
 383 797 245 996 245 1193 c 0
 245 1426 424 1580 617 1580 c 0
 811 1580 988 1424 988 1193 c 0
 988 983 839 793 666 770 c 1
 666 550 l 1
 996 550 l 1
 996 458 l 1
 666 458 l 1
 666 65 l 1
 569 65 l 1
 569 458 l 1
 235 458 l 1
 235 550 l 1
 569 550 l 1
 569 770 l 1
616 1426 m 0
 469 1426 350 1306 350 1153 c 256
 350 996 470 879 616 879 c 256
 758 879 882 993 882 1153 c 256
 882 1312 760 1426 616 1426 c 0
EndSplineSet
EndChar

StartChar: male
Encoding: 9794 9794 595
Width: 1229
Flags: W
HStem: 250 75<211.388 439.888> 750 75<207.521 441.935>
VStem: 42 76<417.863 660.889> 531 75<414.96 660.222>
DStem2: 474 782 525 740 0.693164 0.72078<5.0786 360.117>
LayerCount: 2
Fore
SplineSet
633 1087 m 1
 968 1392 l 1
 898 1468 689 1542 689 1548 c 1
 717 1580 l 9
 1153 1580 l 0
 1175 1561 l 0
 1175 1100 l 273
 1144 1073 l 1
 1137 1073 1060 1260 1028 1329 c 1
 701 1031 l 1
 773 959 809 831 809 731 c 0
 809 505 638 292 432 292 c 256
 217 292 57 509 57 714 c 0
 57 927 220 1144 434 1144 c 0
 496 1144 561 1124 633 1087 c 1
434 1001 m 0
 279 1001 158 877 158 718 c 256
 158 554 289 434 434 434 c 256
 576 434 709 545 709 718 c 0
 709 885 580 1001 434 1001 c 0
EndSplineSet
EndChar

StartChar: spade
Encoding: 9824 9824 596
Width: 1229
Flags: W
HStem: 152 28<168 272.283 656.397 754>
VStem: 456 14<417.894 503>
LayerCount: 2
Fore
SplineSet
616 1440 m 1
 710 1047 1103 984 1103 704 c 0
 1103 572 1002 480 883 480 c 0
 779 480 694 544 627 672 c 1
 627 326 818 198 1007 198 c 1
 1012 161 l 1
 217 161 l 1
 225 198 l 1
 533 198 609 446 609 672 c 1
 546 536 452 480 348 480 c 0
 228 480 127 577 127 699 c 0
 127 995 525 1027 616 1440 c 1
EndSplineSet
EndChar

StartChar: club
Encoding: 9827 9827 597
Width: 1229
Flags: W
HStem: 151 25<150 211.374 718.551 773> 355 416<78.7852 299.617 619.973 842.203>
VStem: 252 415<744.613 993.475> 453 15<445.978 533>
LayerCount: 2
Fore
SplineSet
1040 159 m 1xd0
 195 159 l 1
 201 193 l 1
 228 198 605 273 605 665 c 0
 605 675 605 690 605 712 c 1xd0
 530 558 407 474 277 474 c 0
 135 474 0 580 0 753 c 0
 0 935 139 1072 239 1072 c 0
 281 1072 335 1055 404 1019 c 1
 348 1113 337 1146 337 1202 c 0
 337 1350 449 1428 613 1428 c 0
 773 1428 890 1352 890 1204 c 0xe0
 890 1145 867 1083 821 1019 c 1
 915 1064 929 1072 984 1072 c 0
 1114 1072 1229 917 1229 757 c 0
 1229 593 1104 474 956 474 c 0
 749 474 645 678 625 712 c 1
 625 326 840 231 1032 193 c 1
 1040 159 l 1xd0
EndSplineSet
EndChar

StartChar: heart
Encoding: 9829 9829 598
Width: 1229
Flags: W
LayerCount: 2
Fore
SplineSet
618 121 m 1
 509 525 107 864 107 1131 c 0
 107 1276 213 1332 348 1332 c 0
 456 1332 558 1315 618 1143 c 1
 666 1315 778 1334 882 1334 c 0
 1024 1334 1123 1266 1123 1144 c 0
 1123 833 723 525 618 121 c 1
EndSplineSet
EndChar

StartChar: diamond
Encoding: 9830 9830 599
Width: 1229
Flags: W
LayerCount: 2
Fore
SplineSet
614 1425 m 1
 714 1188 901 953 1074 801 c 1
 929 689 726 377 614 132 c 1
 524 337 305 689 158 801 c 1
 333 953 485 1153 614 1425 c 1
EndSplineSet
EndChar

StartChar: musicalnote
Encoding: 9834 9834 600
Width: 1229
Flags: W
HStem: 135.78 236.52<235.114 404.073> 1026.22 20G<419 480>
VStem: 183 297<213.517 321.525> 419 61<357.72 767.58 964.41 1046.22> 626 67<401.088 670.848>
LayerCount: 2
Fore
SplineSet
560 478 m 1xd8
 560 1395 l 1
 641 1395 l 1
 641 1329 l 1
 808 1123 l 2
 868 1037 924 874 924 737 c 0
 924 626 890 529 823 444 c 1
 771 444 l 1
 814 538 835 628 835 713 c 256
 835 899 724 1053 641 1067 c 1
 641 478 l 2xd8
 641 345 526 140 369 140 c 0
 291 140 245 177 245 246 c 0xe8
 245 354 338 498 462 498 c 0
 491 498 523 492 560 478 c 1xd8
EndSplineSet
EndChar

StartChar: musicalnotedbl
Encoding: 9835 9835 601
Width: 1229
Flags: W
HStem: 71 235<87.9738 255.579> 147 235<593.354 761.757> 1025 20G<760.793 839>
VStem: 272 61<292 611 714 807> 779 60<368 732 835 928>
DStem2: 272 900 333 807 0.968822 0.247759<36.0566 498.13> 333 714 333 611 0.965113 0.261835<0 435.153>
LayerCount: 2
Fore
SplineSet
1120 492 m 2xb8
 1120 299 987 155 849 155 c 0
 745 155 725 219 725 261 c 0
 725 367 817 510 943 510 c 0x78
 978 510 1010 502 1040 492 c 1
 1040 1019 l 1
 445 816 l 1
 445 348 l 2
 445 155 313 53 173 53 c 0
 69 53 49 117 49 159 c 0
 49 265 141 409 268 409 c 0
 303 409 338 359 364 348 c 1
 364 1243 l 1
 1120 1394 l 1
 1120 492 l 2xb8
445 953 m 1
 1040 1114 l 1
 1040 1238 l 1
 445 1076 l 1
 445 953 l 1
EndSplineSet
EndChar

StartChar: arrowboth
Encoding: 8596 8596 602
Width: 1229
VWidth: 1708
Flags: W
LayerCount: 2
Fore
SplineSet
525 992 m 29
 204 600 l 29
 525 208 l 29
154 -99 m 5
 154 1256 l 5
 1076 1256 l 5
 1076 -99 l 5
 154 -99 l 5
705 992 m 29
 1026 600 l 29
 705 208 l 29
1026 600 m 29
 204 600 l 29
EndSplineSet
EndChar

StartChar: arrowbothv
Encoding: 8597 8597 603
Width: 1229
VWidth: 1708
Flags: W
LayerCount: 2
Fore
SplineSet
975 752 m 29
 615 1091 l 29
 255 752 l 29
154 55 m 1
 154 1145 l 1
 1076 1145 l 1
 1076 55 l 1
 154 55 l 1
975 510 m 25
 615 107 l 25
 255 510 l 25
615 107 m 25
 615 1091 l 29
EndSplineSet
EndChar

StartChar: updownarrowbar
Encoding: 8616 8616 604
Width: 1229
VWidth: 1708
Flags: W
LayerCount: 2
Fore
SplineSet
204 26 m 25
 1026 26 l 25
975 752 m 25
 615 1091 l 25
 255 752 l 25
154 -443 m 1
 154 1145 l 1
 1076 1145 l 1
 1076 -443 l 1
 154 -443 l 1
975 510 m 25
 615 107 l 25
 255 510 l 25
615 107 m 25
 615 1091 l 25
EndSplineSet
EndChar

StartChar: nsuperior
Encoding: 8319 8319 605
Width: 1229
VWidth: 1947
Flags: MW
LayerCount: 2
Back
SplineSet
290 1425 m 1
 1319 1425 l 1
 1136 544 l 1
 107 544 l 1
 290 1425 l 1
EndSplineSet
Fore
SplineSet
910 444 m 25
 1046 1105 l 18
 1077.3 1257.15 1021 1349 796 1349 c 10
 773 1349 l 18
 576 1349 422.521 1109.89 399 996 c 10
 285 444 l 25
 508 1524 l 25
EndSplineSet
EndChar

StartChar: radical
Encoding: 8730 8730 606
Width: 1229
VWidth: 1708
Flags: MW
LayerCount: 2
Back
SplineSet
-37 -25 m 1
 310 1641 l 1
 1459 1641 l 1
 1112 -25 l 1
 -37 -25 l 1
EndSplineSet
Fore
SplineSet
1376 1755 m 25
 509 5 l 25
 390 995 l 25
 78 995 l 25
EndSplineSet
EndChar

StartChar: intersection
Encoding: 8745 8745 608
Width: 1229
VWidth: 1947
Flags: MW
LayerCount: 2
Back
SplineSet
-113 0 m 5
 184 1425 l 5
 1414 1425 l 5
 1117 0 l 5
 -113 0 l 5
EndSplineSet
Fore
SplineSet
870.416 -198 m 25
 1123 1013 l 18
 1160.76 1194.05 1059 1350 795 1350 c 10
 770 1350 l 18
 506 1350 341.763 1194.05 304 1013 c 10
 51.416 -198 l 25
EndSplineSet
EndChar

StartChar: infinity
Encoding: 8734 8734 609
Width: 1229
Flags: MW
LayerCount: 2
Fore
SplineSet
940 872 m 3
 1113 872 1179 756 1150 618 c 3
 1117 460 1003 361 834 361 c 3
 655 361 610 512 632 618 c 3
 653 717 769 872 940 872 c 3
415 873 m 3
 273 873 139 744 113 618 c 3
 83 476 163 362 309 362 c 3
 515 362 610 512 632 618 c 3
 653 717 617 873 415 873 c 3
EndSplineSet
EndChar

StartChar: almostequal
Encoding: 8776 8776 610
Width: 1229
VWidth: 1947
Flags: MW
LayerCount: 2
Fore
SplineSet
191 788 m 17
 245 896 343 975 435 975 c 10
 507 975 l 18
 580 975 630 947 651 921 c 2
 725 829 l 2
 745 804 802 779 881 779 c 10
 936 779 l 18
 1035 779 1130 876 1180 965 c 9
98 340 m 17
 152 448 253 527 342 527 c 10
 414 527 l 18
 493 527 537 499 558 473 c 2
 632 381 l 2
 652 356 707 331 788 331 c 10
 843 331 l 18
 968 331 1039 426 1087 517 c 9
EndSplineSet
EndChar

StartChar: equivalence
Encoding: 8801 8801 611
Width: 1229
Flags: W
LayerCount: 2
Back
SplineSet
17 0 m 1
 314 1425 l 1
 1284 1425 l 5
 987 0 l 5
 17 0 l 1
EndSplineSet
Fore
SplineSet
110 920 m 25
 1279 920 l 25
43 600 m 25
 1212 600 l 25
-24 278 m 25
 1145 278 l 25
EndSplineSet
EndChar

StartChar: lessequal
Encoding: 8804 8804 612
Width: 1229
VWidth: 1708
Flags: MW
LayerCount: 2
Back
SplineSet
354 1612 m 1
 1323 1612 l 1
 956 -150 l 1
 -13 -150 l 1
 354 1612 l 1
EndSplineSet
Fore
SplineSet
-143 609 m 29
 1188 72 l 29
1416 1228 m 25
 230 859 l 25
 1256 457 l 25
EndSplineSet
EndChar

StartChar: greaterequal
Encoding: 8805 8805 613
Width: 1229
VWidth: 1708
Flags: MW
LayerCount: 2
Back
SplineSet
354 1612 m 1
 1323 1612 l 1
 956 -150 l 1
 -13 -150 l 1
 354 1612 l 1
EndSplineSet
Fore
SplineSet
1521 609 m 25
 -126 72 l 25
102 1228 m 25
 1129 859 l 25
 -58 457 l 25
EndSplineSet
EndChar

StartChar: revlogicalnot
Encoding: 8976 8976 614
Width: 1229
VWidth: 1708
Flags: MW
LayerCount: 2
Back
SplineSet
-68.2578 210 m 1
 184 1425 l 1
 1284 1425 l 5
 1031.75 210 l 5
 -68.2578 210 l 1
EndSplineSet
Fore
SplineSet
1212 600 m 25
 218 600 l 25
 113.816 102 l 25
EndSplineSet
EndChar

StartChar: integraltp
Encoding: 8992 8992 615
Width: 1229
Flags: MW
LayerCount: 2
Fore
SplineSet
615 -615 m 25
 615 1414 l 18
 615 1489.5 665.5 1548 754 1548 c 2
 764 1548 l 2
 924 1548 971 1489.5 971 1414 c 9
 971 1340 l 25
EndSplineSet
EndChar

StartChar: integralbt
Encoding: 8993 8993 616
Width: 1229
Flags: MW
LayerCount: 2
Fore
SplineSet
615 1775 m 29
 615 -324 l 18
 615 -399.5 564.5 -458 476 -458 c 2
 466 -458 l 2
 229 -458 182 -399.5 182 -324 c 9
 182 -218 l 25
EndSplineSet
EndChar
